<svg width="17" height="17" viewBox="0 0 17 17" fill="none" xmlns="http://www.w3.org/2000/svg">
<g clip-path="url(#clip0_648_45236)">
<path d="M13.8678 9.99333C13.06 9.99333 12.3336 10.347 11.8342 10.9072L10.7042 10.2246C10.9133 9.75028 11.0296 9.2263 11.0296 8.6756C11.0296 7.62757 10.6088 6.67617 9.92759 5.98083L11.5379 3.93124C11.7946 4.04666 12.0788 4.11144 12.3779 4.11144C13.5115 4.11144 14.4337 3.18925 14.4337 2.0557C14.4337 0.922149 13.5115 0 12.378 0C11.2445 0 10.3223 0.922182 10.3223 2.05573C10.3223 2.20226 10.338 2.34517 10.3673 2.48309C10.4328 2.79158 10.5678 3.07447 10.7549 3.31509L9.14476 5.36449C8.56842 5.02063 7.89536 4.82271 7.17681 4.82271C6.20117 4.82271 5.30924 5.18741 4.62971 5.78746L3.64846 4.92973C3.74295 4.71879 3.79594 4.4854 3.79594 4.23977C3.79594 4.11904 3.78303 4.0013 3.75889 3.88765C3.59636 3.12208 2.91533 2.54591 2.10209 2.54591C1.16806 2.54591 0.408203 3.30576 0.408203 4.23977C0.408203 5.17377 1.16806 5.93365 2.10209 5.93365C2.42858 5.93365 2.73365 5.84055 2.99256 5.67988L3.97348 6.53728C3.56346 7.14952 3.324 7.8851 3.324 8.67569C3.324 9.75313 3.76875 10.7285 4.48408 11.4284L3.2643 13.0509C3.0182 12.9465 2.74772 12.8887 2.464 12.8887C1.33048 12.8887 0.40827 13.8108 0.40827 14.9444C0.40827 16.078 1.33042 17 2.46397 17C3.59752 17 4.5197 16.0778 4.5197 14.9443C4.5197 14.8096 4.50629 14.678 4.48145 14.5504C4.41588 14.214 4.26822 13.9068 4.06001 13.6505L5.27982 12.028C5.84019 12.3464 6.48765 12.5285 7.17691 12.5285C8.39417 12.5285 9.4812 11.9609 10.1878 11.0767L11.3179 11.7594C11.2053 12.0578 11.1433 12.3807 11.1433 12.7179C11.1433 12.8965 11.161 13.0709 11.194 13.2399C11.4383 14.4933 12.544 15.4425 13.8678 15.4425C15.3702 15.4425 16.5924 14.2202 16.5924 12.7179C16.5924 11.2156 15.3701 9.99333 13.8678 9.99333ZM12.378 0.996391C12.9621 0.996391 13.4373 1.47159 13.4373 2.05573C13.4373 2.63988 12.9621 3.11508 12.378 3.11508C11.7939 3.11508 11.3187 2.63984 11.3187 2.05573C11.3187 1.47163 11.7939 0.996391 12.378 0.996391ZM2.10206 4.93716C1.71743 4.93716 1.40459 4.62426 1.40459 4.2397C1.40459 3.85511 1.71747 3.54227 2.10206 3.54227C2.48665 3.54227 2.79952 3.85514 2.79952 4.2397C2.79955 4.62426 2.48668 4.93716 2.10206 4.93716ZM2.4639 16.0036C1.8798 16.0036 1.40456 15.5284 1.40456 14.9442C1.40456 14.3601 1.87976 13.8849 2.4639 13.8849C3.04801 13.8849 3.52325 14.3601 3.52325 14.9442C3.52321 15.5284 3.04801 16.0036 2.4639 16.0036ZM7.17681 11.5321C5.60173 11.5321 4.32035 10.2506 4.32035 8.6756C4.32035 7.10054 5.60179 5.8191 7.17681 5.8191C8.75183 5.8191 10.0333 7.10054 10.0333 8.6756C10.0333 10.2506 8.75187 11.5321 7.17681 11.5321ZM13.8678 14.4461C12.9149 14.4461 12.1396 13.6708 12.1396 12.7179C12.1396 11.765 12.9149 10.9897 13.8678 10.9897C14.8208 10.9897 15.596 11.765 15.596 12.7179C15.596 13.6708 14.8208 14.4461 13.8678 14.4461Z" fill="#002E47"/>
</g>
<defs>
<clipPath id="clip0_648_45236">
<rect width="17" height="17" fill="white"/>
</clipPath>
</defs>
</svg>
