<svg width="17" height="16" viewBox="0 0 17 16" fill="none" xmlns="http://www.w3.org/2000/svg">
<g clip-path="url(#clip0_639_42641)">
<path d="M8.5 0C4.07803 0 0.5 3.57841 0.5 8C0.5 12.422 4.07841 16 8.5 16C12.922 16 16.5 12.4216 16.5 8C16.5 3.57803 12.9216 0 8.5 0ZM8.5 14.9333C4.67697 14.9333 1.56666 11.8231 1.56666 8C1.56666 4.17694 4.67697 1.06666 8.5 1.06666C12.323 1.06666 15.4333 4.17697 15.4333 8C15.4333 11.823 12.323 14.9333 8.5 14.9333Z" fill="white"/>
<path d="M12.7352 5.06026C12.527 4.85198 12.1892 4.85198 11.981 5.06026L7.23296 9.80829L5.01984 7.5952C4.81155 7.38692 4.47384 7.38692 4.26559 7.5952C4.0573 7.80348 4.0573 8.14117 4.26559 8.34945L6.8558 10.9397C7.06405 11.1479 7.40187 11.1479 7.61005 10.9397L12.7352 5.81448C12.9435 5.6062 12.9435 5.26854 12.7352 5.06026Z" fill="white"/>
</g>
<defs>
<clipPath id="clip0_639_42641">
<rect width="16" height="16" fill="white" transform="translate(0.5)"/>
</clipPath>
</defs>
</svg>
