<svg width="17" height="18" viewBox="0 0 17 18" fill="none" xmlns="http://www.w3.org/2000/svg">
<g clip-path="url(#clip0_590_33882)">
<path d="M8.5 0.5C3.81281 0.5 0 4.31281 0 9C0 13.6872 3.81281 17.5 8.5 17.5C13.1872 17.5 17 13.6865 17 9C17 4.31348 13.1872 0.5 8.5 0.5ZM8.5 16.1832C4.5397 16.1832 1.3168 12.961 1.3168 9C1.3168 5.03903 4.5397 1.8168 8.5 1.8168C12.4603 1.8168 15.6832 5.03903 15.6832 9C15.6832 12.961 12.461 16.1832 8.5 16.1832Z" fill="white"/>
<path d="M11.7923 8.28226H9.15866V5.64865C9.15866 5.28521 8.86435 4.99023 8.50025 4.99023C8.13614 4.99023 7.84183 5.28521 7.84183 5.64865V8.28226H5.20822C4.84412 8.28226 4.5498 8.57723 4.5498 8.94068C4.5498 9.30412 4.84412 9.59909 5.20822 9.59909H7.84183V12.2327C7.84183 12.5961 8.13614 12.8911 8.50025 12.8911C8.86435 12.8911 9.15866 12.5961 9.15866 12.2327V9.59909H11.7923C12.1564 9.59909 12.4507 9.30412 12.4507 8.94068C12.4507 8.57723 12.1564 8.28226 11.7923 8.28226Z" fill="white"/>
</g>
<defs>
<clipPath id="clip0_590_33882">
<rect width="17" height="17" fill="white" transform="translate(0 0.5)"/>
</clipPath>
</defs>
</svg>
