<svg width="16" height="16" viewBox="0 0 16 16" fill="none" xmlns="http://www.w3.org/2000/svg">
<g clip-path="url(#clip0_672_54467)">
<path d="M8 0C3.58853 0 0 3.58853 0 8C0 12.4115 3.58853 16 8 16C12.4115 16 16 12.4108 16 8C16 3.58916 12.4115 0 8 0ZM8 14.7607C4.27266 14.7607 1.23934 11.728 1.23934 8C1.23934 4.27203 4.27266 1.23934 8 1.23934C11.7273 1.23934 14.7607 4.27203 14.7607 8C14.7607 11.728 11.728 14.7607 8 14.7607Z" fill="#002E47"/>
<path d="M11.0977 7.32445H8.619V4.84576C8.619 4.5037 8.342 4.22607 7.99931 4.22607C7.65662 4.22607 7.37962 4.5037 7.37962 4.84576V7.32445H4.90094C4.55825 7.32445 4.28125 7.60207 4.28125 7.94414C4.28125 8.2862 4.55825 8.56382 4.90094 8.56382H7.37962V11.0425C7.37962 11.3846 7.65662 11.6622 7.99931 11.6622C8.342 11.6622 8.619 11.3846 8.619 11.0425V8.56382H11.0977C11.4404 8.56382 11.7174 8.2862 11.7174 7.94414C11.7174 7.60207 11.4404 7.32445 11.0977 7.32445Z" fill="#002E47"/>
</g>
<defs>
<clipPath id="clip0_672_54467">
<rect width="16" height="16" fill="white"/>
</clipPath>
</defs>
</svg>
