<svg width="15" height="16" viewBox="0 0 15 16" fill="none" xmlns="http://www.w3.org/2000/svg">
<g clip-path="url(#clip0_590_33751)">
<path d="M7.5 0.5C3.36425 0.5 0 3.86425 0 8C0 12.1358 3.36425 15.5 7.5 15.5C11.6358 15.5 15 12.1352 15 8C15 3.86483 11.6358 0.5 7.5 0.5ZM7.5 14.3381C4.00562 14.3381 1.16188 11.495 1.16188 8C1.16188 4.50503 4.00562 1.66188 7.5 1.66188C10.9944 1.66188 13.8381 4.50503 13.8381 8C13.8381 11.495 10.995 14.3381 7.5 14.3381Z" fill="#39B4EF"/>
<path d="M10.4051 7.36688H8.08129V5.04311C8.08129 4.72243 7.8216 4.46216 7.50033 4.46216C7.17906 4.46216 6.91937 4.72243 6.91937 5.04311V7.36688H4.59561C4.27434 7.36688 4.01465 7.62716 4.01465 7.94784C4.01465 8.26853 4.27434 8.5288 4.59561 8.5288H6.91937V10.8526C6.91937 11.1733 7.17906 11.4335 7.50033 11.4335C7.8216 11.4335 8.08129 11.1733 8.08129 10.8526V8.5288H10.4051C10.7263 8.5288 10.986 8.26853 10.986 7.94784C10.986 7.62716 10.7263 7.36688 10.4051 7.36688Z" fill="#39B4EF"/>
</g>
<defs>
<clipPath id="clip0_590_33751">
<rect width="15" height="15" fill="white" transform="translate(0 0.5)"/>
</clipPath>
</defs>
</svg>
