<svg width="30" height="31" viewBox="0 0 30 31" fill="none" xmlns="http://www.w3.org/2000/svg">
<path d="M7.57617 10.4843H2.08482M7.57617 20.5157H2.08482M7.57617 15.5H0M18.1519 17.3674C18.1519 18.3988 18.988 19.2349 20.0193 19.2349M20.0193 19.2349C21.0507 19.2349 21.8868 18.3988 21.8868 17.3674C21.8868 16.3361 21.0507 15.5 20.0193 15.5C18.988 15.5 18.1519 14.6639 18.1519 13.6326C18.1519 12.6012 18.988 11.7651 20.0193 11.7651M20.0193 19.2349L20.0193 21.3972M20.0193 11.7651C21.0507 11.7651 21.8868 12.6012 21.8868 13.6326M20.0193 11.7651L20.0193 9.60282M29.1211 15.5C29.1211 20.5268 25.0461 24.6018 20.0193 24.6018C14.9926 24.6018 10.9175 20.5268 10.9175 15.5C10.9175 10.4732 14.9926 6.39822 20.0193 6.39822C25.0461 6.39822 29.1211 10.4732 29.1211 15.5Z" stroke="#002E47" stroke-width="1.5" stroke-miterlimit="10"/>
</svg>
