<svg width="14" height="10" viewBox="0 0 14 10" fill="none" xmlns="http://www.w3.org/2000/svg">
    <g clip-path="url(#clip0_529_40139)">
        <path d="M4.94972 0.159839L4.61988 0.487403C4.51687 0.590493 4.46012 0.727648 4.46012 0.874234C4.46012 1.02074 4.51687 1.15806 4.61988 1.26115L8.35665 4.99776L4.61573 8.73869C4.51272 8.84162 4.45605 8.97893 4.45605 9.12544C4.45605 9.27195 4.51272 9.40934 4.61573 9.51235L4.94354 9.84C5.15671 10.0533 5.50395 10.0533 5.71712 9.84L10.1872 5.38598C10.2901 5.28305 10.3626 5.1459 10.3626 4.99809V4.99638C10.3626 4.8498 10.29 4.71264 10.1872 4.60971L5.72924 0.159839C5.62631 0.0567484 5.48501 0.000163078 5.3385 0C5.19191 0 5.05256 0.0567484 4.94972 0.159839Z" fill="#707E95"/>
    </g>
    <defs>
        <clipPath id="clip0_529_40139">
            <rect width="10" height="7" fill="white" transform="matrix(0 -1 1 0 3.5 10)"/>
        </clipPath>
    </defs>
</svg>
