<svg width="12" height="11" viewBox="0 0 12 11" fill="none" xmlns="http://www.w3.org/2000/svg">
<g clip-path="url(#clip0_764_559)">
<path d="M3.95069 0.659839L3.62085 0.987403C3.51784 1.09049 3.4611 1.22765 3.4611 1.37423C3.4611 1.52074 3.51784 1.65806 3.62085 1.76115L7.35763 5.49776L3.61671 9.23869C3.5137 9.34162 3.45703 9.47893 3.45703 9.62544C3.45703 9.77195 3.5137 9.90934 3.61671 10.0124L3.94451 10.34C4.15769 10.5533 4.50493 10.5533 4.7181 10.34L9.18813 5.88598C9.29106 5.78305 9.36358 5.6459 9.36358 5.49809V5.49638C9.36358 5.3498 9.29098 5.21264 9.18813 5.10971L4.73021 0.659839C4.62728 0.556748 4.48598 0.500163 4.33948 0.5C4.19289 0.5 4.05354 0.556748 3.95069 0.659839Z" fill="#707E95"/>
</g>
<defs>
<clipPath id="clip0_764_559">
<rect width="10" height="7" fill="white" transform="matrix(0 -1 1 0 2.5 10.5)"/>
</clipPath>
</defs>
</svg>
