<svg width="17" height="18" viewBox="0 0 17 18" fill="none" xmlns="http://www.w3.org/2000/svg">
<g clip-path="url(#clip0_536_30849)">
<path d="M15.4082 2.5442C13.2895 0.425372 9.84182 0.425372 7.72273 2.5442L1.13496 9.13193C-0.378404 10.6455 -0.378304 13.1081 1.13516 14.6215C1.89196 15.3783 2.88573 15.7567 3.8799 15.7566C4.8738 15.7565 5.8681 15.3782 6.62477 14.6215L12.6634 8.58278C13.1033 8.14291 13.3456 7.55803 13.3457 6.93594C13.3457 6.31381 13.1035 5.72897 12.6635 5.28897C11.7553 4.38089 10.2776 4.38093 9.36964 5.28913L5.42062 9.23804C5.11744 9.54119 5.11744 10.0328 5.42056 10.336C5.7237 10.6392 6.21527 10.6391 6.51848 10.336L10.4675 6.38703C10.7702 6.08431 11.2627 6.08425 11.5655 6.38696C11.7121 6.53358 11.7929 6.72855 11.7929 6.93591C11.7929 7.14326 11.7121 7.33816 11.5655 7.48485L5.52684 13.5236C4.6187 14.4316 3.14116 14.4317 2.23309 13.5236C1.32502 12.6155 1.32495 11.1379 2.23292 10.2298L8.82066 3.64212C10.3343 2.12859 12.7969 2.12859 14.3103 3.64212C15.0435 4.37525 15.4473 5.35006 15.4473 6.38689C15.4473 7.42373 15.0435 8.39854 14.3103 9.13173L7.72263 15.7196C7.41948 16.0227 7.41948 16.5143 7.72269 16.8175C7.8743 16.9691 8.07299 17.0449 8.27164 17.0449C8.47033 17.0449 8.66902 16.969 8.82062 16.8175L15.4082 10.2297C16.4347 9.20328 16.9999 7.83857 17 6.38693C17 4.93532 16.4347 3.5706 15.4082 2.5442Z" fill="#002E47"/>
</g>
<defs>
<clipPath id="clip0_536_30849">
<rect width="17" height="17" fill="white" transform="translate(0 0.5)"/>
</clipPath>
</defs>
</svg>
