<svg width="16" height="16" viewBox="0 0 16 16" fill="none" xmlns="http://www.w3.org/2000/svg">
<g clip-path="url(#clip0_669_49275)">
<path d="M13.6524 2.34723C12.1532 0.848077 10.1199 0.00585938 7.99982 0.00585938C5.87969 0.00585938 3.84639 0.848077 2.34724 2.34723C0.848077 3.84639 0.00585938 5.87969 0.00585938 7.99981C0.00585938 10.1199 0.848077 12.1532 2.34724 13.6524C3.84639 15.1516 5.87969 15.9938 7.99982 15.9938C10.1199 15.9938 12.1532 15.1516 13.6524 13.6524C15.1516 12.1532 15.9938 10.1199 15.9938 7.99981C15.9938 5.87969 15.1516 3.84639 13.6524 2.34723ZM12.8473 12.8473C11.8882 13.8032 10.6673 14.4534 9.33886 14.7158C8.01043 14.9782 6.63402 14.8412 5.38344 14.3219C4.13285 13.8026 3.06418 12.9244 2.31237 11.7982C1.56056 10.672 1.15932 9.34821 1.15932 7.9941C1.15932 6.64 1.56056 5.31625 2.31237 4.19003C3.06418 3.0638 4.13285 2.1856 5.38344 1.66632C6.63402 1.14704 8.01043 1.00997 9.33886 1.27241C10.6673 1.53485 11.8882 2.18504 12.8473 3.14088C13.4861 3.77742 13.9929 4.53379 14.3387 5.36661C14.6845 6.19944 14.8625 7.09234 14.8625 7.9941C14.8625 8.89587 14.6845 9.78877 14.3387 10.6216C13.9929 11.4544 13.4861 12.2108 12.8473 12.8473ZM10.4207 6.38398L8.80488 7.99981L10.4207 9.61565C10.5271 9.72263 10.5868 9.86734 10.5868 10.0182C10.5868 10.169 10.5271 10.3137 10.4207 10.4207C10.3137 10.5271 10.169 10.5868 10.0182 10.5868C9.86734 10.5868 9.72263 10.5271 9.61566 10.4207L7.99982 8.80488L6.38398 10.4207C6.277 10.5271 6.13229 10.5868 5.98145 10.5868C5.8306 10.5868 5.68589 10.5271 5.57891 10.4207C5.47257 10.3137 5.41288 10.169 5.41288 10.0182C5.41288 9.86734 5.47257 9.72263 5.57891 9.61565L7.19475 7.99981L5.57891 6.38398C5.48537 6.27475 5.43649 6.13425 5.44205 5.99055C5.4476 5.84685 5.50717 5.71054 5.60885 5.60885C5.71054 5.50717 5.84685 5.44759 5.99055 5.44204C6.13425 5.43649 6.27475 5.48537 6.38398 5.57891L7.99982 7.19475L9.61566 5.57891C9.72488 5.48537 9.86538 5.43649 10.0091 5.44204C10.1528 5.44759 10.2891 5.50717 10.3908 5.60885C10.4925 5.71054 10.552 5.84685 10.5576 5.99055C10.5631 6.13425 10.5143 6.27475 10.4207 6.38398Z" fill="#EF6079"/>
</g>
<defs>
<clipPath id="clip0_669_49275">
<rect width="16" height="16" fill="white"/>
</clipPath>
</defs>
</svg>
