<svg width="70" height="61" viewBox="0 0 70 61" fill="none" xmlns="http://www.w3.org/2000/svg">
<path d="M36.6364 15.4524L36.7287 15.4799L36.7327 15.4754C37.1703 15.5547 37.6045 15.2926 37.7331 14.8585C38.9047 10.9218 42.5958 8.17164 46.7082 8.17164C47.1951 8.17164 47.59 7.77676 47.59 7.2899C47.59 6.80302 47.1951 6.40816 46.7082 6.40816C41.6541 6.40816 37.4069 9.77325 36.0432 14.3559C35.904 14.8228 36.1699 15.3133 36.6364 15.4524Z" fill="#39B4EF" stroke="white" stroke-width="0.3"/>
<path d="M56.9522 43.1449H52.5618C52.1578 43.1449 51.8301 42.8172 51.8301 42.4132C51.8301 42.0092 52.1578 41.6815 52.5618 41.6815H56.9522C63.004 41.6815 67.9281 36.7574 67.9281 30.7055C67.9281 24.6536 63.004 19.7296 56.9522 19.7296H56.8466C56.6344 19.7296 56.4326 19.6376 56.2936 19.4771C56.1546 19.3167 56.0918 19.1039 56.1222 18.8938C56.1875 18.4381 56.2204 17.9802 56.2204 17.5344C56.2204 12.2895 51.9528 8.02183 46.7079 8.02183C44.6674 8.02183 42.7215 8.65948 41.0803 9.8663C40.7196 10.1313 40.2074 10.0137 39.9989 9.61699C35.3509 0.766219 23.2107 -0.422348 16.9166 7.27705C14.2652 10.5207 13.2234 14.7401 14.0582 18.8526C14.1502 19.3068 13.8026 19.7301 13.3411 19.7301H13.0479C6.996 19.7301 2.07193 24.6542 2.07193 30.7061C2.07193 36.758 6.996 41.682 13.0479 41.682H17.4382C17.8422 41.682 18.1699 42.0097 18.1699 42.4138C18.1699 42.8178 17.8422 43.1455 17.4382 43.1455H13.0479C6.1889 43.1455 0.608398 37.565 0.608398 30.706C0.608398 24.0394 5.87995 18.5807 12.4735 18.2797C11.8541 14.0131 13.0385 9.70947 15.7835 6.35089C22.5222 -1.89308 35.4364 -0.969039 40.8955 8.22359C42.6371 7.13174 44.6299 6.55896 46.7076 6.55896C53.0622 6.55896 58.0976 11.9675 57.657 18.2865C64.1897 18.6529 69.3913 24.0828 69.3913 30.7055C69.3913 37.565 63.8108 43.145 56.9518 43.145L56.9522 43.1449Z" fill="#39B4EF"/>
<path d="M16.4584 42C16.4584 52.1699 24.7321 60.4435 34.9019 60.4435C45.0718 60.4435 53.3454 52.1698 53.3454 42C53.3454 31.8301 45.0718 23.5565 34.9019 23.5565C24.7319 23.5565 16.4584 31.8302 16.4584 42ZM18.2222 42C18.2222 32.8031 25.7048 25.3203 34.9019 25.3203C44.0988 25.3203 51.5816 32.803 51.5816 42C51.5816 51.1969 44.0988 58.6797 34.9019 58.6797C25.705 58.6797 18.2222 51.197 18.2222 42Z" fill="#39B4EF" stroke="white" stroke-width="0.3"/>
<path d="M34.5512 49.3643C34.5512 49.7429 34.8583 50.05 35.2369 50.05C35.6154 50.05 35.9226 49.7433 35.9226 49.3643V35.4357C35.9226 35.057 35.6155 34.75 35.2369 34.75C34.8582 34.75 34.5512 35.0571 34.5512 35.4357V49.3643Z" fill="#39B4EF" stroke="#39B4EF" stroke-width="0.3"/>
<path d="M35.2365 36.4068L31.4358 40.2075L35.2365 36.4068ZM35.2365 36.4068L39.0373 40.2075C39.171 40.3413 39.347 40.4084 39.5221 40.4084L35.2365 36.4068ZM30.466 40.2076C30.7338 40.4754 31.1681 40.4755 31.4357 40.2076L39.5222 40.4084C39.697 40.4084 39.8731 40.3419 40.0071 40.2075C40.2749 39.9396 40.2749 39.5056 40.007 39.2378L35.7214 34.9521C35.4536 34.6843 35.0192 34.6842 34.7516 34.9521C34.7516 34.9522 34.7515 34.9522 34.7515 34.9522L30.466 39.2378C30.1981 39.5057 30.1981 39.9397 30.466 40.2076Z" fill="#39B4EF" stroke="#39B4EF" stroke-width="0.3"/>
</svg>
