<svg width="20" height="20" viewBox="0 0 20 20" fill="none" xmlns="http://www.w3.org/2000/svg">
<g clip-path="url(#clip0_628_44375)">
<path d="M18.481 6.72373C18.5433 6.38968 18.5749 6.0506 18.5753 5.71077C18.5715 2.55461 16.0099 -0.00087497 12.8537 0.00293394C10.4511 0.00582201 8.30687 1.51118 7.48799 3.76995C6.02181 3.1863 4.36008 3.90171 3.7764 5.36789C3.72588 5.4948 3.68452 5.62514 3.65267 5.75795C1.31157 6.10807 -0.302401 8.28974 0.047726 10.6308C0.361731 12.7305 2.16548 14.2838 4.28842 14.283H7.86014C8.25467 14.283 8.57449 13.9631 8.57449 13.5686C8.57449 13.1741 8.25467 12.8542 7.86014 12.8542H4.28842C2.71032 12.8542 1.43103 11.5749 1.43103 9.99684C1.43103 8.41874 2.71032 7.13945 4.28842 7.13945C4.68296 7.13945 5.00278 6.81963 5.00278 6.42509C5.00408 5.63606 5.64477 4.99746 6.4338 4.99876C6.80695 4.99939 7.16507 5.14597 7.43153 5.40715C7.71251 5.68407 8.16481 5.68076 8.44173 5.39978C8.5457 5.29426 8.6143 5.15907 8.63803 5.01282C9.02579 2.68005 11.2312 1.10333 13.564 1.49109C15.8967 1.87884 17.4734 4.08424 17.0857 6.41701C17.0626 6.5561 17.0326 6.69397 16.9959 6.83009C16.9137 7.12827 17.0328 7.44542 17.2909 7.61586C18.6059 8.48835 18.9645 10.2617 18.092 11.5766C17.5639 12.3725 16.6731 12.8519 15.7179 12.8542H13.5749C13.1803 12.8542 12.8605 13.174 12.8605 13.5685C12.8605 13.963 13.1803 14.2829 13.5749 14.2829H15.7179C18.0851 14.2807 20.0022 12.3599 19.9999 9.99274C19.9988 8.73283 19.4432 7.53721 18.481 6.72373Z" fill="white"/>
<path d="M14.7774 15.206C14.5006 14.9387 14.0617 14.9387 13.7849 15.206L11.4311 17.5584V7.13892C11.4311 6.74438 11.1113 6.42456 10.7168 6.42456C10.3222 6.42456 10.0024 6.74438 10.0024 7.13892V17.5583L7.65006 15.206C7.36627 14.9319 6.91406 14.9398 6.63999 15.2235C6.37261 15.5004 6.37261 15.9392 6.63999 16.2161L10.2117 19.7878C10.4903 20.0671 10.9426 20.0677 11.2219 19.789C11.2224 19.7886 11.2228 19.7882 11.2232 19.7878L14.7949 16.2161C15.0691 15.9323 15.0612 15.4801 14.7774 15.206Z" fill="white"/>
</g>
<defs>
<clipPath id="clip0_628_44375">
<rect width="20" height="20" fill="white"/>
</clipPath>
</defs>
</svg>
