<svg width="22" height="22" viewBox="0 0 22 22" fill="none" xmlns="http://www.w3.org/2000/svg">
<g clip-path="url(#clip0_630_45075)">
<path d="M18.33 8.08686C17.3132 4.0363 13.2053 1.57695 9.15479 2.59374C5.98937 3.38836 3.69092 6.12418 3.4541 9.37918C1.20652 9.74983 -0.31505 11.8723 0.0556011 14.1199C0.385092 16.118 2.11646 17.5813 4.14152 17.5733H7.57865V16.1984H4.14152C2.62292 16.1984 1.39183 14.9673 1.39183 13.4487C1.39183 11.9301 2.62292 10.699 4.14152 10.699C4.5212 10.699 4.82895 10.3913 4.82895 10.0116C4.82551 6.59472 7.5927 3.82199 11.0096 3.8186C13.9674 3.81564 16.5136 5.9067 17.0857 8.80862C17.1422 9.09837 17.3774 9.31972 17.67 9.35856C19.5494 9.62618 20.8559 11.3666 20.5883 13.2459C20.348 14.9334 18.9072 16.1899 17.2026 16.1984H14.4529V17.5733H17.2026C19.8602 17.5652 22.008 15.4043 22 12.7467C21.9933 10.5345 20.479 8.61184 18.33 8.08686Z" fill="white"/>
<path d="M10.527 10.8984L7.77734 13.6481L8.74661 14.6174L10.3277 13.0432V19.6356H11.7025V13.0432L13.2767 14.6174L14.246 13.6481L11.4963 10.8984C11.2282 10.6319 10.7952 10.6319 10.527 10.8984Z" fill="white"/>
</g>
<defs>
<clipPath id="clip0_630_45075">
<rect width="22" height="22" fill="white"/>
</clipPath>
</defs>
</svg>
