<svg width="16" height="16" viewBox="0 0 16 16" fill="none" xmlns="http://www.w3.org/2000/svg">
<g clip-path="url(#clip0_534_27841)">
<path d="M2 16H11.3333C11.8638 16 12.3725 15.7893 12.7475 15.4142C13.1226 15.0391 13.3333 14.5304 13.3333 14V8.98667C13.3333 8.80986 13.2631 8.64029 13.1381 8.51526C13.013 8.39024 12.8435 8.32 12.6667 8.32C12.4899 8.32 12.3203 8.39024 12.1953 8.51526C12.0702 8.64029 12 8.80986 12 8.98667V14C12 14.1768 11.9298 14.3464 11.8047 14.4714C11.6797 14.5964 11.5101 14.6667 11.3333 14.6667H2C1.82319 14.6667 1.65362 14.5964 1.5286 14.4714C1.40357 14.3464 1.33333 14.1768 1.33333 14V4C1.33333 3.82319 1.40357 3.65362 1.5286 3.5286C1.65362 3.40357 1.82319 3.33333 2 3.33333H7.68C7.85681 3.33333 8.02638 3.2631 8.15141 3.13807C8.27643 3.01305 8.34667 2.84348 8.34667 2.66667C8.34667 2.48986 8.27643 2.32029 8.15141 2.19526C8.02638 2.07024 7.85681 2 7.68 2H2C1.46957 2 0.960859 2.21071 0.585786 2.58579C0.210714 2.96086 0 3.46957 0 4L0 14C0 14.5304 0.210714 15.0391 0.585786 15.4142C0.960859 15.7893 1.46957 16 2 16Z" fill="white"/>
<path d="M14.0506 0.00731996C13.8016 -0.0172863 13.5503 0.0130012 13.3142 0.0960488C13.0782 0.179096 12.8633 0.312884 12.6846 0.487987L6.73326 6.43665C6.62714 6.54222 6.55993 6.68064 6.54259 6.82932L6.28859 8.96865C6.27748 9.06218 6.28631 9.157 6.3145 9.24687C6.3427 9.33674 6.38961 9.41962 6.45216 9.49004C6.5147 9.56046 6.59146 9.61682 6.67738 9.65543C6.76329 9.69403 6.85641 9.71399 6.95059 9.71399C6.97689 9.71408 7.00316 9.71252 7.02926 9.70932L9.16859 9.45532C9.31727 9.43799 9.45569 9.37078 9.56126 9.26465L15.5099 3.31665C15.6847 3.13755 15.8182 2.92247 15.9012 2.68642C15.9843 2.45037 16.0147 2.19904 15.9906 1.94999C15.9449 1.45125 15.724 0.984802 15.3673 0.63332C15.0162 0.27556 14.5497 0.0537696 14.0506 0.00731996ZM14.5699 2.37332L8.78459 8.15865L7.71459 8.28532L7.84193 7.21865L13.6279 1.43332C13.8446 1.21399 14.2433 1.39465 14.4239 1.57332C14.6046 1.75199 14.7906 2.15265 14.5699 2.37332Z" fill="white"/>
</g>
<defs>
<clipPath id="clip0_534_27841">
<rect width="16" height="16" fill="white"/>
</clipPath>
</defs>
</svg>
