<svg width="20" height="20" viewBox="0 0 20 20" fill="none" xmlns="http://www.w3.org/2000/svg">
<g clip-path="url(#clip0_637_42534)">
<path d="M17.497 0.185791H5.53108C4.25719 0.185791 3.22086 1.22524 3.22086 2.50296V3.22039H2.49577C1.22188 3.22039 0.185547 4.25984 0.185547 5.53827V17.4973C0.185547 18.775 1.22188 19.8145 2.49577 19.8145H14.4621C15.7401 19.8145 16.7796 18.775 16.7796 17.4973V16.7799H17.497C18.775 16.7799 19.8149 15.7404 19.8149 14.462V2.50289C19.8148 1.22524 18.775 0.185791 17.497 0.185791ZM15.3613 17.4973C15.3613 17.9931 14.958 18.3962 14.4621 18.3962H2.49577C2.00405 18.3962 1.60382 17.9931 1.60382 17.4973V5.5382C1.60382 5.04237 2.00412 4.63859 2.49577 4.63859H3.92999H14.4621C14.9579 4.63859 15.3613 5.0423 15.3613 5.5382V16.0706V17.4973ZM18.3966 14.4619C18.3966 14.9578 17.9932 15.3616 17.4969 15.3616H16.7795V5.5382C16.7795 4.25984 15.7401 3.22032 14.462 3.22032H4.63905V2.50289C4.63905 2.00706 5.03936 1.60399 5.531 1.60399H17.4969C17.9931 1.60399 18.3966 2.00706 18.3966 2.50289V14.4619Z" fill="#97B0DD"/>
</g>
<defs>
<clipPath id="clip0_637_42534">
<rect width="20" height="20" fill="white"/>
</clipPath>
</defs>
</svg>
