<svg width="15" height="14" viewBox="0 0 15 14" fill="none" xmlns="http://www.w3.org/2000/svg">
<g clip-path="url(#clip0_638_41961)">
<path d="M3.50878 13.3248C3.52458 13.7022 3.83509 14 4.21271 14H10.7901C11.1677 14 11.4782 13.7022 11.494 13.3248L11.9638 3.40906H3.03906L3.50878 13.3248ZM8.98929 5.87196C8.98929 5.71396 9.11741 5.58581 9.27548 5.58581H9.73319C9.89116 5.58581 10.0194 5.71393 10.0194 5.87196V11.5371C10.0194 11.6951 9.89126 11.8232 9.73319 11.8232H9.27548C9.11748 11.8232 8.98929 11.6952 8.98929 11.5371V5.87196ZM6.98641 5.87196C6.98641 5.71396 7.11452 5.58581 7.27255 5.58581H7.73027C7.88823 5.58581 8.01642 5.71393 8.01642 5.87196V11.5371C8.01642 11.6951 7.88834 11.8232 7.73027 11.8232H7.27255C7.11455 11.8232 6.98641 11.6952 6.98641 11.5371V5.87196ZM4.98345 5.87196C4.98345 5.71396 5.11156 5.58581 5.26959 5.58581H5.72735C5.88535 5.58581 6.01349 5.71393 6.01349 5.87196V11.5371C6.01349 11.6951 5.88538 11.8232 5.72735 11.8232H5.26959C5.11159 11.8232 4.98345 11.6952 4.98345 11.5371V5.87196Z" fill="#EF6079"/>
<path d="M12.2756 0.72121H9.2412V0.147546C9.2412 0.0660786 9.17515 0 9.09365 0H5.90724C5.82578 0 5.75973 0.0660786 5.75973 0.147546V0.721176H2.72533C2.48113 0.721176 2.2832 0.919138 2.2832 1.16333V2.55232H12.7177V1.16337C12.7177 0.919172 12.5198 0.72121 12.2756 0.72121Z" fill="#EF6079"/>
</g>
<defs>
<clipPath id="clip0_638_41961">
<rect width="14" height="14" fill="white" transform="translate(0.5)"/>
</clipPath>
</defs>
</svg>
