<svg width="18" height="18" viewBox="0 0 18 18" fill="none" xmlns="http://www.w3.org/2000/svg">
<g clip-path="url(#clip0_531_43171)">
<path d="M3.86666 17.1319C3.88697 17.6171 4.28621 18 4.77172 18H13.2284C13.7139 18 14.1131 17.6171 14.1334 17.1319L14.7373 4.38306H3.26274L3.86666 17.1319ZM10.913 7.54965C10.913 7.3465 11.0778 7.18174 11.281 7.18174H11.8695C12.0726 7.18174 12.2374 7.34646 12.2374 7.54965V14.8334C12.2374 15.0365 12.0727 15.2013 11.8695 15.2013H11.281C11.0778 15.2013 10.913 15.0366 10.913 14.8334V7.54965ZM8.33789 7.54965C8.33789 7.3465 8.50261 7.18174 8.7058 7.18174H9.29429C9.49739 7.18174 9.66219 7.34646 9.66219 7.54965V14.8334C9.66219 15.0365 9.49752 15.2013 9.29429 15.2013H8.7058C8.50266 15.2013 8.33789 15.0366 8.33789 14.8334V7.54965ZM5.76266 7.54965C5.76266 7.3465 5.92738 7.18174 6.13057 7.18174H6.7191C6.92225 7.18174 7.08701 7.34646 7.08701 7.54965V14.8334C7.08701 15.0365 6.92229 15.2013 6.7191 15.2013H6.13057C5.92742 15.2013 5.76266 15.0366 5.76266 14.8334V7.54965Z" fill="white"/>
<path d="M15.1394 0.92727H11.2381V0.189702C11.2381 0.0849582 11.1532 0 11.0484 0H6.95159C6.84685 0 6.76194 0.0849582 6.76194 0.189702V0.927226H2.86056C2.54659 0.927226 2.29211 1.18175 2.29211 1.49571V3.28156H15.7079V1.49576C15.7079 1.18179 15.4534 0.92727 15.1394 0.92727Z" fill="white"/>
</g>
<defs>
<clipPath id="clip0_531_43171">
<rect width="18" height="18" fill="white"/>
</clipPath>
</defs>
</svg>
