<svg width="19" height="20" viewBox="0 0 19 20" fill="none" xmlns="http://www.w3.org/2000/svg">
<path d="M9.5 19.5C6.98052 19.5 4.56393 18.4991 2.7825 16.7175C1.00094 14.9358 0 12.5195 0 10C0 7.48052 1.00094 5.06394 2.7825 3.2825C4.56419 1.50095 6.98052 0.5 9.5 0.5C12.0195 0.5 14.4361 1.50095 16.2175 3.2825C17.9991 5.0642 19 7.48052 19 10C18.997 12.5186 17.9952 14.9335 16.2142 16.7142C14.4332 18.4951 12.0184 19.497 9.5 19.5ZM13.1636 7.55662V7.55647C13.3301 7.39555 13.4251 7.1745 13.4271 6.94287C13.4292 6.71125 13.3381 6.48846 13.1743 6.32464C13.0104 6.16082 12.7877 6.06974 12.556 6.07177C12.3244 6.07379 12.1034 6.16878 11.9424 6.33534L9.5 8.77865L7.05758 6.33534C6.83825 6.12353 6.52348 6.043 6.22927 6.12367C5.93519 6.20435 5.70546 6.43409 5.62477 6.72817C5.54409 7.0224 5.62463 7.33715 5.83644 7.55649L8.27886 9.99979L5.83644 12.4431C5.66988 12.604 5.57489 12.8251 5.57287 13.0567C5.57084 13.2883 5.66193 13.5111 5.82574 13.6749C5.98955 13.8388 6.21234 13.9298 6.44397 13.9278C6.67559 13.9258 6.89664 13.8308 7.05757 13.6642L9.49999 11.2209L11.9424 13.6642C12.1033 13.8308 12.3244 13.9258 12.556 13.9278C12.7876 13.9298 13.0104 13.8387 13.1742 13.6749C13.3381 13.5111 13.4291 13.2883 13.4271 13.0567C13.4251 12.8251 13.3301 12.604 13.1635 12.4431L10.7211 9.99979L13.1636 7.55662Z" fill="#EF6079"/>
</svg>
