<svg width="22" height="22" viewBox="0 0 22 22" fill="none" xmlns="http://www.w3.org/2000/svg">
<g clip-path="url(#clip0_533_27818)">
<path d="M4.72591 20.9389C4.75074 21.5318 5.23869 21.9998 5.8321 21.9998H16.168C16.7614 21.9998 17.2494 21.5318 17.2742 20.9389L18.0123 5.35693H3.98779L4.72591 20.9389ZM13.3382 9.22721C13.3382 8.97892 13.5395 8.77755 13.7879 8.77755H14.5071C14.7554 8.77755 14.9569 8.97887 14.9569 9.22721V18.1295C14.9569 18.3779 14.7555 18.5792 14.5071 18.5792H13.7879C13.5396 18.5792 13.3382 18.378 13.3382 18.1295V9.22721ZM10.1908 9.22721C10.1908 8.97892 10.3921 8.77755 10.6404 8.77755H11.3597C11.6079 8.77755 11.8093 8.97887 11.8093 9.22721V18.1295C11.8093 18.3779 11.6081 18.5792 11.3597 18.5792H10.6404C10.3921 18.5792 10.1908 18.378 10.1908 18.1295V9.22721ZM7.04325 9.22721C7.04325 8.97892 7.24458 8.77755 7.49291 8.77755H8.21224C8.46052 8.77755 8.6619 8.97887 8.6619 9.22721V18.1295C8.6619 18.3779 8.46058 18.5792 8.21224 18.5792H7.49291C7.24463 18.5792 7.04325 18.378 7.04325 18.1295V9.22721Z" fill="#002E47"/>
<path d="M18.5038 1.13333H13.7355V0.231858C13.7355 0.103838 13.6317 0 13.5037 0H8.49644C8.36842 0 8.26463 0.103838 8.26463 0.231858V1.13328H3.49628C3.11254 1.13328 2.80151 1.44436 2.80151 1.8281V4.01079H19.1986V1.82815C19.1986 1.44441 18.8875 1.13333 18.5038 1.13333Z" fill="#002E47"/>
</g>
<defs>
<clipPath id="clip0_533_27818">
<rect width="22" height="22" fill="white"/>
</clipPath>
</defs>
</svg>
