<svg width="14" height="14" viewBox="0 0 14 14" fill="none" xmlns="http://www.w3.org/2000/svg">
<g clip-path="url(#clip0_563_29527)">
<path d="M3.0078 13.3249C3.0236 13.7022 3.33411 14 3.71174 14H10.2891C10.6668 14 10.9773 13.7022 10.9931 13.3249L11.4628 3.40908H2.53809L3.0078 13.3249ZM8.48832 5.87198C8.48832 5.71399 8.61643 5.58584 8.7745 5.58584H9.23222C9.39018 5.58584 9.5184 5.71395 9.5184 5.87198V11.5371C9.5184 11.6951 9.39028 11.8232 9.23222 11.8232H8.7745C8.6165 11.8232 8.48832 11.6952 8.48832 11.5371V5.87198ZM6.48543 5.87198C6.48543 5.71399 6.61354 5.58584 6.77157 5.58584H7.22929C7.38726 5.58584 7.51544 5.71395 7.51544 5.87198V11.5371C7.51544 11.6951 7.38736 11.8232 7.22929 11.8232H6.77157C6.61358 11.8232 6.48543 11.6952 6.48543 11.5371V5.87198ZM4.48247 5.87198C4.48247 5.71399 4.61058 5.58584 4.76862 5.58584H5.22637C5.38437 5.58584 5.51252 5.71395 5.51252 5.87198V11.5371C5.51252 11.6951 5.3844 11.8232 5.22637 11.8232H4.76862C4.61062 11.8232 4.48247 11.6952 4.48247 11.5371V5.87198Z" fill="#707E95"/>
<path d="M11.7756 0.72121H8.7412V0.147546C8.7412 0.0660786 8.67515 0 8.59365 0H5.40724C5.32578 0 5.25973 0.0660786 5.25973 0.147546V0.721176H2.22533C1.98113 0.721176 1.7832 0.919138 1.7832 1.16333V2.55232H12.2177V1.16337C12.2177 0.919172 12.0198 0.72121 11.7756 0.72121Z" fill="#707E95"/>
</g>
<defs>
<clipPath id="clip0_563_29527">
<rect width="14" height="14" fill="white"/>
</clipPath>
</defs>
</svg>
