<svg width="19" height="19" viewBox="0 0 19 19" fill="none" xmlns="http://www.w3.org/2000/svg">
<path d="M1.90001 11.4C2.94936 11.4 3.80003 10.5493 3.80003 9.49999C3.80003 8.45064 2.94936 7.59998 1.90001 7.59998C0.850665 7.59998 0 8.45064 0 9.49999C0 10.5493 0.850665 11.4 1.90001 11.4Z" fill="#39B4EF"/>
<path d="M9.50158 11.4C10.5509 11.4 11.4016 10.5493 11.4016 9.49999C11.4016 8.45064 10.5509 7.59998 9.50158 7.59998C8.45223 7.59998 7.60156 8.45064 7.60156 9.49999C7.60156 10.5493 8.45223 11.4 9.50158 11.4Z" fill="#39B4EF"/>
<path d="M17.0992 11.4C18.1486 11.4 18.9992 10.5493 18.9992 9.49999C18.9992 8.45064 18.1486 7.59998 17.0992 7.59998C16.0499 7.59998 15.1992 8.45064 15.1992 9.49999C15.1992 10.5493 16.0499 11.4 17.0992 11.4Z" fill="#39B4EF"/>
</svg>
