<svg width="26" height="26" viewBox="0 0 26 26" fill="none" xmlns="http://www.w3.org/2000/svg">
<g clip-path="url(#clip0_630_47150)">
<path d="M3.00002 15.5C4.38074 15.5 5.50004 14.3807 5.50004 13C5.50004 11.6193 4.38074 10.5 3.00002 10.5C1.6193 10.5 0.5 11.6193 0.5 13C0.5 14.3807 1.6193 15.5 3.00002 15.5Z" fill="#B3C7EB"/>
<path d="M13 15.5C14.3807 15.5 15.5 14.3807 15.5 13C15.5 11.6193 14.3807 10.5 13 10.5C11.6193 10.5 10.5 11.6193 10.5 13C10.5 14.3807 11.6193 15.5 13 15.5Z" fill="#B3C7EB"/>
<path d="M23 15.5C24.3807 15.5 25.5 14.3807 25.5 13C25.5 11.6193 24.3807 10.5 23 10.5C21.6193 10.5 20.5 11.6193 20.5 13C20.5 14.3807 21.6193 15.5 23 15.5Z" fill="#B3C7EB"/>
</g>
<defs>
<clipPath id="clip0_630_47150">
<rect width="25" height="25" fill="white" transform="translate(0.5 0.5)"/>
</clipPath>
</defs>
</svg>
