<svg width="25" height="25" viewBox="0 0 25 25" fill="none" xmlns="http://www.w3.org/2000/svg">
<rect x="0.5" y="0.5" width="24" height="24" rx="12" fill="white"/>
<path d="M10.9062 12.5C10.9062 13.3787 11.6213 14.0938 12.5 14.0938C13.3787 14.0938 14.0938 13.3787 14.0938 12.5C14.0938 11.6213 13.3787 10.9062 12.5 10.9062C11.6213 10.9062 10.9062 11.6213 10.9062 12.5Z" fill="#39B4EF"/>
<path d="M10.9062 17.8125C10.9062 18.6912 11.6213 19.4062 12.5 19.4062C13.3787 19.4062 14.0938 18.6912 14.0938 17.8125C14.0938 16.9338 13.3787 16.2188 12.5 16.2188C11.6213 16.2188 10.9062 16.9338 10.9062 17.8125Z" fill="#39B4EF"/>
<path d="M10.9062 7.1875C10.9062 8.06619 11.6213 8.78125 12.5 8.78125C13.3787 8.78125 14.0938 8.06619 14.0938 7.1875C14.0938 6.30881 13.3787 5.59375 12.5 5.59375C11.6213 5.59375 10.9062 6.30881 10.9062 7.1875Z" fill="#39B4EF"/>
<rect x="0.5" y="0.5" width="24" height="24" rx="12" stroke="#39B4EF"/>
</svg>
