<svg width="25" height="25" viewBox="0 0 25 25" fill="none" xmlns="http://www.w3.org/2000/svg">
<rect x="0.5" y="0.5" width="24" height="24" rx="12" fill="white"/>
<g clip-path="url(#clip0_598_39439)">
<path d="M15.7135 11.9256C15.6477 11.7801 15.503 11.6875 15.3438 11.6875H13.7188V6.40625C13.7188 6.182 13.5368 6 13.3126 6H11.6876C11.4633 6 11.2813 6.182 11.2813 6.40625V11.6875H9.6563C9.49705 11.6875 9.35242 11.7809 9.28661 11.9256C9.21999 12.071 9.24599 12.2408 9.3508 12.3611L12.1946 15.6111C12.2717 15.6996 12.383 15.75 12.5 15.75C12.617 15.75 12.7284 15.6988 12.8056 15.6111L15.6493 12.3611C15.7549 12.2416 15.7793 12.071 15.7135 11.9256Z" fill="#39B4EF"/>
<path d="M16.9688 14.9375V17.375H8.03125V14.9375H6.40625V18.1875C6.40625 18.6368 6.77025 19 7.21875 19H17.7812C18.2306 19 18.5938 18.6368 18.5938 18.1875V14.9375H16.9688Z" fill="#39B4EF"/>
</g>
<rect x="0.5" y="0.5" width="24" height="24" rx="12" stroke="#39B4EF"/>
<defs>
<clipPath id="clip0_598_39439">
<rect width="13" height="13" fill="white" transform="translate(6 6)"/>
</clipPath>
</defs>
</svg>
