<svg width="16" height="16" viewBox="0 0 16 16" fill="none" xmlns="http://www.w3.org/2000/svg">
<path d="M2.77533 10.8993C2.64733 10.8993 2.51958 10.8505 2.42183 10.7528C2.22658 10.5575 2.22658 10.241 2.42183 10.0458L10.2353 2.23225C10.4303 2.037 10.7471 2.037 10.9423 2.23225C11.1376 2.4275 11.1376 2.744 10.9423 2.93925L3.12883 10.7528C3.03133 10.8503 2.90333 10.8993 2.77533 10.8993Z" fill="#39B4EF"/>
<path d="M2.00441 14.5C1.96966 14.5 1.93441 14.4963 1.89916 14.4888C1.62916 14.4308 1.45716 14.165 1.51516 13.895L2.28766 10.2943C2.34566 10.0243 2.61266 9.85277 2.88141 9.91027C3.15141 9.96827 3.32341 10.234 3.26541 10.504L2.49291 14.1048C2.44266 14.3395 2.23516 14.5 2.00441 14.5Z" fill="#39B4EF"/>
<path d="M5.60541 13.7275C5.47741 13.7275 5.34966 13.6787 5.25191 13.581C5.05666 13.3857 5.05666 13.0692 5.25191 12.874L13.0654 5.06074C13.2604 4.86549 13.5772 4.86549 13.7724 5.06074C13.9677 5.25599 13.9677 5.57249 13.7724 5.76774L5.95916 13.581C5.86141 13.6787 5.73341 13.7275 5.60541 13.7275Z" fill="#39B4EF"/>
<path d="M2.00358 14.5C1.77283 14.5 1.56558 14.3395 1.51508 14.1047C1.45733 13.8347 1.62908 13.569 1.89908 13.511L5.49983 12.7385C5.77008 12.6812 6.03583 12.8527 6.09358 13.1225C6.15133 13.3925 5.97958 13.6582 5.70958 13.7162L2.10883 14.4887C2.07358 14.4965 2.03833 14.5 2.00358 14.5Z" fill="#39B4EF"/>
<path d="M12.004 7.32825C11.876 7.32825 11.748 7.2795 11.6505 7.18175L8.82222 4.3535C8.62697 4.15825 8.62697 3.84175 8.82222 3.6465C9.01722 3.45125 9.33422 3.45125 9.52922 3.6465L12.3575 6.47475C12.5527 6.67 12.5527 6.9865 12.3575 7.18175C12.26 7.2795 12.132 7.32825 12.004 7.32825Z" fill="#39B4EF"/>
<path d="M13.4185 5.91425C13.2905 5.91425 13.1625 5.8655 13.0648 5.76775C12.8695 5.5725 12.8695 5.256 13.0648 5.0605C13.343 4.78225 13.4963 4.4055 13.4963 4C13.4963 3.5945 13.343 3.21775 13.0648 2.9395C12.7863 2.661 12.4095 2.50775 12.004 2.50775C11.5985 2.50775 11.2218 2.661 10.9435 2.9395C10.7485 3.13475 10.432 3.135 10.2363 2.9395C10.041 2.74425 10.041 2.42775 10.2363 2.23225C10.7033 1.765 11.331 1.50775 12.004 1.50775C12.6768 1.50775 13.3048 1.765 13.7718 2.23225C14.239 2.69925 14.4963 3.327 14.4963 4C14.4963 4.673 14.239 5.30075 13.7718 5.76775C13.6745 5.86525 13.5465 5.91425 13.4185 5.91425Z" fill="#39B4EF"/>
</svg>
