<svg width="16" height="16" viewBox="0 0 16 16" fill="none" xmlns="http://www.w3.org/2000/svg">
<path d="M2.7763 10.8993C2.6483 10.8993 2.52055 10.8505 2.4228 10.7528C2.22755 10.5575 2.22755 10.241 2.4228 10.0458L10.2363 2.23225C10.4313 2.037 10.7481 2.037 10.9433 2.23225C11.1386 2.4275 11.1386 2.744 10.9433 2.93925L3.1298 10.7528C3.0323 10.8503 2.9043 10.8993 2.7763 10.8993Z" fill="#707E95"/>
<path d="M2.00441 14.5C1.96966 14.5 1.93441 14.4962 1.89916 14.4887C1.62916 14.4307 1.45716 14.165 1.51516 13.895L2.28766 10.2942C2.34566 10.0242 2.61266 9.85275 2.88141 9.91025C3.15141 9.96825 3.32341 10.234 3.26541 10.504L2.49291 14.1047C2.44266 14.3395 2.23516 14.5 2.00441 14.5Z" fill="#707E95"/>
<path d="M5.60443 13.7275C5.47643 13.7275 5.34868 13.6787 5.25093 13.581C5.05568 13.3858 5.05568 13.0692 5.25093 12.874L13.0644 5.06075C13.2594 4.8655 13.5762 4.8655 13.7714 5.06075C13.9667 5.256 13.9667 5.5725 13.7714 5.76775L5.95818 13.581C5.86043 13.6787 5.73243 13.7275 5.60443 13.7275Z" fill="#707E95"/>
<path d="M2.00358 14.5C1.77283 14.5 1.56558 14.3395 1.51508 14.1048C1.45733 13.8348 1.62908 13.569 1.89908 13.511L5.49983 12.7385C5.77008 12.6813 6.03583 12.8528 6.09358 13.1225C6.15133 13.3925 5.97958 13.6583 5.70958 13.7163L2.10883 14.4888C2.07358 14.4965 2.03833 14.5 2.00358 14.5Z" fill="#707E95"/>
<path d="M12.004 7.32825C11.876 7.32825 11.748 7.2795 11.6505 7.18175L8.82222 4.3535C8.62697 4.15825 8.62697 3.84175 8.82222 3.6465C9.01722 3.45125 9.33422 3.45125 9.52922 3.6465L12.3575 6.47475C12.5527 6.67 12.5527 6.9865 12.3575 7.18175C12.26 7.2795 12.132 7.32825 12.004 7.32825Z" fill="#707E95"/>
<path d="M13.4176 5.91425C13.2896 5.91425 13.1616 5.8655 13.0638 5.76775C12.8686 5.5725 12.8686 5.256 13.0638 5.0605C13.3421 4.78225 13.4953 4.4055 13.4953 4C13.4953 3.5945 13.3421 3.21775 13.0638 2.9395C12.7853 2.661 12.4086 2.50775 12.0031 2.50775C11.5976 2.50775 11.2208 2.661 10.9426 2.9395C10.7476 3.13475 10.4311 3.135 10.2353 2.9395C10.0401 2.74425 10.0401 2.42775 10.2353 2.23225C10.7023 1.765 11.3301 1.50775 12.0031 1.50775C12.6758 1.50775 13.3038 1.765 13.7708 2.23225C14.2381 2.69925 14.4953 3.327 14.4953 4C14.4953 4.673 14.2381 5.30075 13.7708 5.76775C13.6736 5.86525 13.5456 5.91425 13.4176 5.91425Z" fill="#707E95"/>
</svg>
