<svg width="17" height="18" viewBox="0 0 17 18" fill="none" xmlns="http://www.w3.org/2000/svg">
<path d="M2.94915 12.0805C2.81315 12.0805 2.67742 12.0287 2.57356 11.9248C2.36611 11.7174 2.36611 11.3811 2.57356 11.1736L10.8754 2.87178C11.0826 2.66432 11.4191 2.66432 11.6266 2.87178C11.834 3.07923 11.834 3.41551 11.6266 3.62296L3.32475 11.9248C3.22115 12.0284 3.08515 12.0805 2.94915 12.0805Z" fill="#707E95"/>
<path d="M2.12944 15.9062C2.09252 15.9062 2.05506 15.9022 2.01761 15.8943C1.73073 15.8326 1.54798 15.5503 1.60961 15.2634L2.43039 11.4376C2.49202 11.1507 2.7757 10.9685 3.06125 11.0296C3.34812 11.0912 3.53087 11.3736 3.46925 11.6605L2.64847 15.4863C2.59508 15.7357 2.37461 15.9062 2.12944 15.9062Z" fill="#707E95"/>
<path d="M5.95501 15.0854C5.81901 15.0854 5.68328 15.0337 5.57942 14.9298C5.37196 14.7223 5.37196 14.3861 5.57942 14.1786L13.8813 5.87703C14.0885 5.66957 14.425 5.66957 14.6324 5.87703C14.8399 6.08448 14.8399 6.42076 14.6324 6.62821L6.33087 14.9298C6.22701 15.0337 6.09101 15.0854 5.95501 15.0854Z" fill="#707E95"/>
<path d="M2.12856 15.9062C1.88339 15.9062 1.66319 15.7357 1.60953 15.4863C1.54817 15.1994 1.73066 14.9171 2.01753 14.8554L5.84333 14.0347C6.13047 13.9738 6.41283 14.156 6.47419 14.4427C6.53555 14.7295 6.35306 15.0119 6.06619 15.0735L2.24039 15.8943C2.20294 15.9025 2.16548 15.9062 2.12856 15.9062Z" fill="#707E95"/>
<path d="M12.7549 8.28626C12.6189 8.28626 12.4829 8.23446 12.3794 8.1306L9.37434 5.12559C9.16689 4.91814 9.16689 4.58185 9.37434 4.3744C9.58153 4.16695 9.91834 4.16695 10.1255 4.3744L13.1305 7.37942C13.338 7.58687 13.338 7.92315 13.1305 8.1306C13.0269 8.23446 12.8909 8.28626 12.7549 8.28626Z" fill="#707E95"/>
<path d="M14.2574 6.7839C14.1214 6.7839 13.9854 6.7321 13.8816 6.62824C13.6741 6.42079 13.6741 6.08451 13.8816 5.87679C14.1772 5.58115 14.34 5.18085 14.34 4.75001C14.34 4.31916 14.1772 3.91886 13.8816 3.62322C13.5857 3.32732 13.1854 3.16449 12.7545 3.16449C12.3237 3.16449 11.9234 3.32732 11.6277 3.62322C11.4206 3.83068 11.0843 3.83094 10.8763 3.62322C10.6688 3.41577 10.6688 3.07949 10.8763 2.87177C11.3725 2.37532 12.0395 2.10199 12.7545 2.10199C13.4693 2.10199 14.1366 2.37532 14.6328 2.87177C15.1292 3.36796 15.4025 4.03494 15.4025 4.75001C15.4025 5.46507 15.1292 6.13205 14.6328 6.62824C14.5294 6.73183 14.3934 6.7839 14.2574 6.7839Z" fill="#707E95"/>
</svg>
