<svg width="18" height="20" viewBox="0 0 18 20" fill="none" xmlns="http://www.w3.org/2000/svg">
<path d="M8.73528 5.52102C10.051 5.52102 11.1176 4.45944 11.1176 3.14992C11.1176 1.84039 10.051 0.778809 8.73528 0.778809C7.41954 0.778809 6.35292 1.84039 6.35292 3.14992C6.35292 4.45944 7.41954 5.52102 8.73528 5.52102Z" fill="#39B4EF"/>
<path d="M8.73528 12.3709C10.051 12.3709 11.1176 11.3093 11.1176 9.9998C11.1176 8.69027 10.051 7.62869 8.73528 7.62869C7.41954 7.62869 6.35292 8.69027 6.35292 9.9998C6.35292 11.3093 7.41954 12.3709 8.73528 12.3709Z" fill="#39B4EF"/>
<path d="M8.73528 19.2208C10.051 19.2208 11.1176 18.1592 11.1176 16.8497C11.1176 15.5401 10.051 14.4786 8.73528 14.4786C7.41954 14.4786 6.35292 15.5401 6.35292 16.8497C6.35292 18.1592 7.41954 19.2208 8.73528 19.2208Z" fill="#39B4EF"/>
<path d="M2.38236 12.3709C3.6981 12.3709 4.76472 11.3093 4.76472 9.9998C4.76472 8.69027 3.6981 7.62869 2.38236 7.62869C1.06662 7.62869 0 8.69027 0 9.9998C0 11.3093 1.06662 12.3709 2.38236 12.3709Z" fill="#39B4EF"/>
<path d="M15.6176 12.3709C16.9334 12.3709 18 11.3093 18 9.9998C18 8.69027 16.9334 7.62869 15.6176 7.62869C14.3019 7.62869 13.2353 8.69027 13.2353 9.9998C13.2353 11.3093 14.3019 12.3709 15.6176 12.3709Z" fill="#39B4EF"/>
</svg>
