<svg width="20" height="20" viewBox="0 0 20 20" fill="none" xmlns="http://www.w3.org/2000/svg">
<path d="M8.125 13.125H16.3438L14.7187 14.75L15.625 15.625L18.75 12.5L15.625 9.375L14.75 10.25L16.375 11.875H8.125V13.125Z" fill="#39B4EF"/>
<path d="M13.75 8.75V6.25V6V5.78125L9.1875 1.25H8.96875C8.96875 1.25 8.8125 1.25 8.71875 1.25H2.5C2.15625 1.25 1.25 1.25 1.25 1.25C1.25 1.25 1.25 2.15625 1.25 2.5V17.5V18.75C1.25 18.75 2.15625 18.75 2.5 18.75H12.5H13.75C13.75 18.75 13.75 17.8438 13.75 17.5V16.25H12.5V17.5H2.5V2.5H7.5V6.25V7.5C7.5 7.5 8.40625 7.5 8.75 7.5H12.5V8.75H13.75ZM8.75 6.25V2.75L12.25 6.25H8.75Z" fill="#39B4EF"/>
</svg>
