<svg width="21" height="22" viewBox="0 0 21 22" fill="none" xmlns="http://www.w3.org/2000/svg">
<g clip-path="url(#clip0_630_48743)">
<path d="M3.69141 15.3066H0.615234C0.275414 15.3066 0 15.5821 0 15.9219V20.8848C0 21.2246 0.275414 21.5 0.615234 21.5H3.69141C4.03123 21.5 4.30664 21.2246 4.30664 20.8848V15.9219C4.30664 15.5821 4.03123 15.3066 3.69141 15.3066ZM3.07617 20.2695H1.23047V16.5371H3.07617V20.2695Z" fill="#002E47"/>
<path d="M9.26953 11.6152H6.19336C5.85354 11.6152 5.57812 11.8906 5.57812 12.2305V20.8848C5.57812 21.2246 5.85354 21.5 6.19336 21.5H9.26953C9.60935 21.5 9.88477 21.2246 9.88477 20.8848V12.2305C9.88477 11.8906 9.60935 11.6152 9.26953 11.6152ZM8.6543 20.2695H6.80859V12.8457H8.6543V20.2695Z" fill="#002E47"/>
<path d="M14.8066 10.3848H11.7305C11.3906 10.3848 11.1152 10.6602 11.1152 11V20.8848C11.1152 21.2246 11.3906 21.5 11.7305 21.5H14.8066C15.1465 21.5 15.4219 21.2246 15.4219 20.8848V11C15.4219 10.6602 15.1465 10.3848 14.8066 10.3848ZM14.1914 20.2695H12.3457V11.6152H14.1914V20.2695Z" fill="#002E47"/>
<path d="M20.3848 5.46289H17.3086C16.9688 5.46289 16.6934 5.7383 16.6934 6.07813V20.8848C16.6934 21.2246 16.9688 21.5 17.3086 21.5H20.3848C20.7246 21.5 21 21.2246 21 20.8848V6.07813C21 5.7383 20.7246 5.46289 20.3848 5.46289ZM19.7695 20.2695H17.9238V6.69336H19.7695V20.2695Z" fill="#002E47"/>
<path d="M2.15234 14.0762C3.17004 14.0762 3.99805 13.2482 3.99805 12.2305C3.99805 12.0581 3.97369 11.8913 3.92931 11.7328L6.35436 10.0427C6.65621 10.2577 7.02487 10.3848 7.42285 10.3848C8.35788 10.3848 9.13237 9.68558 9.25205 8.78275L11.6922 8.26894C12.0166 8.79958 12.6014 9.1543 13.2676 9.1543C14.2853 9.1543 15.1133 8.32629 15.1133 7.30859C15.1133 7.06234 15.0644 6.8273 14.9765 6.61229L17.9546 3.96133C18.2189 4.10777 18.5227 4.19141 18.8457 4.19141C19.8634 4.19141 20.6914 3.3634 20.6914 2.3457C20.6914 1.328 19.8634 0.5 18.8457 0.5C17.828 0.5 17 1.328 17 2.3457C17 2.59196 17.0489 2.827 17.1368 3.04201L14.1587 5.69296C13.8943 5.54652 13.5906 5.46289 13.2676 5.46289C12.3324 5.46289 11.5581 6.16208 11.4384 7.0649L8.99827 7.57872C8.67383 7.04808 8.08904 6.69336 7.42285 6.69336C6.40515 6.69336 5.57715 7.52136 5.57715 8.53906C5.57715 8.71146 5.6015 8.87824 5.64588 9.0367L3.22083 10.7268C2.91898 10.5118 2.55032 10.3848 2.15234 10.3848C1.13464 10.3848 0.306641 11.2128 0.306641 12.2305C0.306641 13.2482 1.13464 14.0762 2.15234 14.0762ZM18.8457 1.73047C19.1849 1.73047 19.4609 2.00652 19.4609 2.3457C19.4609 2.68488 19.1849 2.96094 18.8457 2.96094C18.5065 2.96094 18.2305 2.68488 18.2305 2.3457C18.2305 2.00652 18.5065 1.73047 18.8457 1.73047ZM13.2676 6.69336C13.6068 6.69336 13.8828 6.96941 13.8828 7.30859C13.8828 7.64777 13.6068 7.92383 13.2676 7.92383C12.9284 7.92383 12.6523 7.64777 12.6523 7.30859C12.6523 6.96941 12.9284 6.69336 13.2676 6.69336ZM7.42285 7.92383C7.76203 7.92383 8.03809 8.19988 8.03809 8.53906C8.03809 8.87824 7.76203 9.1543 7.42285 9.1543C7.08367 9.1543 6.80762 8.87824 6.80762 8.53906C6.80762 8.19988 7.08367 7.92383 7.42285 7.92383ZM2.15234 11.6152C2.49152 11.6152 2.76758 11.8913 2.76758 12.2305C2.76758 12.5696 2.49152 12.8457 2.15234 12.8457C1.81316 12.8457 1.53711 12.5696 1.53711 12.2305C1.53711 11.8913 1.81316 11.6152 2.15234 11.6152Z" fill="#002E47"/>
</g>
<defs>
<clipPath id="clip0_630_48743">
<rect width="21" height="21" fill="white" transform="translate(0 0.5)"/>
</clipPath>
</defs>
</svg>
