<svg width="19" height="18" viewBox="0 0 19 18" fill="none" xmlns="http://www.w3.org/2000/svg">
<path d="M16.25 12.6562H14.2812V10.6875C14.2812 10.5383 14.222 10.3952 14.1165 10.2898C14.011 10.1843 13.8679 10.125 13.7188 10.125C13.5696 10.125 13.4265 10.1843 13.321 10.2898C13.2155 10.3952 13.1562 10.5383 13.1562 10.6875V12.6562H11.1875C11.0383 12.6562 10.8952 12.7155 10.7898 12.821C10.6843 12.9265 10.625 13.0696 10.625 13.2188C10.625 13.3679 10.6843 13.511 10.7898 13.6165C10.8952 13.722 11.0383 13.7812 11.1875 13.7812H13.1562V15.75C13.1562 15.8992 13.2155 16.0423 13.321 16.1477C13.4265 16.2532 13.5696 16.3125 13.7188 16.3125C13.8679 16.3125 14.011 16.2532 14.1165 16.1477C14.222 16.0423 14.2812 15.8992 14.2812 15.75V13.7812H16.25C16.3992 13.7812 16.5423 13.722 16.6477 13.6165C16.7532 13.511 16.8125 13.3679 16.8125 13.2188C16.8125 13.0696 16.7532 12.9265 16.6477 12.821C16.5423 12.7155 16.3992 12.6562 16.25 12.6562Z" fill="white"/>
<path d="M9.5 16.3125H3.875C3.72582 16.3125 3.58274 16.2533 3.47725 16.1478C3.37176 16.0423 3.3125 15.8992 3.3125 15.75C3.31444 14.1096 3.96695 12.5369 5.12691 11.3769C6.28688 10.217 7.85957 9.56446 9.5 9.56253C10.5872 9.56589 11.6391 9.17674 12.4624 8.46661C13.2856 7.75649 13.8249 6.77309 13.9812 5.69715C14.1374 4.62122 13.9001 3.52505 13.3128 2.6101C12.7255 1.69515 11.8277 1.0229 10.7844 0.716906C9.74117 0.410907 8.62252 0.49172 7.63407 0.944491C6.64562 1.39726 5.85378 2.19157 5.4041 3.18143C4.95442 4.17129 4.8771 5.29019 5.18635 6.3325C5.49561 7.3748 6.17066 8.27048 7.08744 8.8549C5.65749 9.35571 4.4182 10.2879 3.54054 11.5229C2.66289 12.758 2.19013 14.2349 2.1875 15.75C2.1875 16.1976 2.36529 16.6268 2.68176 16.9433C2.99823 17.2597 3.42745 17.4375 3.875 17.4375H9.5C9.64919 17.4375 9.79226 17.3783 9.89775 17.2728C10.0032 17.1673 10.0625 17.0242 10.0625 16.875C10.0625 16.7258 10.0032 16.5828 9.89775 16.4773C9.79226 16.3718 9.64919 16.3125 9.5 16.3125ZM6.125 5.06253C6.125 4.39502 6.32294 3.7425 6.69379 3.18748C7.06464 2.63246 7.59174 2.19988 8.20844 1.94444C8.82514 1.68899 9.50374 1.62215 10.1584 1.75238C10.8131 1.8826 11.4145 2.20404 11.8865 2.67604C12.3585 3.14805 12.6799 3.74941 12.8102 4.4041C12.9404 5.05879 12.8735 5.73739 12.6181 6.35409C12.3626 6.97079 11.9301 7.49789 11.3751 7.86874C10.82 8.23959 10.1675 8.43753 9.5 8.43753C8.60517 8.43664 7.74724 8.08077 7.1145 7.44803C6.48176 6.81529 6.12589 5.95736 6.125 5.06253Z" fill="white"/>
</svg>
