<svg width="17" height="17" viewBox="0 0 17 17" fill="none" xmlns="http://www.w3.org/2000/svg">
<path d="M16.1516 14.6731H4.78381C4.31529 14.6731 3.93555 14.2933 3.93555 13.8248C3.93555 13.3563 4.31529 12.9766 4.78381 12.9766H16.1514C16.6199 12.9766 16.9996 13.3563 16.9996 13.8248C16.9996 14.2933 16.6202 14.6731 16.1516 14.6731Z" fill="#707E95"/>
<path d="M16.1516 9.34838H4.78381C4.31529 9.34838 3.93555 8.96864 3.93555 8.50012C3.93555 8.03159 4.31529 7.65186 4.78381 7.65186H16.1514C16.6199 7.65186 16.9996 8.03159 16.9996 8.50012C16.9999 8.96864 16.6202 9.34838 16.1516 9.34838Z" fill="#707E95"/>
<path d="M16.1516 4.02416H4.78381C4.31529 4.02416 3.93555 3.64442 3.93555 3.1759C3.93555 2.70737 4.31529 2.32764 4.78381 2.32764H16.1514C16.6199 2.32764 16.9996 2.70737 16.9996 3.1759C16.9996 3.64442 16.6202 4.02416 16.1516 4.02416Z" fill="#707E95"/>
<path d="M1.13921 4.38048C1.76839 4.38048 2.27843 3.87044 2.27843 3.24127C2.27843 2.61209 1.76839 2.10205 1.13921 2.10205C0.510044 2.10205 0 2.61209 0 3.24127C0 3.87044 0.510044 4.38048 1.13921 4.38048Z" fill="#707E95"/>
<path d="M1.13921 9.63927C1.76839 9.63927 2.27843 9.12923 2.27843 8.50005C2.27843 7.87088 1.76839 7.36084 1.13921 7.36084C0.510044 7.36084 0 7.87088 0 8.50005C0 9.12923 0.510044 9.63927 1.13921 9.63927Z" fill="#707E95"/>
<path d="M1.13921 14.8985C1.76839 14.8985 2.27843 14.3885 2.27843 13.7593C2.27843 13.1302 1.76839 12.6201 1.13921 12.6201C0.510044 12.6201 0 13.1302 0 13.7593C0 14.3885 0.510044 14.8985 1.13921 14.8985Z" fill="#707E95"/>
</svg>
