<svg width="20" height="21" viewBox="0 0 20 21" fill="none" xmlns="http://www.w3.org/2000/svg">
<g clip-path="url(#clip0_764_579)">
<path d="M10 0.5C4.47301 0.5 0 4.9725 0 10.5C0 16.0269 4.4725 20.5 10 20.5C15.527 20.5 20 16.0275 20 10.5C20 4.97301 15.5275 0.5 10 0.5ZM10 19.1046C5.25539 19.1046 1.39535 15.2446 1.39535 10.5C1.39535 5.75535 5.25539 1.89535 10 1.89535C14.7446 1.89535 18.6046 5.75535 18.6046 10.5C18.6046 15.2446 14.7446 19.1046 10 19.1046Z" fill="#002E47"/>
<path d="M9.70352 13.1533C9.15066 13.1533 8.70312 13.614 8.70312 14.1668C8.70312 14.7066 9.1375 15.1804 9.70352 15.1804C10.2695 15.1804 10.717 14.7066 10.717 14.1668C10.717 13.614 10.2563 13.1533 9.70352 13.1533Z" fill="#002E47"/>
<path d="M9.87437 5.47949C8.09734 5.47949 7.28125 6.53258 7.28125 7.24336C7.28125 7.75672 7.71563 7.99367 8.07102 7.99367C8.78184 7.99367 8.49227 6.98008 9.83488 6.98008C10.493 6.98008 11.0196 7.26969 11.0196 7.8752C11.0196 8.58598 10.2824 8.99402 9.84805 9.36258C9.46629 9.6916 8.96613 10.2313 8.96613 11.3634C8.96613 12.0478 9.15043 12.2453 9.69008 12.2453C10.335 12.2453 10.4667 11.9557 10.4667 11.7055C10.4667 11.0211 10.4798 10.6262 11.2038 10.0602C11.5592 9.78379 12.678 8.88867 12.678 7.65137C12.678 6.41406 11.5592 5.47949 9.87437 5.47949Z" fill="#002E47"/>
</g>
<defs>
<clipPath id="clip0_764_579">
<rect width="20" height="20" fill="white" transform="translate(0 0.5)"/>
</clipPath>
</defs>
</svg>
