<svg width="22" height="22" viewBox="0 0 22 22" fill="none" xmlns="http://www.w3.org/2000/svg">
<path d="M21.9224 9.53236L18.9808 3.62446C18.8552 3.37258 18.5982 3.21338 18.3168 3.21338H3.68315C3.40184 3.21338 3.14475 3.37258 3.0192 3.62446L0.0776016 9.53236C0.0264687 9.63493 0 9.74815 0 9.86284V18.0449C0 18.4544 0.331977 18.7864 0.741555 18.7864H21.2584C21.668 18.7864 22 18.4544 22 18.0449V9.86284C22 9.74815 21.9735 9.63493 21.9224 9.53236ZM4.14219 4.69653H17.8576L20.0732 9.14599H15.2764C14.9259 9.14599 14.6226 9.39443 14.5502 9.73728C14.5237 9.86262 13.8682 12.8044 10.8764 12.8044C7.88468 12.8044 7.2291 9.86262 7.20315 9.74025C7.1332 9.39443 6.82915 9.14599 6.47642 9.14599H1.92685L4.14219 4.69653ZM20.5168 17.3033H1.48315V10.6291H5.91357C6.43466 12.1476 7.91781 14.2876 10.8764 14.2876C13.8353 14.2876 15.3184 12.1477 15.8393 10.6291H20.5168V17.3033Z" fill="#002E47"/>
</svg>
