<svg width="15" height="16" viewBox="0 0 15 16" fill="none" xmlns="http://www.w3.org/2000/svg">
<g clip-path="url(#clip0_669_49396)">
<path d="M7.5 0.5C3.35495 0.5 0 3.85438 0 8C0 12.1451 3.35438 15.5 7.5 15.5C11.6451 15.5 15 12.1456 15 8C15 3.85495 11.6456 0.5 7.5 0.5ZM7.5 14.3281C4.00257 14.3281 1.17188 11.4978 1.17188 8C1.17188 4.50257 4.00223 1.67188 7.5 1.67188C10.9974 1.67188 13.8281 4.50223 13.8281 8C13.8281 11.4974 10.9978 14.3281 7.5 14.3281ZM9.23824 11.457C9.23824 11.7807 8.97594 12.043 8.65231 12.043H6.34769C6.02406 12.043 5.76176 11.7807 5.76176 11.457C5.76176 11.1334 6.02406 10.8711 6.34769 10.8711H6.91406V7.43363H6.34769C6.02406 7.43363 5.76176 7.17133 5.76176 6.84769C5.76176 6.52406 6.02406 6.26176 6.34769 6.26176H7.5C7.82364 6.26176 8.08594 6.52406 8.08594 6.84769V10.8711H8.65231C8.97594 10.8711 9.23824 11.1334 9.23824 11.457ZM6.76758 4.12309C6.76758 3.71854 7.09545 3.39066 7.5 3.39066C7.90455 3.39066 8.23242 3.71854 8.23242 4.12309C8.23242 4.52752 7.90455 4.85551 7.5 4.85551C7.09545 4.85551 6.76758 4.52752 6.76758 4.12309Z" fill="#39B4EF"/>
</g>
<defs>
<clipPath id="clip0_669_49396">
<rect width="15" height="15" fill="white" transform="translate(0 0.5)"/>
</clipPath>
</defs>
</svg>
