<svg width="16" height="16" viewBox="0 0 16 16" fill="none" xmlns="http://www.w3.org/2000/svg">
<g clip-path="url(#clip0_529_41512)">
<path d="M8 0C12.4112 0 16 3.58885 16 8.00005C16 12.4112 12.4112 16 8 16C3.5888 16 9.53674e-07 12.4112 9.53674e-07 8.00005C9.53674e-07 3.58885 3.5888 0 8 0ZM8 14.5455C11.6092 14.5455 14.5455 11.6092 14.5455 8.00005C14.5455 4.39088 11.6092 1.45455 8 1.45455C4.39079 1.45455 1.45455 4.39088 1.45455 8.00005C1.45455 11.6092 4.39084 14.5455 8 14.5455Z" fill="#707E95"/>
<path d="M8.0001 3.39404C8.5347 3.39404 8.9696 3.82924 8.9696 4.36418C8.9696 4.89862 8.5347 5.33344 8.0001 5.33344C7.46551 5.33344 7.0306 4.89862 7.0306 4.36418C7.0306 3.82924 7.46551 3.39404 8.0001 3.39404Z" fill="#707E95"/>
<path d="M7.99999 6.78809C8.40164 6.78809 8.72726 7.11371 8.72726 7.51536V11.879C8.72726 12.2806 8.40164 12.6063 7.99999 12.6063C7.59834 12.6063 7.27272 12.2806 7.27272 11.879V7.51536C7.27272 7.11371 7.59834 6.78809 7.99999 6.78809Z" fill="#707E95"/>
</g>
<defs>
<clipPath id="clip0_529_41512">
<rect width="16" height="16" fill="white" transform="matrix(-1 0 0 1 16 0)"/>
</clipPath>
</defs>
</svg>
