<svg id="Outline" height="512" viewBox="0 0 32 32" width="512" xmlns="http://www.w3.org/2000/svg"><g><path d="m25 18s-4.26318 0-4.26953 0c-.74921 0-1.24048.8595-.86328 1.50586.08594.14551.13281.32129.13281.49414 0 .55176-.44824 1-1 1s-1-.44824-1-1c0-.17285.04688-.34863.13281-.49414.38391-.65009-.11712-1.50586-.86328-1.50586h-3.26953v-2c1.6543 0 3-1.3457 3-3s-1.3457-3-3-3v-3c0-.55273-.44775-1-1-1h-10c-1.6543 0-3 1.3457-3 3v20c0 1.6543 1.3457 3 3 3h20c1.6543 0 3-1.3457 3-3v-10c0-.55273-.44727-1-1-1zm-23-9c0-.55176.44873-1 1-1h9v3.26953c0 .75323.85516 1.24188 1.50537.86328.146-.08593.32129-.13281.49463-.13281.55127 0 1 .44824 1 1s-.44873 1-1 1c-.17334 0-.34863-.04688-.49463-.13281-.65271-.38422-1.50537.11236-1.50537.86328v3.26953h-2c0-1.6543-1.3457-3-3-3s-3 1.3457-3 3h-2zm10 21h-9c-.55127 0-1-.44824-1-1v-9h3.27002c.74738 0 1.23993-.86139.86279-1.50586-.08545-.14551-.13281-.32129-.13281-.49414 0-.55176.44873-1 1-1s1 .44824 1 1c0 .17285-.04736.34857-.13281.49408-.37921.64575.11834 1.50592.86279 1.50592h3.27002v2c-1.6543 0-3 1.3457-3 3s1.3457 3 3 3zm12-1c0 .55176-.44824 1-1 1h-9s0-3.26678 0-3.26953c0-.75781-.85052-1.24463-1.50537-.86328-.146.08594-.32129.13281-.49463.13281-.55127 0-1-.44824-1-1s.44873-1 1-1c.17334 0 .34863.04688.49463.13281.65344.38459 1.50537-.10779 1.50537-.86328v-3.26953h2c0 1.6543 1.3457 3 3 3s3-1.3457 3-3h2z"/><path d="m29 0h-10c-.55273 0-1 .44727-1 1v4.26953c.00006.64081.68994 1.12445 1.29419.94604.24499-.07238.43823-.21557.70581-.21557.55176 0 1 .44824 1 1s-.44824 1-1 1c-.17285 0-.34863-.04688-.49414-.13281-.63959-.37189-1.50781.1297-1.50781.86719v4.26953c0 .55273.44727 1 1.01935.99609h2.9826c0 1.6543 1.3457 3 3 3s3-1.3457 3-3h3c.55273 0 1-.44727 1-1v-10c0-1.6543-1.3457-3-3-3zm1 12s-3.2677 0-3.26953 0c-.54736 0-1.04333.53943-.98322 1.09143.03455.31683.25275.58655.25275.90857 0 .55176-.44824 1-1 1s-1-.44824-1-1c0-.27228.14563-.50391.21875-.75806.17041-.59253-.33075-1.24194-.94922-1.24194h-3.27148s0-2.00024.00195-2c1.6543 0 3-1.3457 3-3s-1.3457-3-3-3v-2h9c.55176 0 1 .44824 1 1z"/></g></svg>