<svg width="17" height="16" viewBox="0 0 17 16" fill="none" xmlns="http://www.w3.org/2000/svg">
<path d="M15.5 14.5C15.314 14.5 15.1386 14.396 15.0527 14.2236C14.127 12.3721 13.2505 10.6196 8.5 10.5059V14C8.5 14.1988 8.38237 14.3784 8.20062 14.458C8.01888 14.5376 7.80662 14.5024 7.66062 14.3671L1.16062 8.36713C1.05812 8.273 1 8.13963 1 8C1 7.86038 1.05812 7.727 1.16062 7.63275L7.66062 1.63275C7.80662 1.4975 8.0195 1.46288 8.20062 1.54188C8.38237 1.62163 8.5 1.80125 8.5 2V5.50588C15.4253 5.67775 16 9.4565 16 14C16 14.2319 15.8404 14.4331 15.6147 14.4869C15.5766 14.4956 15.5381 14.5 15.5 14.5ZM2.23725 8L7.5 12.8579V10C7.5 9.72363 7.72363 9.5 8 9.5C12.146 9.5 13.9111 10.6573 14.9467 12.0484C14.7129 8.63625 13.5235 6.5 8 6.5C7.72363 6.5 7.5 6.27638 7.5 6V3.14213L2.23725 8Z" fill="#39B4EF"/>
</svg>
