<svg width="19" height="20" viewBox="0 0 19 20" fill="none" xmlns="http://www.w3.org/2000/svg">
<path d="M15.9476 1.78027H3.03288C1.68259 1.78027 0.583984 2.87866 0.583984 4.22917V12.1327C0.583984 13.4802 1.6778 14.5768 3.02418 14.5816V18.1681L8.17843 14.5816H15.9476C17.2979 14.5816 18.3965 13.483 18.3965 12.1327V4.22917C18.3965 2.87866 17.2979 1.78027 15.9476 1.78027ZM17.3528 12.1327C17.3528 12.9074 16.7224 13.5379 15.9476 13.5379H7.85097L4.06788 16.1704V13.5379H3.03288C2.25804 13.5379 1.62769 12.9074 1.62769 12.1327V4.22917C1.62769 3.45422 2.25804 2.82397 3.03288 2.82397H15.9476C16.7224 2.82397 17.3528 3.45422 17.3528 4.22917V12.1327Z" fill="#002E47"/>
<path d="M5.35156 5.46826H13.6292V6.51196H5.35156V5.46826Z" fill="#002E47"/>
<path d="M5.35156 7.69482H13.6292V8.73853H5.35156V7.69482Z" fill="#002E47"/>
<path d="M5.35156 9.92139H13.6292V10.9651H5.35156V9.92139Z" fill="#002E47"/>
</svg>
