<svg width="30" height="27" viewBox="0 0 30 27" fill="none" xmlns="http://www.w3.org/2000/svg">
<g clip-path="url(#clip0_652_49064)">
<path d="M8.55672 7.99325L3.42578 2.8623" stroke="#002E47" stroke-width="1.2" stroke-miterlimit="10" stroke-linecap="round" stroke-linejoin="round"/>
<path d="M6.34416 2.86229L3.4375 2.85107L3.44871 5.75768" stroke="#002E47" stroke-width="1.2" stroke-miterlimit="10" stroke-linecap="round" stroke-linejoin="round"/>
<path d="M21.4395 7.99325L26.5704 2.8623" stroke="#002E47" stroke-width="1.2" stroke-miterlimit="10" stroke-linecap="round" stroke-linejoin="round"/>
<path d="M23.6523 2.86229L26.559 2.85107L26.5477 5.75768" stroke="#002E47" stroke-width="1.2" stroke-miterlimit="10" stroke-linecap="round" stroke-linejoin="round"/>
<path d="M21.4395 20.8691L26.5704 26.0001" stroke="#002E47" stroke-width="1.2" stroke-miterlimit="10" stroke-linecap="round" stroke-linejoin="round"/>
<path d="M23.6523 25.9999L26.559 26.0111L26.5477 23.1045" stroke="#002E47" stroke-width="1.2" stroke-miterlimit="10" stroke-linecap="round" stroke-linejoin="round"/>
<path d="M8.55678 20.8691L3.42578 26.0001" stroke="#002E47" stroke-width="1.2" stroke-miterlimit="10" stroke-linecap="round" stroke-linejoin="round"/>
<path d="M6.34416 25.9999L3.4375 26.0111L3.44871 23.1045" stroke="#002E47" stroke-width="1.2" stroke-miterlimit="10" stroke-linecap="round" stroke-linejoin="round"/>
<path d="M24.1055 14.4346H28.6538" stroke="#002E47" stroke-width="1.2" stroke-miterlimit="10" stroke-linecap="round" stroke-linejoin="round"/>
<path d="M26.5898 12.3711L28.6531 14.4185L26.5898 16.4658" stroke="#002E47" stroke-width="1.2" stroke-miterlimit="10" stroke-linecap="round" stroke-linejoin="round"/>
<path d="M5.89212 14.4263H1.34375" stroke="#002E47" stroke-width="1.2" stroke-miterlimit="10" stroke-linecap="round" stroke-linejoin="round"/>
<path d="M3.407 16.4898L1.34375 14.4424L3.407 12.395" stroke="#002E47" stroke-width="1.2" stroke-miterlimit="10" stroke-linecap="round" stroke-linejoin="round"/>
<path d="M12.6027 5.64258C8.73602 6.69482 5.89258 10.2302 5.89258 14.4302C5.89258 19.4599 9.96994 23.5373 14.9996 23.5373C20.0293 23.5373 24.1067 19.4599 24.1067 14.4302C24.1067 10.2498 21.2899 6.72774 17.4509 5.65734" stroke="#002E47" stroke-width="1.2" stroke-miterlimit="10" stroke-linecap="round" stroke-linejoin="round"/>
<path d="M14.9998 20.9479C18.5993 20.9479 21.5173 18.03 21.5173 14.4305C21.5173 10.831 18.5993 7.91309 14.9998 7.91309C11.4004 7.91309 8.48242 10.831 8.48242 14.4305C8.48242 18.03 11.4004 20.9479 14.9998 20.9479Z" stroke="#002E47" stroke-width="1.2" stroke-miterlimit="10" stroke-linecap="round" stroke-linejoin="round"/>
<path d="M16.0626 12.1038C16.0626 12.1038 15.4574 11.5456 14.5245 11.8267C13.668 12.0847 13.4553 13.2566 14.0373 13.7132C14.3716 13.9753 14.8744 14.1909 15.5522 14.4305C17.0691 14.9667 16.5084 17.1059 14.9653 17.1162C14.3632 17.1202 14.0817 17.082 13.5527 16.7359" stroke="#002E47" stroke-width="1.2" stroke-miterlimit="10" stroke-linecap="round" stroke-linejoin="round"/>
<path d="M14.9648 17.1162V18.0287" stroke="#002E47" stroke-width="1.2" stroke-miterlimit="10" stroke-linecap="round" stroke-linejoin="round"/>
<path d="M14.9648 10.8936V11.7475" stroke="#002E47" stroke-width="1.2" stroke-miterlimit="10" stroke-linecap="round" stroke-linejoin="round"/>
</g>
<defs>
<clipPath id="clip0_652_49064">
<rect width="30" height="26.5584" fill="white" transform="translate(0 0.220703)"/>
</clipPath>
</defs>
</svg>
