<svg id="Layer_1" enable-background="new 0 0 34 34" height="512" viewBox="0 0 34 34" width="512" xmlns="http://www.w3.org/2000/svg"><g><path d="m14.5 28.1c2.3 0 4.4-.5 6.4-1.6l5.4 5.4c1.5 1.5 4 1.5 5.6 0s1.6-4.1 0-5.6l-5.4-5.4c1-1.9 1.6-4.1 1.6-6.4 0-7.4-6.1-13.5-13.6-13.5-7.4 0-13.5 6.1-13.5 13.5 0 7.5 6.1 13.6 13.5 13.6zm15.9-.4c.8.8.8 2 0 2.8s-2 .8-2.8 0l-5.1-5.1c1.2-.9 1.9-1.6 2.8-2.8zm-15.9-24.7c6.4 0 11.5 5.2 11.5 11.5 0 6.4-5.2 11.5-11.5 11.5-6.3.1-11.5-5.1-11.5-11.5 0-6.3 5.2-11.5 11.5-11.5z"/><path d="m8.5 21h12c.6 0 1-.4 1-1v-1.5c0-2-1.6-4-2.9-5.1.3-.6.4-1.2.4-1.9 0-2.5-2-4.5-4.5-4.5s-4.5 2-4.5 4.5c0 .7.2 1.3.4 1.9-1.5 1.1-2.9 2.9-2.9 5.1v1.5c0 .6.5 1 1 1zm6-12c1.4 0 2.5 1.1 2.5 2.5s-1.1 2.5-2.5 2.5-2.5-1.1-2.5-2.5 1.2-2.5 2.5-2.5zm-5 9.5c0-1.4 1-2.7 2.2-3.5.8.6 1.7 1 2.8 1s2-.4 2.8-1c.9.7 2.2 2.3 2.2 3.5v.5h-10z"/></g></svg>