<svg width="30" height="30" viewBox="0 0 30 30" fill="none" xmlns="http://www.w3.org/2000/svg">
<g clip-path="url(#clip0_651_46147)">
<path d="M17.2429 6.834C16.5161 6.63478 15.7614 6.53376 15 6.53376C10.3317 6.53376 6.53373 10.3317 6.53373 15C6.53373 19.6684 10.3317 23.4663 15 23.4663C19.6683 23.4663 23.4663 19.6684 23.4663 15C23.4663 14.2386 23.3653 13.484 23.166 12.7571C23.0292 12.2578 23.323 11.742 23.8223 11.6052C24.3214 11.4684 24.8374 11.7621 24.9743 12.2615C25.2178 13.1498 25.3413 14.0712 25.3413 15C25.3413 20.7022 20.7022 25.3413 15 25.3413C9.29783 25.3413 4.65873 20.7022 4.65873 15C4.65873 9.29786 9.29783 4.65876 15 4.65876C15.9289 4.65876 16.8502 4.78222 17.7386 5.02574C18.155 5.13988 18.4285 5.51757 18.4284 5.92949C18.4284 6.01146 18.4175 6.09478 18.3949 6.17769C18.258 6.67702 17.7424 6.97105 17.2429 6.834ZM28.2198 10.1039C27.7233 10.251 27.44 10.7725 27.587 11.269C27.944 12.4749 28.125 13.7301 28.125 15C28.125 22.2372 22.2371 28.125 15 28.125C7.76285 28.125 1.875 22.2372 1.875 15C1.875 7.76288 7.76285 1.87503 15 1.87503C16.27 1.87503 17.5252 2.05603 18.7308 2.41298C19.2274 2.56005 19.7489 2.27658 19.8959 1.78017C19.9222 1.6914 19.9347 1.60193 19.9347 1.51386C19.9348 1.10927 19.6709 0.735853 19.2631 0.615091C17.8845 0.206927 16.4503 3.28397e-05 15 3.28397e-05C10.9934 3.28397e-05 7.22648 1.56033 4.39336 4.39339C1.56029 7.22658 0 10.9934 0 15C0 19.0067 1.56029 22.7735 4.39336 25.6067C7.22643 28.4398 10.9934 30 15 30C19.0066 30 22.7735 28.4397 25.6066 25.6067C28.4397 22.7735 30 19.0067 30 15C30 13.5499 29.793 12.1155 29.3849 10.7368C29.2379 10.2403 28.7162 9.95716 28.2198 10.1039ZM15 11.25C15.1379 11.25 15.2771 11.2577 15.4138 11.2727C15.9288 11.3293 16.3916 10.9577 16.448 10.443C16.5045 9.92833 16.133 9.46533 15.6183 9.4089C15.4138 9.3864 15.2059 9.37503 15 9.37503C11.8983 9.37503 9.375 11.8984 9.375 15C9.375 18.1017 11.8983 20.625 15 20.625C18.1017 20.625 20.625 18.1017 20.625 15C20.625 14.4822 20.2053 14.0625 19.6875 14.0625C19.1697 14.0625 18.75 14.4822 18.75 15C18.75 17.0678 17.0678 18.75 15 18.75C12.9322 18.75 11.25 17.0678 11.25 15C11.25 12.9323 12.9322 11.25 15 11.25ZM19.7868 8.88759L20.2537 4.2032C20.2752 3.98769 20.3706 3.78636 20.5237 3.63326L23.8825 0.274603C24.1412 0.0159117 24.5266 -0.068639 24.8699 0.0579821C25.2131 0.184603 25.4514 0.499369 25.48 0.864115L25.7463 4.25376L29.1359 4.52001C29.5007 4.54867 29.8154 4.78691 29.9421 5.13009C30.0687 5.47333 29.9841 5.85888 29.7254 6.11757L26.3667 9.47622C26.2137 9.62933 26.0123 9.72472 25.7968 9.74617L21.1126 10.2134L15.6629 15.663C15.4798 15.846 15.2399 15.9375 15 15.9375C14.76 15.9375 14.5202 15.846 14.3371 15.6629C13.971 15.2968 13.971 14.7032 14.3371 14.3371L19.7868 8.88759ZM21.7329 8.26726L25.2776 7.9137L26.9613 6.23001L24.801 6.06033C24.3412 6.02417 23.976 5.6589 23.9398 5.19911L23.7701 3.0387L22.0863 4.72245L21.7329 8.26726Z" fill="#002E47" stroke="white" stroke-width="0.5"/>
</g>
<defs>
<clipPath id="clip0_651_46147">
<rect width="30" height="30" fill="white"/>
</clipPath>
</defs>
</svg>
