<svg width="29" height="30" viewBox="0 0 29 30" fill="none" xmlns="http://www.w3.org/2000/svg">
<g clip-path="url(#clip0_651_46119)">
<path d="M28.8175 25.7216L26.5737 21.8353C26.534 21.7664 26.4768 21.7092 26.4079 21.6695C26.339 21.6297 26.2609 21.6088 26.1813 21.6088H2.8198C2.74026 21.6088 2.66212 21.6297 2.59324 21.6695C2.52436 21.7092 2.46716 21.7664 2.42739 21.8353L0.183628 25.7216C0.0658813 25.9256 0.00389761 26.1569 0.00390625 26.3924C0.00391489 26.628 0.0659156 26.8593 0.183677 27.0633C0.301438 27.2672 0.470811 27.4366 0.674773 27.5544C0.878734 27.6721 1.1101 27.7341 1.34561 27.7341H27.6555C27.891 27.7341 28.1224 27.6721 28.3264 27.5544C28.5303 27.4366 28.6997 27.2672 28.8175 27.0633C28.9352 26.8593 28.9972 26.628 28.9972 26.3924C28.9972 26.1569 28.9353 25.9256 28.8175 25.7216ZM28.0327 26.6101C27.9962 26.6778 27.9415 26.734 27.8749 26.7724C27.8084 26.8109 27.7324 26.83 27.6555 26.8278H1.34561C1.26918 26.8279 1.19409 26.8077 1.12789 26.7695C1.06169 26.7313 1.00672 26.6764 0.968495 26.6102C0.930271 26.544 0.910143 26.4689 0.910133 26.3925C0.910124 26.316 0.930233 26.2409 0.96844 26.1747L3.08142 22.515H25.9197L28.0324 26.1747C28.0728 26.2402 28.0941 26.3155 28.0942 26.3924C28.0942 26.4693 28.073 26.5446 28.0327 26.6101ZM4.52049 19.5697H24.4806C24.5602 19.5697 24.6383 19.5488 24.7072 19.509C24.7761 19.4692 24.8333 19.412 24.8731 19.3431C24.9128 19.2742 24.9338 19.1961 24.9338 19.1166C24.9338 19.037 24.9128 18.9589 24.8731 18.89L22.0451 13.9917C22.0053 13.9228 21.9481 13.8656 21.8792 13.8258C21.8104 13.786 21.7322 13.7651 21.6527 13.7651H7.34838C7.26885 13.7651 7.19071 13.786 7.12183 13.8258C7.05295 13.8656 6.99575 13.9228 6.95598 13.9917L4.12785 18.89C4.08808 18.9589 4.06715 19.037 4.06715 19.1166C4.06715 19.1961 4.08808 19.2742 4.12785 19.3431C4.16762 19.412 4.22482 19.4692 4.2937 19.509C4.36258 19.5488 4.44072 19.5697 4.52026 19.5697H4.52049ZM7.61023 14.6712H21.3911L23.696 18.6634H5.30513L7.61023 14.6712ZM9.04891 11.7259H19.9522C20.0318 11.7259 20.1099 11.705 20.1788 11.6652C20.2477 11.6255 20.3049 11.5683 20.3447 11.4994C20.3845 11.4305 20.4054 11.3524 20.4054 11.2728C20.4054 11.1933 20.3845 11.1151 20.3447 11.0462L15.6625 2.93649C15.5447 2.73252 15.3754 2.56315 15.1714 2.44538C14.9675 2.32762 14.7361 2.26562 14.5006 2.26562C14.265 2.26562 14.0337 2.32762 13.8297 2.44538C13.6258 2.56315 13.4564 2.73252 13.3386 2.93649L8.65644 11.0464C8.61667 11.1152 8.59573 11.1934 8.59574 11.2729C8.59574 11.3525 8.61668 11.4306 8.65645 11.4995C8.69623 11.5684 8.75344 11.6256 8.82233 11.6654C8.89122 11.7051 8.96936 11.726 9.04891 11.726V11.7259ZM14.1235 3.38962C14.1617 3.32342 14.2166 3.26845 14.2828 3.23023C14.349 3.19201 14.4241 3.17189 14.5006 3.17189C14.577 3.17189 14.6521 3.19201 14.7183 3.23023C14.7845 3.26845 14.8395 3.32342 14.8777 3.38962L19.1674 10.8198H9.83372L14.1235 3.38962Z" fill="#002E47" stroke="#002E47" stroke-width="0.4"/>
</g>
<defs>
<clipPath id="clip0_651_46119">
<rect width="29" height="29" fill="white" transform="translate(0 0.5)"/>
</clipPath>
</defs>
</svg>
