<svg width="29" height="28" viewBox="0 0 29 28" fill="none" xmlns="http://www.w3.org/2000/svg">
<g clip-path="url(#clip0_651_46130)">
<path d="M24.5233 0.45166H4.14537C3.25392 0.452459 2.3992 0.806941 1.76885 1.43729C1.1385 2.06765 0.784014 2.92236 0.783215 3.81381V24.1918C0.782026 24.6344 0.868069 25.0728 1.03643 25.4821C1.20478 25.8914 1.45215 26.2635 1.7644 26.5772C2.07664 26.8908 2.44764 27.1398 2.85618 27.31C3.26472 27.4802 3.7028 27.5682 4.14537 27.569H24.5233C24.9659 27.5682 25.404 27.4802 25.8125 27.31C26.2211 27.1398 26.5921 26.8908 26.9043 26.5772C27.2166 26.2635 27.4639 25.8914 27.6323 25.4821C27.8006 25.0728 27.8867 24.6344 27.8855 24.1918V3.81381C27.8839 2.92261 27.5292 2.06835 26.899 1.43817C26.2688 0.807992 25.4145 0.453254 24.5233 0.45166ZM26.0763 24.1918C26.0779 24.3969 26.0389 24.6003 25.9616 24.7902C25.8843 24.9802 25.7702 25.153 25.6259 25.2987C25.4816 25.4445 25.3099 25.5602 25.1206 25.6393C24.9314 25.7185 24.7284 25.7594 24.5233 25.7598H4.14537C3.73375 25.759 3.33922 25.5951 3.04817 25.3041C2.75711 25.013 2.59324 24.6185 2.59245 24.2069V3.81381C2.59324 3.4022 2.75711 3.00767 3.04817 2.71661C3.33922 2.42555 3.73375 2.26169 4.14537 2.26089H24.5233C24.935 2.26169 25.3295 2.42555 25.6205 2.71661C25.9116 3.00767 26.0755 3.4022 26.0763 3.81381V24.1918ZM22.4307 12.9595H20.2777C20.1155 12.9596 19.9562 13.0033 19.8167 13.0861C19.6772 13.1688 19.5625 13.2876 19.4846 13.4299L17.0874 17.8052L12.2236 7.83031C12.1492 7.67852 12.0338 7.5506 11.8904 7.46106C11.7471 7.37153 11.5815 7.32395 11.4124 7.32372C11.2437 7.32367 11.0784 7.3708 10.935 7.45978C10.7917 7.54877 10.6761 7.67607 10.6013 7.82729L8.09251 12.872H6.23805C5.99813 12.872 5.76803 12.9673 5.59839 13.137C5.42874 13.3066 5.33343 13.5367 5.33343 13.7766C5.33343 14.0166 5.42874 14.2467 5.59839 14.4163C5.76803 14.586 5.99813 14.6813 6.23805 14.6813H8.65035C8.81907 14.6813 8.98443 14.6342 9.12777 14.5452C9.2711 14.4562 9.3867 14.3289 9.46149 14.1777L11.3853 10.2788L16.2099 20.1723C16.2827 20.3209 16.3948 20.4467 16.5341 20.536C16.6734 20.6254 16.8345 20.6748 17 20.6789H17.0482C17.2104 20.6788 17.3696 20.635 17.5092 20.5523C17.6487 20.4695 17.7634 20.3508 17.8412 20.2085L20.8174 14.7657H22.4367C22.6766 14.7657 22.9067 14.6704 23.0764 14.5007C23.246 14.3311 23.3413 14.101 23.3413 13.8611C23.3413 13.6212 23.246 13.3911 23.0764 13.2214C22.9067 13.0518 22.6766 12.9565 22.4367 12.9565L22.4307 12.9595Z" fill="#002E47" stroke="white" stroke-width="0.3"/>
</g>
<defs>
<clipPath id="clip0_651_46130">
<rect width="28" height="28" fill="white" transform="translate(0.333984)"/>
</clipPath>
</defs>
</svg>
