<svg width="31" height="32" viewBox="0 0 31 32" fill="none" xmlns="http://www.w3.org/2000/svg">
<g clip-path="url(#clip0_651_46138)">
<path d="M29.7057 21.3891C29.0211 21.0576 28.2789 20.8615 27.5199 20.8115C27.851 19.9929 28.0311 19.1211 28.0516 18.2383C28.2058 13.5942 24.5267 10.2236 22.9611 8.77948L22.797 8.63178C22.5706 8.42173 22.3638 8.21496 22.1702 8.00819C22.3701 7.83991 22.5306 7.62987 22.6406 7.39285C22.7507 7.15584 22.8074 6.8976 22.8069 6.6363V6.60348C22.8056 6.24267 22.6961 5.89055 22.4925 5.59271C22.2888 5.29486 22.0005 5.06501 21.6647 4.93291C22.0407 3.88411 22.3037 2.79816 22.4491 1.69353C22.4719 1.50512 22.4412 1.3141 22.3605 1.14234C22.2798 0.970573 22.1523 0.824997 21.9928 0.722268C21.8332 0.619538 21.6479 0.563804 21.4581 0.561442C21.2684 0.55908 21.0818 0.610187 20.9197 0.708913C20.4169 0.987397 19.8794 1.19818 19.3213 1.33579C18.7833 1.47576 18.2184 1.47576 17.6803 1.33579C17.1186 1.19815 16.5778 0.986235 16.0721 0.705631C15.909 0.607148 15.7215 0.556744 15.531 0.560228C15.3405 0.563712 15.1549 0.620942 14.9956 0.725324C14.8372 0.826334 14.711 0.970546 14.6319 1.14094C14.5528 1.31133 14.5241 1.50079 14.5492 1.68696C14.6968 2.79579 14.9609 3.88598 15.3369 4.93948C15.0003 5.07067 14.711 5.30021 14.5067 5.59818C14.3024 5.89616 14.1925 6.24875 14.1915 6.61004V6.64286C14.1914 6.93453 14.2625 7.22181 14.3986 7.47976C14.5348 7.73771 14.7318 7.95854 14.9726 8.12307C14.8249 8.2806 14.6444 8.45127 14.4541 8.63178L14.2965 8.77948C12.7113 10.2236 9.0518 13.591 9.20277 18.2351C9.20277 18.4779 9.23231 18.711 9.25857 18.944H6.70185V17.8904C6.70185 17.7164 6.63269 17.5494 6.50959 17.4263C6.38649 17.3032 6.21953 17.234 6.04544 17.234H1.38493C1.21084 17.234 1.04387 17.3032 0.920774 17.4263C0.797673 17.5494 0.728516 17.7164 0.728516 17.8904V29.0822C0.728516 29.2563 0.797673 29.4233 0.920774 29.5464C1.04387 29.6695 1.21084 29.7387 1.38493 29.7387H6.04544C6.21953 29.7387 6.38649 29.6695 6.50959 29.5464C6.63269 29.4233 6.70185 29.2563 6.70185 29.0822V28.2289L13.8502 31.1138C14.4025 31.3216 14.9865 31.4326 15.5765 31.442C16.8893 31.442 18.0381 30.8742 19.3804 30.2047L19.5314 30.1292H19.5642L29.7386 24.2839C30.0035 24.145 30.2246 23.9352 30.377 23.6778C30.5295 23.4205 30.6073 23.1257 30.6017 22.8267C30.604 22.5268 30.521 22.2324 30.3624 21.9779C30.2037 21.7233 29.976 21.5192 29.7057 21.3891ZM16.1968 7.13845H15.9933C15.8651 7.13845 15.742 7.08773 15.651 6.99734C15.56 6.90696 15.5085 6.78425 15.5076 6.65599V6.62317C15.5063 6.55856 15.5179 6.49433 15.5417 6.43426C15.5655 6.37418 15.6011 6.31947 15.6463 6.27331C15.6916 6.22716 15.7456 6.1905 15.8051 6.16547C15.8647 6.14045 15.9287 6.12757 15.9933 6.12758H21.0116C21.1395 6.12758 21.2623 6.17841 21.3527 6.26889C21.4432 6.35937 21.4941 6.48208 21.4941 6.61004V6.64286C21.4958 6.70731 21.4846 6.77147 21.4612 6.83153C21.4377 6.89158 21.4024 6.94633 21.3575 6.99253C21.3125 7.03873 21.2587 7.07545 21.1993 7.10051C21.1399 7.12557 21.0761 7.13847 21.0116 7.13845H16.1968ZM17.3324 2.61578C18.0958 2.81933 18.8993 2.81933 19.6627 2.61578C20.141 2.49022 20.6085 2.32669 21.0608 2.12676C20.888 3.04199 20.6388 3.94113 20.3158 4.81476H16.6727C16.3521 3.94065 16.104 3.04161 15.931 2.12676C16.3846 2.32615 16.8532 2.48966 17.3324 2.61578ZM15.1827 9.76409L15.3435 9.6164C15.7406 9.25504 16.1114 8.86567 16.4528 8.45127H20.8015C21.1415 8.85975 21.5088 9.24464 21.901 9.60327L22.0684 9.75425C23.5027 11.0671 26.8668 14.1522 26.7322 18.1924C26.7229 19.1428 26.4734 20.0753 26.0069 20.9034C25.5035 21.0091 25.0151 21.1766 24.5529 21.4022L21.0149 23.1056C20.9199 22.5897 20.6487 22.1227 20.2476 21.7845C19.8465 21.4463 19.3405 21.2578 18.8159 21.2513H15.0087C13.8286 20.036 12.2758 19.2504 10.5976 19.0195C10.5531 18.7458 10.5257 18.4695 10.5156 18.1924C10.3843 14.1522 13.7451 11.0769 15.1827 9.76409ZM2.05446 28.439V18.5469H5.40216V28.4258L2.05446 28.439ZM29.1215 23.0991L18.9472 28.9477L18.8159 29.0133C17.0206 29.9093 15.9343 30.4509 14.3359 29.8863L6.70185 26.8308V20.2667H9.53754C10.4212 20.267 11.2947 20.4543 12.1008 20.8163C12.9069 21.1784 13.6272 21.7069 14.2145 22.3672C14.2759 22.4362 14.3512 22.4914 14.4355 22.5293C14.5198 22.5672 14.6111 22.5869 14.7035 22.5871H18.8159C19.0345 22.5903 19.2451 22.6704 19.4106 22.8132C19.5762 22.956 19.6864 23.1524 19.7217 23.3682C19.7277 23.5496 19.6747 23.7281 19.5708 23.8769C19.5708 23.8769 19.5708 23.8769 19.5511 23.9032C19.4723 24.0026 19.3728 24.0835 19.2593 24.1402C19.1459 24.1969 19.0214 24.228 18.8947 24.2314H11.5527C11.3786 24.2314 11.2117 24.3005 11.0886 24.4236C10.9655 24.5467 10.8963 24.7137 10.8963 24.8878C10.8963 25.0619 10.9655 25.2288 11.0886 25.3519C11.2117 25.475 11.3786 25.5442 11.5527 25.5442H18.8881C19.1697 25.5451 19.4488 25.4902 19.709 25.3826C19.9693 25.275 20.2057 25.1169 20.4044 24.9173C20.4471 24.8747 20.4897 24.8287 20.5291 24.7828L25.124 22.5707C25.537 22.361 25.9798 22.216 26.4368 22.1407C27.3539 22.0079 28.2898 22.1555 29.1215 22.5641C29.1681 22.5852 29.2075 22.6194 29.2349 22.6625C29.2623 22.7057 29.2765 22.7559 29.2758 22.807C29.2804 22.8653 29.2684 22.9237 29.2411 22.9754C29.2137 23.0271 29.1723 23.07 29.1215 23.0991Z" fill="#002E47"/>
<path d="M19.6049 17.756H18.0952C18.0462 17.7564 17.9976 17.7471 17.9522 17.7287C17.9069 17.7102 17.8656 17.683 17.8308 17.6485C17.796 17.614 17.7684 17.573 17.7496 17.5278C17.7307 17.4826 17.721 17.4341 17.721 17.3851C17.721 17.211 17.6519 17.0441 17.5288 16.921C17.4057 16.7979 17.2387 16.7287 17.0646 16.7287C16.8905 16.7287 16.7236 16.7979 16.6005 16.921C16.4774 17.0441 16.4082 17.211 16.4082 17.3851C16.4091 17.8319 16.5872 18.2602 16.9035 18.5759C17.2197 18.8915 17.6483 19.0688 18.0952 19.0688H18.1936V19.5611C18.1936 19.7352 18.2628 19.9022 18.3859 20.0253C18.509 20.1484 18.676 20.2175 18.85 20.2175C19.0241 20.2175 19.1911 20.1484 19.3142 20.0253C19.4373 19.9022 19.5065 19.7352 19.5065 19.5611V19.0688H19.6049C19.826 19.0688 20.045 19.0252 20.2492 18.9406C20.4535 18.856 20.6391 18.732 20.7955 18.5757C20.9518 18.4193 21.0758 18.2337 21.1604 18.0294C21.2451 17.8252 21.2886 17.6062 21.2886 17.3851V16.2955C21.2877 15.8492 21.1101 15.4214 20.7945 15.1059C20.4789 14.7903 20.0512 14.6126 19.6049 14.6118H18.0952C18.0462 14.6122 17.9976 14.6029 17.9522 14.5845C17.9069 14.566 17.8656 14.5388 17.8308 14.5043C17.796 14.4698 17.7684 14.4288 17.7496 14.3836C17.7307 14.3384 17.721 14.2899 17.721 14.2409V13.1513C17.7219 13.0526 17.7617 12.9583 17.8318 12.8888C17.9018 12.8194 17.9965 12.7804 18.0952 12.7804H19.6049C19.703 12.7812 19.7969 12.8206 19.8662 12.89C19.9356 12.9593 19.9749 13.0532 19.9758 13.1513C19.9758 13.3253 20.045 13.4923 20.1681 13.6154C20.2912 13.7385 20.4581 13.8077 20.6322 13.8077C20.8063 13.8077 20.9733 13.7385 21.0964 13.6154C21.2195 13.4923 21.2886 13.3253 21.2886 13.1513C21.2886 12.9302 21.2451 12.7112 21.1604 12.5069C21.0758 12.3027 20.9518 12.1171 20.7955 11.9607C20.6391 11.8044 20.4535 11.6803 20.2492 11.5957C20.045 11.5111 19.826 11.4676 19.6049 11.4676H19.5065V10.9753C19.5065 10.8012 19.4373 10.6342 19.3142 10.5111C19.1911 10.388 19.0241 10.3188 18.85 10.3188C18.676 10.3188 18.509 10.388 18.3859 10.5111C18.2628 10.6342 18.1936 10.8012 18.1936 10.9753V11.4676H18.0952C17.6483 11.4676 17.2197 11.6448 16.9035 11.9605C16.5872 12.2762 16.4091 12.7044 16.4082 13.1513V14.2409C16.4091 14.6877 16.5872 15.116 16.9035 15.4316C17.2197 15.7473 17.6483 15.9246 18.0952 15.9246H19.6049C19.703 15.9254 19.7969 15.9648 19.8662 16.0342C19.9356 16.1035 19.9749 16.1974 19.9758 16.2955V17.3851C19.9758 17.4835 19.9367 17.5778 19.8672 17.6474C19.7976 17.7169 19.7033 17.756 19.6049 17.756Z" fill="#002E47"/>
</g>
<defs>
<clipPath id="clip0_651_46138">
<rect width="30" height="30.8974" fill="white" transform="translate(0.666016 0.55127)"/>
</clipPath>
</defs>
</svg>
