<svg id="Layer_1" data-name="Layer 1" xmlns="http://www.w3.org/2000/svg" viewBox="0 0 64 64"><title>Design Thinking</title><path d="M44.55,51.28A22.919,22.919,0,0,1,33,54.964V52a1,1,0,0,0-2,0v2.973A23.083,23.083,0,0,1,9.027,33H12a1,1,0,0,0,0-2H9.043A22.777,22.777,0,0,1,10.4,24.09a.983.983,0,0,0-.6-1.28,1.009,1.009,0,0,0-1.28.59v.01A24.789,24.789,0,0,0,7.043,31H4a1,1,0,0,0,0,2H7.025A25.034,25.034,0,0,0,31,56.975V60a1,1,0,0,0,2,0V56.964A24.859,24.859,0,0,0,45.64,52.95a1,1,0,0,0,.29-1.38A1.017,1.017,0,0,0,44.55,51.28Z"/><path d="M60,31H56.975A25.028,25.028,0,0,0,33,7.025V4a1,1,0,0,0-2,0V7.029a24.712,24.712,0,0,0-10.37,2.7,25.316,25.316,0,0,0-8.64,7.29,1,1,0,0,0,.2,1.4,1.026,1.026,0,0,0,1.4-.2A22.792,22.792,0,0,1,31,9.029V12a1,1,0,0,0,2,0V9.027A23.083,23.083,0,0,1,54.973,31H52a1,1,0,0,0,0,2h2.956a22.956,22.956,0,0,1-5.4,13.85,1.008,1.008,0,0,0,.12,1.41.965.965,0,0,0,1.4-.1c0-.01,0-.01.01-.01A25.041,25.041,0,0,0,56.956,33H60a1,1,0,0,0,0-2Z"/><path d="M43.263,31.669A4.685,4.685,0,0,0,44.75,28.25,4.756,4.756,0,0,0,40,23.5a4.685,4.685,0,0,0-2.639.821,5.988,5.988,0,0,0-10.722,0A4.685,4.685,0,0,0,24,23.5a4.756,4.756,0,0,0-4.75,4.75,4.685,4.685,0,0,0,1.487,3.419A8.5,8.5,0,0,0,15.5,39.5a1,1,0,0,0,1,1h4.609A11.067,11.067,0,0,0,21,42a1,1,0,0,0,1,1H42a1,1,0,0,0,1-1,11.067,11.067,0,0,0-.109-1.5H47.5a1,1,0,0,0,1-1A8.5,8.5,0,0,0,43.263,31.669ZM40,25.5a2.75,2.75,0,1,1-2.506,3.871A5.862,5.862,0,0,0,38,27c0-.2-.011-.395-.03-.589A2.732,2.732,0,0,1,40,25.5Zm-4.264,6.167a6.077,6.077,0,0,0,.555-.508,4.414,4.414,0,0,0,.446.51c-.155.065-.3.147-.449.223C36.1,31.814,35.924,31.735,35.736,31.667ZM32,23a4,4,0,1,1-4,4A4,4,0,0,1,32,23Zm-4.737,8.669a4.414,4.414,0,0,0,.446-.51,6.077,6.077,0,0,0,.555.508c-.188.068-.369.147-.552.225C27.563,31.816,27.418,31.734,27.263,31.669ZM24,25.5a2.732,2.732,0,0,1,2.03.911c-.019.194-.03.39-.03.589a5.862,5.862,0,0,0,.506,2.371A2.748,2.748,0,1,1,24,25.5Zm-6.423,13A6.51,6.51,0,0,1,24,33a6.141,6.141,0,0,1,1.458.181A11.03,11.03,0,0,0,21.576,38.5ZM23.055,41a9,9,0,0,1,17.89,0Zm19.369-2.5a11.03,11.03,0,0,0-3.882-5.319A6.141,6.141,0,0,1,40,33a6.51,6.51,0,0,1,6.423,5.5Z"/><circle cx="10.663" cy="21" r="1"/><circle cx="48.25" cy="49.668" r="1"/></svg>