<svg width="20" height="21" viewBox="0 0 20 21" fill="none" xmlns="http://www.w3.org/2000/svg">
<path d="M16.1625 11.4062H13.025C11.8562 11.4062 10.9062 12.3562 10.9062 13.525V16.6625C10.9062 17.8313 11.8562 18.7812 13.025 18.7812H16.1625C17.3313 18.7812 18.2812 17.8313 18.2812 16.6625V13.525C18.2812 12.3562 17.3313 11.4062 16.1625 11.4062ZM17.0312 16.6625C17.0312 17.1375 16.6375 17.5312 16.1625 17.5312H13.025C12.55 17.5312 12.1563 17.1375 12.1563 16.6625V13.525C12.1563 13.0437 12.55 12.6563 13.025 12.6563H16.1625C16.6375 12.6563 17.0312 13.0437 17.0312 13.525V16.6625Z" fill="#002E47"/>
<path d="M16.1625 2.21875H13.025C11.8562 2.21875 10.9062 3.16875 10.9062 4.3375V7.475C10.9062 8.64381 11.8562 9.59375 13.025 9.59375H16.1625C17.3313 9.59375 18.2812 8.64375 18.2812 7.475V4.3375C18.2812 3.16875 17.3313 2.21875 16.1625 2.21875ZM17.0312 7.475C17.0312 7.95625 16.6375 8.34375 16.1625 8.34375H13.025C12.55 8.34375 12.1563 7.95625 12.1563 7.475V4.3375C12.1563 3.8625 12.55 3.46875 13.025 3.46875H16.1625C16.6375 3.46875 17.0312 3.8625 17.0312 4.3375V7.475Z" fill="#002E47"/>
<path d="M6.975 11.4062H3.8375C2.66875 11.4062 1.71875 12.3562 1.71875 13.525V16.6625C1.71875 17.8313 2.66875 18.7812 3.8375 18.7812H6.975C8.14381 18.7812 9.09375 17.8313 9.09375 16.6625V13.525C9.09375 12.3562 8.14375 11.4062 6.975 11.4062ZM7.84375 16.6625C7.84375 17.1375 7.45625 17.5312 6.975 17.5312H3.8375C3.3625 17.5312 2.96875 17.1375 2.96875 16.6625V13.525C2.96875 13.0437 3.3625 12.6563 3.8375 12.6563H6.975C7.45625 12.6563 7.84375 13.0437 7.84375 13.525V16.6625Z" fill="#002E47"/>
<path d="M6.975 2.21875H3.8375C2.66875 2.21875 1.71875 3.16875 1.71875 4.3375V7.475C1.71875 8.64381 2.66875 9.59375 3.8375 9.59375H6.975C8.14381 9.59375 9.09375 8.64375 9.09375 7.475V4.3375C9.09375 3.16875 8.14375 2.21875 6.975 2.21875ZM7.84375 7.475C7.84375 7.95625 7.45625 8.34375 6.975 8.34375H3.8375C3.3625 8.34375 2.96875 7.95625 2.96875 7.475V4.3375C2.96875 3.8625 3.3625 3.46875 3.8375 3.46875H6.975C7.45625 3.46875 7.84375 3.8625 7.84375 4.3375V7.475Z" fill="#002E47"/>
</svg>
