<svg width="17" height="16" viewBox="0 0 17 16" fill="none" xmlns="http://www.w3.org/2000/svg">
<g clip-path="url(#clip0_639_42636)">
<path d="M14.1524 2.34742C12.6532 0.84826 10.6199 0.00604248 8.49982 0.00604248C6.37969 0.00604248 4.34639 0.84826 2.84724 2.34742C1.34808 3.84658 0.505859 5.87987 0.505859 8C0.505859 10.1201 1.34808 12.1534 2.84724 13.6526C4.34639 15.1517 6.37969 15.994 8.49982 15.994C10.6199 15.994 12.6532 15.1517 14.1524 13.6526C15.6516 12.1534 16.4938 10.1201 16.4938 8C16.4938 5.87987 15.6516 3.84658 14.1524 2.34742ZM13.3473 12.8475C12.3882 13.8033 11.1673 14.4535 9.83886 14.716C8.51043 14.9784 7.13402 14.8414 5.88344 14.3221C4.63285 13.8028 3.56418 12.9246 2.81237 11.7984C2.06056 10.6721 1.65932 9.3484 1.65932 7.99429C1.65932 6.64018 2.06056 5.31643 2.81237 4.19021C3.56418 3.06398 4.63285 2.18578 5.88344 1.6665C7.13402 1.14722 8.51043 1.01015 9.83886 1.27259C11.1673 1.53504 12.3882 2.18523 13.3473 3.14106C13.9861 3.7776 14.4929 4.53397 14.8387 5.3668C15.1845 6.19962 15.3625 7.09252 15.3625 7.99429C15.3625 8.89606 15.1845 9.78895 14.8387 10.6218C14.4929 11.4546 13.9861 12.211 13.3473 12.8475ZM10.9207 6.38416L9.30488 8L10.9207 9.61584C11.0271 9.72281 11.0868 9.86753 11.0868 10.0184C11.0868 10.1692 11.0271 10.3139 10.9207 10.4209C10.8137 10.5272 10.669 10.5869 10.5182 10.5869C10.3673 10.5869 10.2226 10.5272 10.1157 10.4209L8.49982 8.80506L6.88398 10.4209C6.777 10.5272 6.63229 10.5869 6.48145 10.5869C6.3306 10.5869 6.18589 10.5272 6.07891 10.4209C5.97257 10.3139 5.91288 10.1692 5.91288 10.0184C5.91288 9.86753 5.97257 9.72281 6.07891 9.61584L7.69475 8L6.07891 6.38416C5.98537 6.27493 5.93649 6.13443 5.94205 5.99073C5.9476 5.84703 6.00717 5.71072 6.10885 5.60903C6.21054 5.50735 6.34685 5.44778 6.49055 5.44223C6.63425 5.43668 6.77475 5.48556 6.88398 5.57909L8.49982 7.19493L10.1157 5.57909C10.2249 5.48556 10.3654 5.43668 10.5091 5.44223C10.6528 5.44778 10.7891 5.50735 10.8908 5.60903C10.9925 5.71072 11.052 5.84703 11.0576 5.99073C11.0631 6.13443 11.0143 6.27493 10.9207 6.38416Z" fill="white"/>
</g>
<defs>
<clipPath id="clip0_639_42636">
<rect width="16" height="16" fill="white" transform="translate(0.5)"/>
</clipPath>
</defs>
</svg>
