<svg width="18" height="19" viewBox="0 0 18 19" fill="none" xmlns="http://www.w3.org/2000/svg">
<g clip-path="url(#clip0_567_36390)">
<path d="M17.8292 17.5207L13.1819 12.9477C14.3989 11.6255 15.1466 9.87682 15.1466 7.95261C15.146 3.83639 11.7556 0.5 7.57302 0.5C3.39042 0.5 0 3.83639 0 7.95261C0 12.0688 3.39042 15.4052 7.57302 15.4052C9.3802 15.4052 11.0377 14.7802 12.3397 13.741L17.005 18.332C17.2323 18.556 17.6014 18.556 17.8287 18.332C18.0565 18.1081 18.0565 17.7447 17.8292 17.5207ZM7.57302 14.2586C4.03408 14.2586 1.16522 11.4353 1.16522 7.95261C1.16522 4.46991 4.03408 1.64663 7.57302 1.64663C11.112 1.64663 13.9808 4.46991 13.9808 7.95261C13.9808 11.4353 11.112 14.2586 7.57302 14.2586Z" fill="white"/>
</g>
<defs>
<clipPath id="clip0_567_36390">
<rect width="18" height="18" fill="white" transform="translate(0 0.5)"/>
</clipPath>
</defs>
</svg>
