<svg width="18" height="18" viewBox="0 0 18 18" fill="none" xmlns="http://www.w3.org/2000/svg">
<g clip-path="url(#clip0_536_30876)">
<path fill-rule="evenodd" clip-rule="evenodd" d="M1.79066 3.05145L2.67845 8.15624H8.15628C8.62226 8.15624 9.00003 8.53399 9.00003 8.99999C9.00003 9.46597 8.62226 9.84374 8.15628 9.84374H2.67845L1.79066 14.9485L15.6706 8.99999L1.79066 3.05145ZM1.11236 8.99999L0.0716494 3.01592C-0.0124833 2.53216 0.144051 2.03771 0.491259 1.6905C0.927517 1.25425 1.58543 1.12754 2.15251 1.37057L17.2302 7.83242C17.6972 8.03259 18 8.49184 18 8.99999C18 9.50813 17.6972 9.96739 17.2302 10.1676L2.15251 16.6294C1.58543 16.8725 0.927517 16.7457 0.491259 16.3095C0.144051 15.9622 -0.0124835 15.4678 0.0716494 14.984L1.11236 8.99999Z" fill="#39B4EF"/>
</g>
<defs>
<clipPath id="clip0_536_30876">
<rect width="18" height="18" fill="white"/>
</clipPath>
</defs>
</svg>
