<svg width="22" height="22" viewBox="0 0 22 22" fill="none" xmlns="http://www.w3.org/2000/svg">
<path d="M19.6601 10.1799L3.16007 1.92989C2.99789 1.84874 2.81528 1.81753 2.63535 1.8402C2.45543 1.86286 2.28627 1.93839 2.14927 2.05721C2.01228 2.17604 1.91361 2.33283 1.86575 2.50775C1.81789 2.68267 1.82299 2.86786 1.8804 3.03988L4.53369 10.9998L1.8804 18.9598C1.82299 19.1318 1.81789 19.317 1.86575 19.4919C1.91361 19.6669 2.01228 19.8236 2.14927 19.9425C2.28627 20.0613 2.45543 20.1368 2.63535 20.1595C2.81528 20.1822 2.99789 20.1509 3.16007 20.0698L19.6601 11.8198C19.8124 11.7437 19.9405 11.6267 20.03 11.4818C20.1195 11.337 20.1669 11.1701 20.1669 10.9998C20.1669 10.8296 20.1195 10.6627 20.03 10.5179C19.9405 10.373 19.8124 10.256 19.6601 10.1799ZM4.31928 17.4407L6.16078 11.9165H11C11.2432 11.9165 11.4763 11.8199 11.6482 11.648C11.8201 11.4761 11.9167 11.243 11.9167 10.9998C11.9167 10.7567 11.8201 10.5236 11.6482 10.3517C11.4763 10.1798 11.2432 10.0832 11 10.0832H6.16078L4.31928 4.55898L17.2006 10.9998L4.31928 17.4407Z" fill="#002E47"/>
</svg>
