<svg width="18" height="18" viewBox="0 0 18 18" fill="none" xmlns="http://www.w3.org/2000/svg">
<path d="M16.0856 8.32902L2.58558 1.57902C2.45288 1.51263 2.30348 1.48709 2.15626 1.50564C2.00905 1.52418 1.87065 1.58597 1.75856 1.6832C1.64648 1.78042 1.56575 1.90871 1.52659 2.05182C1.48743 2.19494 1.4916 2.34645 1.53858 2.48719L3.70945 8.9999L1.53858 15.5126C1.4916 15.6533 1.48743 15.8049 1.52659 15.948C1.56575 16.0911 1.64648 16.2194 1.75856 16.3166C1.87065 16.4138 2.00905 16.4756 2.15626 16.4942C2.30348 16.5127 2.45288 16.4872 2.58558 16.4208L16.0856 9.67077C16.2102 9.60849 16.315 9.51274 16.3882 9.39425C16.4615 9.27575 16.5003 9.1392 16.5003 8.9999C16.5003 8.86059 16.4615 8.72404 16.3882 8.60554C16.315 8.48705 16.2102 8.3913 16.0856 8.32902ZM3.53403 14.2697L5.0407 9.7499H9.0001C9.19901 9.7499 9.38978 9.67088 9.53043 9.53022C9.67108 9.38957 9.7501 9.19881 9.7501 8.9999C9.7501 8.80098 9.67108 8.61022 9.53043 8.46957C9.38978 8.32891 9.19901 8.2499 9.0001 8.2499H5.0407L3.53403 3.73009L14.0733 8.9999L3.53403 14.2697Z" fill="white"/>
</svg>
