<svg width="18" height="18" viewBox="0 0 18 18" fill="none" xmlns="http://www.w3.org/2000/svg">
<g clip-path="url(#clip0_669_49538)">
<path d="M15.7882 6.75H15.7163C15.6107 6.74907 15.5079 6.71637 15.4212 6.65617C15.3345 6.59597 15.268 6.51106 15.2303 6.4125C15.1905 6.31733 15.18 6.21248 15.2 6.11132C15.2201 6.01015 15.2697 5.91723 15.3427 5.84438L15.3939 5.79319C15.7025 5.48344 15.8757 5.06405 15.8757 4.62684C15.8757 4.18964 15.7025 3.77024 15.3939 3.4605L14.544 2.61112C14.2345 2.30233 13.8151 2.1289 13.3779 2.1289C12.9407 2.1289 12.5214 2.30233 12.2119 2.61112L12.1607 2.66231C12.0853 2.73494 11.9903 2.78397 11.8874 2.80339C11.7845 2.82281 11.6782 2.81178 11.5815 2.77164C11.4848 2.7315 11.4019 2.66401 11.343 2.57744C11.2842 2.49087 11.2518 2.389 11.25 2.28431V2.21175C11.2496 1.77448 11.0757 1.35525 10.7665 1.04605C10.4573 0.73685 10.038 0.562947 9.60075 0.5625H8.39925C7.96198 0.562947 7.54275 0.73685 7.23355 1.04605C6.92435 1.35525 6.75045 1.77448 6.75 2.21175V2.28431C6.74726 2.38825 6.71445 2.48915 6.65554 2.57482C6.59663 2.66049 6.51415 2.72725 6.41808 2.76701C6.32202 2.80677 6.21648 2.81783 6.11426 2.79885C6.01204 2.77987 5.91751 2.73166 5.84212 2.66006L5.79375 2.60888C5.48425 2.30007 5.06489 2.12665 4.62769 2.12665C4.19048 2.12665 3.77113 2.30007 3.46162 2.60888L2.60888 3.45825C2.30031 3.76799 2.12707 4.18739 2.12707 4.62459C2.12707 5.0618 2.30031 5.48119 2.60888 5.79094L2.66006 5.84212C2.73378 5.91755 2.78312 6.01339 2.80168 6.11721C2.82023 6.22102 2.80715 6.32802 2.76413 6.42431C2.72552 6.52022 2.6592 6.60244 2.57363 6.66045C2.48806 6.71847 2.38713 6.74964 2.28375 6.75H2.21175C1.77448 6.75045 1.35525 6.92435 1.04605 7.23355C0.73685 7.54275 0.562947 7.96198 0.5625 8.39925V9.60075C0.562947 10.038 0.73685 10.4573 1.04605 10.7665C1.35525 11.0757 1.77448 11.2496 2.21175 11.25H2.28375C2.38929 11.2509 2.49209 11.2836 2.57878 11.3438C2.66547 11.404 2.73201 11.4889 2.76975 11.5875C2.80948 11.6827 2.82 11.7875 2.79996 11.8887C2.77993 11.9899 2.73025 12.0828 2.65725 12.1556L2.60606 12.2068C2.2975 12.5166 2.12425 12.9359 2.12425 13.3732C2.12425 13.8104 2.2975 14.2298 2.60606 14.5395L3.45544 15.3883C3.76489 15.6974 4.18439 15.871 4.62178 15.871C5.05917 15.871 5.47867 15.6974 5.78813 15.3883L5.83931 15.3371C5.91477 15.2635 6.01061 15.2142 6.11441 15.1956C6.21822 15.1771 6.3252 15.1901 6.4215 15.2331C6.51741 15.2715 6.59965 15.3377 6.65767 15.4232C6.7157 15.5087 6.74687 15.6096 6.74719 15.7129V15.7854C6.74704 16.0024 6.78967 16.2173 6.87264 16.4178C6.95561 16.6183 7.0773 16.8005 7.23074 16.954C7.38417 17.1074 7.56635 17.2291 7.76686 17.312C7.96736 17.395 8.18226 17.4376 8.39925 17.4375H9.60075C10.038 17.4371 10.4573 17.2631 10.7665 16.954C11.0757 16.6448 11.2496 16.2255 11.25 15.7882V15.7157C11.2527 15.6118 11.2856 15.5108 11.3445 15.4252C11.4034 15.3395 11.4859 15.2728 11.5819 15.233C11.678 15.1932 11.7835 15.1822 11.8857 15.2012C11.988 15.2201 12.0825 15.2683 12.1579 15.3399L12.2091 15.3911C12.5186 15.6999 12.9379 15.8733 13.3751 15.8733C13.8123 15.8733 14.2317 15.6999 14.5412 15.3911L15.3911 14.5423C15.6997 14.2326 15.8729 13.8132 15.8729 13.376C15.8729 12.9388 15.6997 12.5194 15.3911 12.2096L15.3399 12.1584C15.2662 12.083 15.2169 11.9872 15.1983 11.8834C15.1798 11.7795 15.1928 11.6725 15.2359 11.5763C15.2744 11.4802 15.3407 11.3979 15.4263 11.3398C15.5118 11.2817 15.6128 11.2504 15.7163 11.25H15.7882C16.2255 11.2496 16.6448 11.0757 16.954 10.7665C17.2631 10.4573 17.4371 10.038 17.4375 9.60075V8.39925C17.4371 7.96198 17.2631 7.54275 16.954 7.23355C16.6448 6.92435 16.2255 6.75045 15.7882 6.75ZM16.3125 9.60075C16.3124 9.73974 16.2571 9.873 16.1588 9.97129C16.0605 10.0696 15.9272 10.1249 15.7882 10.125H15.7163C15.3898 10.1278 15.0714 10.2266 14.8008 10.4091C14.5301 10.5916 14.3192 10.8497 14.1943 11.1513C14.0693 11.4529 14.0359 11.7846 14.0982 12.105C14.1605 12.4254 14.3157 12.7204 14.5446 12.9532L14.5952 13.0044C14.6934 13.1029 14.7485 13.2363 14.7485 13.3754C14.7485 13.5145 14.6934 13.6479 14.5952 13.7464L13.7453 14.5952C13.6469 14.6935 13.5136 14.7487 13.3746 14.7487C13.2355 14.7487 13.1022 14.6935 13.0039 14.5952L12.9532 14.544C12.7203 14.3154 12.4254 14.1604 12.105 14.0983C11.7847 14.0361 11.4531 14.0696 11.1516 14.1945C10.8502 14.3194 10.5921 14.5302 10.4095 14.8007C10.227 15.0712 10.128 15.3894 10.125 15.7157V15.7882C10.1249 15.9272 10.0696 16.0605 9.97129 16.1588C9.873 16.2571 9.73974 16.3124 9.60075 16.3125H8.39925C8.26026 16.3124 8.127 16.2571 8.02871 16.1588C7.93043 16.0605 7.87515 15.9272 7.875 15.7882V15.7157C7.87342 15.3887 7.77531 15.0695 7.59298 14.7981C7.41066 14.5267 7.15223 14.3151 6.85014 14.1901C6.54804 14.065 6.21573 14.0319 5.8949 14.0949C5.57407 14.158 5.27902 14.3144 5.04675 14.5446L4.99556 14.5957C4.8971 14.6938 4.76382 14.7488 4.62488 14.7488C4.48593 14.7488 4.35265 14.6938 4.25419 14.5957L3.40481 13.7469C3.30661 13.6485 3.25146 13.515 3.25146 13.376C3.25146 13.2369 3.30661 13.1035 3.40481 13.005L3.456 12.9538C3.68505 12.721 3.84046 12.4259 3.90284 12.1053C3.96523 11.7847 3.93182 11.4529 3.80679 11.1512C3.68176 10.8494 3.47064 10.5912 3.19979 10.4087C2.92894 10.2262 2.61034 10.1276 2.28375 10.125H2.21175C2.07276 10.1249 1.9395 10.0696 1.84121 9.97129C1.74293 9.873 1.68765 9.73974 1.6875 9.60075V8.39925C1.68765 8.26026 1.74293 8.127 1.84121 8.02871C1.9395 7.93043 2.07276 7.87515 2.21175 7.875H2.28375C2.61017 7.87222 2.92856 7.77342 3.19921 7.59092C3.46986 7.40842 3.68081 7.15028 3.80575 6.8487C3.93068 6.54712 3.96409 6.21544 3.90179 5.895C3.8395 5.57457 3.68426 5.27956 3.45544 5.04675L3.40481 4.99556C3.30664 4.89717 3.25151 4.76386 3.25151 4.62488C3.25151 4.48589 3.30664 4.35258 3.40481 4.25419L4.25419 3.40425C4.3525 3.30594 4.48584 3.25071 4.62488 3.25071C4.76391 3.25071 4.89725 3.30594 4.99556 3.40425L5.04619 3.45544C5.27903 3.68415 5.57402 3.83931 5.89441 3.90158C6.2148 3.96385 6.54644 3.93049 6.848 3.80564C7.14956 3.68079 7.40773 3.46998 7.59035 3.19947C7.77297 2.92895 7.87196 2.61068 7.875 2.28431V2.21175C7.87515 2.07276 7.93043 1.9395 8.02871 1.84121C8.127 1.74293 8.26026 1.68765 8.39925 1.6875H9.60075C9.73974 1.68765 9.873 1.74293 9.97129 1.84121C10.0696 1.9395 10.1249 2.07276 10.125 2.21175V2.28431C10.1279 2.61069 10.2268 2.929 10.4093 3.19956C10.5919 3.47013 10.85 3.68099 11.1516 3.80586C11.4531 3.93073 11.7847 3.96409 12.1051 3.90177C12.4255 3.83946 12.7205 3.68423 12.9532 3.45544L13.0044 3.40425C13.1028 3.30594 13.2361 3.25071 13.3751 3.25071C13.5142 3.25071 13.6475 3.30594 13.7458 3.40425L14.5952 4.25419C14.6934 4.35258 14.7485 4.48589 14.7485 4.62488C14.7485 4.76386 14.6934 4.89717 14.5952 4.99556L14.544 5.04675C14.3151 5.27959 14.1599 5.57465 14.0976 5.89514C14.0353 6.21563 14.0688 6.54736 14.1938 6.84896C14.3188 7.15056 14.5298 7.40869 14.8006 7.59115C15.0713 7.77361 15.3898 7.87233 15.7163 7.875H15.7882C15.9272 7.87515 16.0605 7.93043 16.1588 8.02871C16.2571 8.127 16.3124 8.26026 16.3125 8.39925V9.60075Z" fill="white"/>
<path d="M9 5.0625C8.22124 5.0625 7.45996 5.29343 6.81244 5.72609C6.16493 6.15875 5.66025 6.7737 5.36223 7.49318C5.06421 8.21267 4.98623 9.00437 5.13816 9.76817C5.29009 10.532 5.6651 11.2336 6.21577 11.7842C6.76644 12.3349 7.46803 12.7099 8.23183 12.8618C8.99563 13.0138 9.78733 12.9358 10.5068 12.6378C11.2263 12.3398 11.8413 11.8351 12.2739 11.1876C12.7066 10.54 12.9375 9.77876 12.9375 9C12.9363 7.95608 12.5211 6.95525 11.7829 6.21708C11.0448 5.47892 10.0439 5.06369 9 5.0625ZM9 11.8125C8.44374 11.8125 7.89997 11.6476 7.43746 11.3385C6.97495 11.0295 6.61446 10.5902 6.40159 10.0763C6.18872 9.56238 6.13302 8.99688 6.24154 8.45131C6.35006 7.90574 6.61793 7.4046 7.01126 7.01126C7.4046 6.61793 7.90574 6.35006 8.45131 6.24154C8.99688 6.13302 9.56238 6.18872 10.0763 6.40159C10.5902 6.61446 11.0295 6.97495 11.3385 7.43746C11.6476 7.89997 11.8125 8.44374 11.8125 9C11.8116 9.74565 11.515 10.4605 10.9878 10.9878C10.4605 11.515 9.74565 11.8116 9 11.8125Z" fill="white"/>
</g>
<defs>
<clipPath id="clip0_669_49538">
<rect width="18" height="18" fill="white"/>
</clipPath>
</defs>
</svg>
