<svg width="16" height="16" viewBox="0 0 16 16" fill="none" xmlns="http://www.w3.org/2000/svg">
<g clip-path="url(#clip0_975_2309)">
<path d="M4.00355 2.69902H14C14.4417 2.69902 14.7997 3.05704 14.7997 3.49867C14.7997 3.9403 14.4417 4.29832 14 4.29832H4.00355C3.56192 4.29832 3.20391 3.9403 3.20391 3.49867C3.20391 3.05704 3.56192 2.69902 4.00355 2.69902Z" fill="#002E47" stroke="white" stroke-width="0.4"/>
<path d="M1.8049 3.49971L1.80495 3.51077L1.80621 3.52176C1.81135 3.56632 1.81187 3.61128 1.80776 3.65592C1.79406 3.7024 1.77575 3.74741 1.7531 3.79027L1.75277 3.7901L1.74776 3.80115C1.72556 3.85014 1.69926 3.8972 1.66917 3.94179L1.66912 3.94176L1.66654 3.94579C1.63852 3.98955 1.60583 4.0301 1.56902 4.06675C1.4191 4.21537 1.2165 4.29868 1.00541 4.29851L0.994174 4.2985L0.983004 4.29975C0.936227 4.30498 0.888996 4.30532 0.842161 4.30075C0.790185 4.28898 0.739864 4.27057 0.692469 4.24599L0.684593 4.2419L0.676386 4.23853C0.630955 4.21987 0.587893 4.19581 0.548181 4.16689L0.548419 4.16656L0.537681 4.15974C0.495779 4.13313 0.456874 4.10199 0.421632 4.06689L0.421595 4.06686C0.384745 4.03018 0.352015 3.98959 0.323965 3.9458L0.324014 3.94576L0.321333 3.94179C0.291883 3.89815 0.26607 3.85215 0.244165 3.80428C0.225902 3.75947 0.212329 3.71287 0.203657 3.66523C0.19858 3.61754 0.198789 3.56942 0.204283 3.52176L0.205552 3.51076L0.205598 3.49968C0.206472 3.28797 0.291302 3.08524 0.441492 2.93595L0.441496 2.93595C0.753383 2.62591 1.25711 2.62591 1.569 2.93595C1.71916 3.08524 1.804 3.28798 1.8049 3.49971Z" fill="#002E47" stroke="white" stroke-width="0.4"/>
<path d="M1.80646 7.97458L1.8038 7.99778L1.80655 8.02096C1.81201 8.06699 1.81235 8.11346 1.80757 8.15955C1.79554 8.21205 1.77699 8.26285 1.75235 8.31074L1.74836 8.31849L1.74506 8.32657C1.72656 8.37181 1.70261 8.41466 1.67371 8.45422L1.67331 8.45393L1.66581 8.46588C1.64063 8.506 1.61011 8.54261 1.57509 8.57473L1.56871 8.58058L1.56285 8.58697C1.53073 8.62199 1.49412 8.65251 1.454 8.67769L1.45384 8.67742L1.44463 8.68394C1.40329 8.71325 1.35863 8.7375 1.31161 8.75616L1.31158 8.75607L1.30598 8.75849C1.26304 8.77707 1.21808 8.79065 1.17204 8.79897C1.1243 8.80406 1.07612 8.80386 1.02841 8.79836L1.01538 8.79685L1.00227 8.79707C0.95254 8.79787 0.902871 8.79278 0.854336 8.78189L0.854403 8.78159L0.843456 8.77977C0.793594 8.77146 0.744834 8.75734 0.698217 8.73772L0.69822 8.73772L0.696523 8.73702C0.651171 8.71842 0.608196 8.6944 0.568497 8.66547L0.568781 8.66508L0.557012 8.65769C0.516891 8.63252 0.480281 8.602 0.448163 8.56697L0.443052 8.5614L0.437534 8.55623C0.400157 8.52119 0.36641 8.48244 0.336811 8.44058C0.309639 8.39807 0.286012 8.35342 0.266192 8.30707C0.228073 8.20779 0.207652 8.10264 0.205868 7.99635C0.207233 7.78531 0.292004 7.58334 0.441752 7.43449L0.441756 7.43448C0.753643 7.12444 1.25737 7.12444 1.56926 7.43448L1.56913 7.43461L1.57539 7.44032C1.61025 7.47216 1.64062 7.5086 1.66563 7.5486L1.6655 7.54868L1.66981 7.55502C1.69975 7.59906 1.7252 7.64594 1.74577 7.69494L1.75008 7.7052L1.7555 7.71492C1.7776 7.75457 1.7952 7.79652 1.80799 7.84003C1.8121 7.8848 1.81159 7.92989 1.80646 7.97458Z" fill="#002E47" stroke="white" stroke-width="0.4"/>
<path d="M1.80651 12.4727L1.80387 12.4959L1.80661 12.519C1.81207 12.565 1.81242 12.6115 1.80764 12.6576C1.79558 12.7101 1.77702 12.7609 1.75236 12.8089L1.74838 12.8166L1.74508 12.8247C1.72662 12.8699 1.7027 12.9127 1.67385 12.9522L1.66965 12.9579L1.66587 12.9639C1.64069 13.004 1.61018 13.0407 1.57515 13.0728L1.56877 13.0786L1.56291 13.085C1.5308 13.12 1.49419 13.1506 1.45406 13.1757L1.4539 13.1755L1.44469 13.182C1.40335 13.2113 1.35869 13.2355 1.31168 13.2542L1.31164 13.2541L1.30604 13.2565C1.2631 13.2751 1.21814 13.2887 1.17211 13.297C1.12436 13.3021 1.07619 13.3019 1.02848 13.2964L1.01544 13.2949L1.00233 13.2951C0.952601 13.2959 0.902932 13.2908 0.854397 13.2799L0.854465 13.2796L0.843518 13.2778C0.793656 13.2695 0.744895 13.2554 0.698278 13.2358L0.698281 13.2358L0.696585 13.2351C0.651233 13.2165 0.608257 13.1924 0.568558 13.1635L0.568842 13.1631L0.557073 13.1557C0.516952 13.1306 0.480343 13.1 0.448224 13.065L0.448381 13.0649L0.441825 13.0584C0.291656 12.9091 0.206818 12.7063 0.205919 12.4946L0.205925 12.4946L0.205906 12.4931C0.205306 12.4427 0.210442 12.3925 0.221238 12.3435L0.221543 12.3436L0.223334 12.3325C0.23122 12.2839 0.244882 12.2364 0.264019 12.191C0.286023 12.1428 0.31199 12.0965 0.341647 12.0525L0.341739 12.0526L0.345267 12.0469C0.370444 12.0068 0.400961 11.9702 0.435988 11.9381L0.436098 11.9382L0.441817 11.9325C0.753704 11.6225 1.25743 11.6225 1.56932 11.9325L1.56921 11.9326L1.57515 11.9381C1.61018 11.9702 1.64069 12.0068 1.66587 12.0469L1.66578 12.047L1.66949 12.0525C1.69958 12.0971 1.72588 12.1442 1.74809 12.1931L1.74763 12.1934L1.75436 12.2058C1.77699 12.2476 1.79497 12.2917 1.80797 12.3374C1.81214 12.3824 1.81165 12.4278 1.80651 12.4727Z" fill="#002E47" stroke="white" stroke-width="0.4"/>
<path d="M4.00355 7.19756H14.9997C15.4413 7.19756 15.7993 7.55558 15.7993 7.99721C15.7993 8.43884 15.4413 8.79686 14.9997 8.79686H4.00355C3.56192 8.79686 3.20391 8.43884 3.20391 7.99721C3.20391 7.55558 3.56192 7.19756 4.00355 7.19756Z" fill="#002E47" stroke="white" stroke-width="0.4"/>
<path d="M4.00355 11.6961H10.5013C10.9429 11.6961 11.3009 12.0541 11.3009 12.4957C11.3009 12.9374 10.9429 13.2954 10.5013 13.2954H4.00355C3.56192 13.2954 3.20391 12.9374 3.20391 12.4957C3.20391 12.0541 3.56192 11.6961 4.00355 11.6961Z" fill="#002E47" stroke="white" stroke-width="0.4"/>
</g>
<defs>
<clipPath id="clip0_975_2309">
<rect width="16" height="16" fill="white"/>
</clipPath>
</defs>
</svg>
