<svg width="100" height="100" viewBox="0 0 100 100" fill="none" xmlns="http://www.w3.org/2000/svg">
<g clip-path="url(#clip0_741_57805)">
<path fill-rule="evenodd" clip-rule="evenodd" d="M46.6295 52.9961L41.1659 47.7346C40.8917 47.4543 40.564 47.232 40.2023 47.0806C39.8406 46.9293 39.4522 46.8522 39.0601 46.8537C38.668 46.8553 38.2802 46.9355 37.9197 47.0897C37.5592 47.2438 37.2333 47.4688 36.9614 47.7512C36.6894 48.0337 36.4769 48.3678 36.3364 48.7339C36.196 49.0999 36.1304 49.4905 36.1437 49.8823C36.1569 50.2742 36.2487 50.6594 36.4135 51.0151C36.5784 51.3709 36.813 51.6899 37.1034 51.9533L44.6342 59.2071C45.1858 59.7413 45.9254 60.0369 46.6932 60.0302C47.4611 60.0235 48.1954 59.7149 48.7375 59.1711L62.9405 44.9684C63.4899 44.4189 63.7986 43.6737 63.7986 42.8966C63.7986 42.1195 63.4899 41.3743 62.9405 40.8248C62.391 40.2754 61.6458 39.9667 60.8687 39.9667C60.0916 39.9667 59.3464 40.2754 58.7969 40.8248L46.6301 52.9961H46.6295ZM50.2022 0.00158691C51.9263 0.0492189 53.5669 0.755073 54.787 1.97424L60.7875 7.97932C60.8943 8.10056 61.0344 8.1877 61.1903 8.22986C61.3463 8.27203 61.5112 8.26736 61.6645 8.21643L69.8676 6.01936C71.6009 5.55578 73.4473 5.79921 75.0011 6.69616C76.555 7.59311 77.6893 9.07021 78.1547 10.803L80.352 19.0061C80.3846 19.1635 80.4626 19.308 80.5763 19.4217C80.6899 19.5353 80.8344 19.6133 80.9918 19.6459L89.1985 21.8432C90.93 22.3107 92.4056 23.4453 93.3022 24.9986C94.1988 26.5518 94.4433 28.3971 93.9821 30.1303L91.7805 38.3334C91.7314 38.4869 91.7277 38.6513 91.7697 38.8069C91.8118 38.9624 91.8979 39.1025 92.0176 39.2104L98.0219 45.2151C99.2898 46.4841 100.002 48.2047 100.002 49.9986C100.002 51.7924 99.2898 53.513 98.0219 54.7821L92.0168 60.7871C91.8971 60.895 91.811 61.0352 91.769 61.1908C91.7269 61.3463 91.7306 61.5108 91.7797 61.6643L93.9813 69.8674C94.4425 71.6006 94.198 73.4459 93.3014 74.9992C92.4048 76.5525 90.9292 77.6872 89.1977 78.1547L80.9911 80.3518C80.8336 80.3844 80.6892 80.4624 80.5755 80.576C80.4618 80.6897 80.3838 80.8342 80.3512 80.9916L78.154 89.1948C77.6885 90.9275 76.5542 92.4046 75.0003 93.3015C73.4464 94.1984 71.6001 94.4418 69.8668 93.9781L61.6637 91.7811C61.5104 91.7302 61.3455 91.7255 61.1895 91.7676C61.0336 91.8098 60.8935 91.8969 60.7868 92.0182L54.7862 98.0209C53.5155 99.2876 51.7946 99.9988 50.0004 99.9988C48.2063 99.9988 46.4853 99.2876 45.2147 98.0209L39.2104 92.0158C39.1041 91.8953 38.9647 91.8086 38.8096 91.7665C38.6545 91.7243 38.4904 91.7286 38.3377 91.7787L30.1332 93.9758C28.4001 94.4393 26.5538 94.1958 25 93.2989C23.4463 92.402 22.312 90.925 21.8465 89.1924L19.6491 80.9893C19.6164 80.8317 19.5383 80.6871 19.4245 80.5734C19.3106 80.4597 19.1659 80.3818 19.0082 80.3494L10.8051 78.1524C9.07316 77.6855 7.59695 76.551 6.69998 74.9976C5.80302 73.4441 5.55849 71.5985 6.01996 69.8651L8.21899 61.6629C8.26992 61.5096 8.27467 61.3448 8.23265 61.1888C8.19063 61.0329 8.1037 60.8927 7.98266 60.7858L1.97914 54.7815C0.71181 53.5121 0 51.7917 0 49.998C0 48.2043 0.71181 46.4838 1.97914 45.2145L7.985 39.2094C8.10537 39.102 8.1917 38.9618 8.23335 38.806C8.27499 38.6502 8.27014 38.4855 8.21938 38.3324L6.02035 30.1293C5.55894 28.3959 5.8035 26.5503 6.70046 24.9969C7.59741 23.4436 9.0736 22.3091 10.8055 21.8422L19.0086 19.6449C19.1663 19.6125 19.311 19.5347 19.4248 19.421C19.5387 19.3073 19.6168 19.1627 19.6495 19.0051L21.8469 10.803C22.3127 9.07047 23.4469 7.59364 25.0006 6.69674C26.5543 5.79985 28.4005 5.55622 30.1336 6.01936L38.3381 8.21643C38.4908 8.26734 38.655 8.272 38.8103 8.22981C38.9656 8.18762 39.1049 8.10047 39.2108 7.97932L45.2159 1.97502C46.4357 0.755671 48.076 0.0495365 49.8 0.00158691H50.2022ZM49.9989 71.7946C45.6879 71.7946 41.4737 70.5162 37.8892 68.1211C34.3047 65.7261 31.5109 62.3218 29.8612 58.339C28.2114 54.3561 27.7798 49.9735 28.6208 45.7453C29.4619 41.5171 31.5378 37.6333 34.5862 34.585C37.6345 31.5366 41.5183 29.4607 45.7465 28.6196C49.9747 27.7786 54.3573 28.2102 58.3402 29.86C62.323 31.5097 65.7272 34.3035 68.1223 37.888C70.5174 41.4725 71.7957 45.6867 71.7957 49.9977C71.7898 55.7767 69.4914 61.3174 65.405 65.4038C61.3186 69.4902 55.7779 71.7886 49.9989 71.7946Z" fill="#39B4EF"/>
</g>
<defs>
<clipPath id="clip0_741_57805">
<rect width="100" height="100" fill="white"/>
</clipPath>
</defs>
</svg>
