<svg width="26" height="26" viewBox="0 0 26 26" fill="none" xmlns="http://www.w3.org/2000/svg">
<mask id="path-1-outside-1_531_43111" maskUnits="userSpaceOnUse" x="0" y="0" width="26" height="26" fill="black">
<rect fill="white" width="26" height="26"/>
<path d="M24.9999 12.9993C24.9999 12.4288 24.6974 11.9089 24.1892 11.6074L22.8528 10.8212C23.3677 10.5155 23.8264 10.2428 24.1903 10.0263C24.6974 9.72371 24.9999 9.20381 24.9999 8.63543C24.9999 8.06705 24.6974 7.54715 24.1903 7.24401C22.5198 6.25054 16.8554 2.88439 14.0632 1.28367C13.4165 0.912369 12.6303 0.897489 11.9314 1.28689C11.9314 1.28689 4.33767 5.7472 1.81066 7.24355C1.30257 7.545 1 8.0649 1 8.63543C1 9.20381 1.30257 9.72371 1.80964 10.0269C2.17348 10.2432 2.63217 10.5158 3.14685 10.8214L1.81071 11.6074C1.30257 11.9089 1 12.4288 1 12.9993C1 13.5677 1.30257 14.0876 1.80964 14.3907C2.17348 14.6071 2.63217 14.8797 3.14685 15.1852L1.81071 15.9712C1.30257 16.2727 1 16.7926 1 17.3632C1 17.9315 1.30257 18.4515 1.80964 18.7546C3.97122 20.0399 9.28408 23.1941 11.9368 24.7149C12.2617 24.9014 12.6303 24.9999 13 24.9999C13.3697 24.9999 13.7383 24.9014 14.0643 24.7144C16.7159 23.194 22.0288 20.0399 24.1904 18.754C24.6975 18.4515 25 17.9315 25 17.3632C25 16.7926 24.6974 16.2727 24.1893 15.9712L22.8529 15.185C23.3677 14.8793 23.8265 14.6067 24.1904 14.3902C24.6974 14.0876 24.9999 13.5677 24.9999 12.9993ZM2.3679 9.0907C2.2848 9.04064 2.09089 8.89679 2.09089 8.63635C2.09089 8.37479 2.28373 8.23207 2.36682 8.18303C4.8906 6.68837 12.4737 2.2347 12.4726 2.23521C12.8199 2.03972 13.1992 2.04719 13.5209 2.23148C16.3057 3.8279 21.9648 7.19012 23.6321 8.18196C23.7151 8.23202 23.9091 8.37586 23.9091 8.6363C23.9091 8.89674 23.7151 9.04058 23.6321 9.09014C21.4737 10.3739 16.1672 13.5246 13.522 15.0406C13.1939 15.2281 12.805 15.2276 12.479 15.0411C9.83272 13.5246 4.52626 10.3739 2.3679 9.0907ZM23.6331 16.9103C23.7162 16.9592 23.9091 17.102 23.9091 17.3636C23.9091 17.6241 23.7151 17.7679 23.6321 17.8174C21.4737 19.1011 16.1672 22.2519 13.522 23.7679C13.1939 23.9554 12.805 23.9548 12.479 23.7684C9.83272 22.2519 4.52626 19.1011 2.3679 17.8179C2.2848 17.7679 2.09089 17.624 2.09089 17.3636C2.09089 17.102 2.28373 16.9593 2.36682 16.9103L4.2179 15.821C6.7199 17.304 10.0203 19.2526 11.9368 20.3513C12.2617 20.5377 12.6303 20.6362 13 20.6362C13.3697 20.6362 13.7383 20.5377 14.0643 20.3508C15.9799 19.2524 19.28 17.3042 21.7819 15.821L23.6331 16.9103ZM23.6321 13.4538C21.4737 14.7375 16.1672 17.8883 13.522 19.4043C13.1939 19.5918 12.805 19.5912 12.479 19.4048C9.83272 17.8882 4.52626 14.7375 2.3679 13.4543C2.2848 13.4042 2.09089 13.2604 2.09089 13C2.09089 12.7384 2.28373 12.5957 2.36682 12.5466L4.2179 11.4574C6.7199 12.9404 10.0203 14.889 11.9368 15.9877C12.2617 16.1741 12.6303 16.2726 13 16.2726C13.3697 16.2726 13.7383 16.1741 14.0643 15.9871C15.9799 14.8888 19.28 12.9405 21.7819 11.4573L23.6332 12.5466C23.7163 12.5956 23.9091 12.7384 23.9091 13C23.9091 13.2604 23.7151 13.4042 23.6321 13.4538Z"/>
</mask>
<path d="M24.9999 12.9993C24.9999 12.4288 24.6974 11.9089 24.1892 11.6074L22.8528 10.8212C23.3677 10.5155 23.8264 10.2428 24.1903 10.0263C24.6974 9.72371 24.9999 9.20381 24.9999 8.63543C24.9999 8.06705 24.6974 7.54715 24.1903 7.24401C22.5198 6.25054 16.8554 2.88439 14.0632 1.28367C13.4165 0.912369 12.6303 0.897489 11.9314 1.28689C11.9314 1.28689 4.33767 5.7472 1.81066 7.24355C1.30257 7.545 1 8.0649 1 8.63543C1 9.20381 1.30257 9.72371 1.80964 10.0269C2.17348 10.2432 2.63217 10.5158 3.14685 10.8214L1.81071 11.6074C1.30257 11.9089 1 12.4288 1 12.9993C1 13.5677 1.30257 14.0876 1.80964 14.3907C2.17348 14.6071 2.63217 14.8797 3.14685 15.1852L1.81071 15.9712C1.30257 16.2727 1 16.7926 1 17.3632C1 17.9315 1.30257 18.4515 1.80964 18.7546C3.97122 20.0399 9.28408 23.1941 11.9368 24.7149C12.2617 24.9014 12.6303 24.9999 13 24.9999C13.3697 24.9999 13.7383 24.9014 14.0643 24.7144C16.7159 23.194 22.0288 20.0399 24.1904 18.754C24.6975 18.4515 25 17.9315 25 17.3632C25 16.7926 24.6974 16.2727 24.1893 15.9712L22.8529 15.185C23.3677 14.8793 23.8265 14.6067 24.1904 14.3902C24.6974 14.0876 24.9999 13.5677 24.9999 12.9993ZM2.3679 9.0907C2.2848 9.04064 2.09089 8.89679 2.09089 8.63635C2.09089 8.37479 2.28373 8.23207 2.36682 8.18303C4.8906 6.68837 12.4737 2.2347 12.4726 2.23521C12.8199 2.03972 13.1992 2.04719 13.5209 2.23148C16.3057 3.8279 21.9648 7.19012 23.6321 8.18196C23.7151 8.23202 23.9091 8.37586 23.9091 8.6363C23.9091 8.89674 23.7151 9.04058 23.6321 9.09014C21.4737 10.3739 16.1672 13.5246 13.522 15.0406C13.1939 15.2281 12.805 15.2276 12.479 15.0411C9.83272 13.5246 4.52626 10.3739 2.3679 9.0907ZM23.6331 16.9103C23.7162 16.9592 23.9091 17.102 23.9091 17.3636C23.9091 17.6241 23.7151 17.7679 23.6321 17.8174C21.4737 19.1011 16.1672 22.2519 13.522 23.7679C13.1939 23.9554 12.805 23.9548 12.479 23.7684C9.83272 22.2519 4.52626 19.1011 2.3679 17.8179C2.2848 17.7679 2.09089 17.624 2.09089 17.3636C2.09089 17.102 2.28373 16.9593 2.36682 16.9103L4.2179 15.821C6.7199 17.304 10.0203 19.2526 11.9368 20.3513C12.2617 20.5377 12.6303 20.6362 13 20.6362C13.3697 20.6362 13.7383 20.5377 14.0643 20.3508C15.9799 19.2524 19.28 17.3042 21.7819 15.821L23.6331 16.9103ZM23.6321 13.4538C21.4737 14.7375 16.1672 17.8883 13.522 19.4043C13.1939 19.5918 12.805 19.5912 12.479 19.4048C9.83272 17.8882 4.52626 14.7375 2.3679 13.4543C2.2848 13.4042 2.09089 13.2604 2.09089 13C2.09089 12.7384 2.28373 12.5957 2.36682 12.5466L4.2179 11.4574C6.7199 12.9404 10.0203 14.889 11.9368 15.9877C12.2617 16.1741 12.6303 16.2726 13 16.2726C13.3697 16.2726 13.7383 16.1741 14.0643 15.9871C15.9799 14.8888 19.28 12.9405 21.7819 11.4573L23.6332 12.5466C23.7163 12.5956 23.9091 12.7384 23.9091 13C23.9091 13.2604 23.7151 13.4042 23.6321 13.4538Z" fill="#39B4EF"/>
<path d="M24.9999 12.9993C24.9999 12.4288 24.6974 11.9089 24.1892 11.6074L22.8528 10.8212C23.3677 10.5155 23.8264 10.2428 24.1903 10.0263C24.6974 9.72371 24.9999 9.20381 24.9999 8.63543C24.9999 8.06705 24.6974 7.54715 24.1903 7.24401C22.5198 6.25054 16.8554 2.88439 14.0632 1.28367C13.4165 0.912369 12.6303 0.897489 11.9314 1.28689C11.9314 1.28689 4.33767 5.7472 1.81066 7.24355C1.30257 7.545 1 8.0649 1 8.63543C1 9.20381 1.30257 9.72371 1.80964 10.0269C2.17348 10.2432 2.63217 10.5158 3.14685 10.8214L1.81071 11.6074C1.30257 11.9089 1 12.4288 1 12.9993C1 13.5677 1.30257 14.0876 1.80964 14.3907C2.17348 14.6071 2.63217 14.8797 3.14685 15.1852L1.81071 15.9712C1.30257 16.2727 1 16.7926 1 17.3632C1 17.9315 1.30257 18.4515 1.80964 18.7546C3.97122 20.0399 9.28408 23.1941 11.9368 24.7149C12.2617 24.9014 12.6303 24.9999 13 24.9999C13.3697 24.9999 13.7383 24.9014 14.0643 24.7144C16.7159 23.194 22.0288 20.0399 24.1904 18.754C24.6975 18.4515 25 17.9315 25 17.3632C25 16.7926 24.6974 16.2727 24.1893 15.9712L22.8529 15.185C23.3677 14.8793 23.8265 14.6067 24.1904 14.3902C24.6974 14.0876 24.9999 13.5677 24.9999 12.9993ZM2.3679 9.0907C2.2848 9.04064 2.09089 8.89679 2.09089 8.63635C2.09089 8.37479 2.28373 8.23207 2.36682 8.18303C4.8906 6.68837 12.4737 2.2347 12.4726 2.23521C12.8199 2.03972 13.1992 2.04719 13.5209 2.23148C16.3057 3.8279 21.9648 7.19012 23.6321 8.18196C23.7151 8.23202 23.9091 8.37586 23.9091 8.6363C23.9091 8.89674 23.7151 9.04058 23.6321 9.09014C21.4737 10.3739 16.1672 13.5246 13.522 15.0406C13.1939 15.2281 12.805 15.2276 12.479 15.0411C9.83272 13.5246 4.52626 10.3739 2.3679 9.0907ZM23.6331 16.9103C23.7162 16.9592 23.9091 17.102 23.9091 17.3636C23.9091 17.6241 23.7151 17.7679 23.6321 17.8174C21.4737 19.1011 16.1672 22.2519 13.522 23.7679C13.1939 23.9554 12.805 23.9548 12.479 23.7684C9.83272 22.2519 4.52626 19.1011 2.3679 17.8179C2.2848 17.7679 2.09089 17.624 2.09089 17.3636C2.09089 17.102 2.28373 16.9593 2.36682 16.9103L4.2179 15.821C6.7199 17.304 10.0203 19.2526 11.9368 20.3513C12.2617 20.5377 12.6303 20.6362 13 20.6362C13.3697 20.6362 13.7383 20.5377 14.0643 20.3508C15.9799 19.2524 19.28 17.3042 21.7819 15.821L23.6331 16.9103ZM23.6321 13.4538C21.4737 14.7375 16.1672 17.8883 13.522 19.4043C13.1939 19.5918 12.805 19.5912 12.479 19.4048C9.83272 17.8882 4.52626 14.7375 2.3679 13.4543C2.2848 13.4042 2.09089 13.2604 2.09089 13C2.09089 12.7384 2.28373 12.5957 2.36682 12.5466L4.2179 11.4574C6.7199 12.9404 10.0203 14.889 11.9368 15.9877C12.2617 16.1741 12.6303 16.2726 13 16.2726C13.3697 16.2726 13.7383 16.1741 14.0643 15.9871C15.9799 14.8888 19.28 12.9405 21.7819 11.4573L23.6332 12.5466C23.7163 12.5956 23.9091 12.7384 23.9091 13C23.9091 13.2604 23.7151 13.4042 23.6321 13.4538Z" stroke="#39B4EF" stroke-width="0.6" mask="url(#path-1-outside-1_531_43111)"/>
</svg>
