<svg width="30" height="31" viewBox="0 0 30 31" fill="none" xmlns="http://www.w3.org/2000/svg">
<g clip-path="url(#clip0_652_49057)">
<path d="M29.0397 20.8891C28.3551 20.5576 27.6129 20.3615 26.8539 20.3115C27.185 19.4929 27.3651 18.6211 27.3856 17.7383C27.5398 13.0942 23.8607 9.72358 22.2951 8.27948L22.131 8.13178C21.9046 7.92173 21.6978 7.71496 21.5041 7.50819C21.704 7.33991 21.8646 7.12987 21.9746 6.89285C22.0846 6.65584 22.1414 6.3976 22.1409 6.1363V6.10348C22.1396 5.74267 22.0301 5.39055 21.8265 5.09271C21.6228 4.79486 21.3345 4.56501 20.9987 4.43291C21.3747 3.38411 21.6377 2.29816 21.7831 1.19353C21.8059 1.00512 21.7752 0.814102 21.6945 0.642338C21.6137 0.470573 21.4863 0.324997 21.3267 0.222268C21.1672 0.119538 20.9819 0.0638036 20.7921 0.0614419C20.6024 0.0590803 20.4158 0.110187 20.2537 0.208913C19.7509 0.487397 19.2134 0.69818 18.6553 0.835785C18.1173 0.975756 17.5524 0.975756 17.0143 0.835785C16.4526 0.698154 15.9118 0.486235 15.4061 0.205631C15.243 0.107148 15.0555 0.0567437 14.865 0.0602277C14.6745 0.0637118 14.4889 0.120942 14.3296 0.225324C14.1712 0.326334 14.045 0.470546 13.9659 0.640939C13.8868 0.811331 13.8581 1.00079 13.8832 1.18696C14.0308 2.29579 14.2948 3.38598 14.6709 4.43948C14.3343 4.57067 14.045 4.80021 13.8407 5.09818C13.6364 5.39616 13.5265 5.74875 13.5255 6.11004V6.14286C13.5254 6.43453 13.5965 6.72181 13.7326 6.97976C13.8687 7.23771 14.0658 7.45854 14.3066 7.62307C14.1589 7.7806 13.9784 7.95127 13.788 8.13178L13.6305 8.27948C12.0453 9.72358 8.38578 13.091 8.53676 17.7351C8.53676 17.9779 8.5663 18.211 8.59255 18.444H6.03583V17.3904C6.03583 17.2164 5.96668 17.0494 5.84358 16.9263C5.72048 16.8032 5.55352 16.734 5.37942 16.734H0.71891C0.54482 16.734 0.377859 16.8032 0.254758 16.9263C0.131657 17.0494 0.0625 17.2164 0.0625 17.3904V28.5822C0.0625 28.7563 0.131657 28.9233 0.254758 29.0464C0.377859 29.1695 0.54482 29.2387 0.71891 29.2387H5.37942C5.55352 29.2387 5.72048 29.1695 5.84358 29.0464C5.96668 28.9233 6.03583 28.7563 6.03583 28.5822V27.7289L13.1841 30.6138C13.7365 30.8216 14.3205 30.9326 14.9105 30.942C16.2233 30.942 17.372 30.3742 18.7144 29.7047L18.8654 29.6292H18.8982L29.0726 23.7839C29.3375 23.645 29.5586 23.4352 29.711 23.1778C29.8635 22.9205 29.9413 22.6257 29.9357 22.3267C29.938 22.0268 29.855 21.7324 29.6964 21.4779C29.5377 21.2233 29.31 21.0192 29.0397 20.8891ZM15.5308 6.63845H15.3273C15.1991 6.63845 15.076 6.58773 14.985 6.49734C14.894 6.40696 14.8424 6.28425 14.8416 6.15599V6.12317C14.8403 6.05856 14.8519 5.99433 14.8757 5.93426C14.8995 5.87418 14.9351 5.81947 14.9803 5.77331C15.0256 5.72716 15.0796 5.6905 15.1391 5.66547C15.1987 5.64045 15.2627 5.62757 15.3273 5.62758H20.3456C20.4735 5.62758 20.5963 5.67841 20.6867 5.76889C20.7772 5.85937 20.828 5.98208 20.828 6.11004V6.14286C20.8298 6.20731 20.8186 6.27147 20.7952 6.33153C20.7717 6.39158 20.7364 6.44633 20.6915 6.49253C20.6465 6.53873 20.5927 6.57545 20.5333 6.60051C20.4739 6.62557 20.4101 6.63847 20.3456 6.63845H15.5308ZM16.6664 2.11578C17.4298 2.31933 18.2332 2.31933 18.9967 2.11578C19.475 1.99022 19.9425 1.82669 20.3948 1.62676C20.222 2.54199 19.9727 3.44113 19.6498 4.31476H16.0067C15.6861 3.44065 15.438 2.54161 15.265 1.62676C15.7186 1.82615 16.1872 1.98966 16.6664 2.11578ZM14.5167 9.26409L14.6775 9.1164C15.0746 8.75504 15.4454 8.36567 15.7868 7.95127H20.1355C20.4755 8.35975 20.8428 8.74464 21.235 9.10327L21.4024 9.25425C22.8367 10.5671 26.2008 13.6522 26.0662 17.6924C26.0569 18.6428 25.8074 19.5753 25.3409 20.4034C24.8375 20.5091 24.3491 20.6766 23.8869 20.9022L20.3489 22.6056C20.2539 22.0897 19.9827 21.6227 19.5816 21.2845C19.1805 20.9463 18.6745 20.7578 18.1499 20.7513H14.3427C13.1625 19.536 11.6098 18.7504 9.93163 18.5195C9.88709 18.2458 9.85968 17.9695 9.84958 17.6924C9.7183 13.6522 13.0791 10.5769 14.5167 9.26409ZM1.38845 27.939V18.0469H4.73614V27.9258L1.38845 27.939ZM28.4555 22.5991L18.2812 28.4477L18.1499 28.5133C16.3546 29.4093 15.2682 29.9509 13.6699 29.3863L6.03583 26.3308V19.7667H8.87153C9.75517 19.767 10.6287 19.9543 11.4348 20.3163C12.2409 20.6784 12.9612 21.2069 13.5485 21.8672C13.6099 21.9362 13.6852 21.9914 13.7695 22.0293C13.8538 22.0672 13.9451 22.0869 14.0375 22.0871H18.1499C18.3685 22.0903 18.579 22.1704 18.7446 22.3132C18.9102 22.456 19.0203 22.6524 19.0557 22.8682C19.0617 23.0496 19.0087 23.2281 18.9048 23.3769C18.9048 23.3769 18.9048 23.3769 18.8851 23.4032C18.8063 23.5026 18.7067 23.5835 18.5933 23.6402C18.4799 23.6969 18.3554 23.728 18.2287 23.7314H10.8867C10.7126 23.7314 10.5457 23.8005 10.4226 23.9236C10.2995 24.0467 10.2303 24.2137 10.2303 24.3878C10.2303 24.5619 10.2995 24.7288 10.4226 24.8519C10.5457 24.975 10.7126 25.0442 10.8867 25.0442H18.2221C18.5037 25.0451 18.7828 24.9902 19.043 24.8826C19.3033 24.775 19.5397 24.6169 19.7384 24.4173C19.7811 24.3747 19.8237 24.3287 19.8631 24.2828L24.458 22.0707C24.871 21.861 25.3138 21.716 25.7708 21.6407C26.6879 21.5079 27.6238 21.6555 28.4555 22.0641C28.5021 22.0852 28.5415 22.1194 28.5689 22.1625C28.5963 22.2057 28.6105 22.2559 28.6098 22.307C28.6144 22.3653 28.6024 22.4237 28.575 22.4754C28.5477 22.5271 28.5063 22.57 28.4555 22.5991Z" fill="#002E47"/>
<path d="M18.9389 17.256H17.4292C17.3802 17.2564 17.3316 17.2471 17.2862 17.2287C17.2409 17.2102 17.1996 17.183 17.1648 17.1485C17.13 17.114 17.1024 17.073 17.0835 17.0278C17.0647 16.9826 17.055 16.9341 17.055 16.8851C17.055 16.711 16.9859 16.5441 16.8628 16.421C16.7396 16.2979 16.5727 16.2287 16.3986 16.2287C16.2245 16.2287 16.0575 16.2979 15.9344 16.421C15.8113 16.5441 15.7422 16.711 15.7422 16.8851C15.7431 17.3319 15.9212 17.7602 16.2374 18.0759C16.5537 18.3915 16.9823 18.5688 17.4292 18.5688H17.5276V19.0611C17.5276 19.2352 17.5968 19.4022 17.7199 19.5253C17.843 19.6484 18.0099 19.7175 18.184 19.7175C18.3581 19.7175 18.5251 19.6484 18.6482 19.5253C18.7713 19.4022 18.8404 19.2352 18.8404 19.0611V18.5688H18.9389C19.16 18.5688 19.379 18.5252 19.5832 18.4406C19.7875 18.356 19.9731 18.232 20.1295 18.0757C20.2858 17.9193 20.4098 17.7337 20.4944 17.5294C20.579 17.3252 20.6226 17.1062 20.6226 16.8851V15.7955C20.6217 15.3492 20.4441 14.9214 20.1285 14.6059C19.8129 14.2903 19.3852 14.1126 18.9389 14.1118H17.4292C17.3802 14.1122 17.3316 14.1029 17.2862 14.0845C17.2409 14.066 17.1996 14.0388 17.1648 14.0043C17.13 13.9698 17.1024 13.9288 17.0835 13.8836C17.0647 13.8384 17.055 13.7899 17.055 13.7409V12.6513C17.0559 12.5526 17.0957 12.4583 17.1657 12.3888C17.2358 12.3194 17.3305 12.2804 17.4292 12.2804H18.9389C19.037 12.2812 19.1308 12.3206 19.2002 12.39C19.2696 12.4593 19.3089 12.5532 19.3098 12.6513C19.3098 12.8253 19.3789 12.9923 19.502 13.1154C19.6251 13.2385 19.7921 13.3077 19.9662 13.3077C20.1403 13.3077 20.3072 13.2385 20.4303 13.1154C20.5534 12.9923 20.6226 12.8253 20.6226 12.6513C20.6226 12.4302 20.579 12.2112 20.4944 12.0069C20.4098 11.8027 20.2858 11.6171 20.1295 11.4607C19.9731 11.3044 19.7875 11.1803 19.5832 11.0957C19.379 11.0111 19.16 10.9676 18.9389 10.9676H18.8404V10.4753C18.8404 10.3012 18.7713 10.1342 18.6482 10.0111C18.5251 9.88801 18.3581 9.81885 18.184 9.81885C18.0099 9.81885 17.843 9.88801 17.7199 10.0111C17.5968 10.1342 17.5276 10.3012 17.5276 10.4753V10.9676H17.4292C16.9823 10.9676 16.5537 11.1448 16.2374 11.4605C15.9212 11.7762 15.7431 12.2044 15.7422 12.6513V13.7409C15.7431 14.1877 15.9212 14.616 16.2374 14.9316C16.5537 15.2473 16.9823 15.4246 17.4292 15.4246H18.9389C19.037 15.4254 19.1308 15.4648 19.2002 15.5342C19.2696 15.6035 19.3089 15.6974 19.3098 15.7955V16.8851C19.3098 16.9835 19.2707 17.0778 19.2012 17.1474C19.1316 17.2169 19.0373 17.256 18.9389 17.256Z" fill="#002E47"/>
</g>
<defs>
<clipPath id="clip0_652_49057">
<rect width="30" height="30.8974" fill="white" transform="translate(0 0.0512695)"/>
</clipPath>
</defs>
</svg>
