<svg width="20" height="21" viewBox="0 0 20 21" fill="none" xmlns="http://www.w3.org/2000/svg">
<g clip-path="url(#clip0_630_46995)">
<mask id="mask0_630_46995" style="mask-type:luminance" maskUnits="userSpaceOnUse" x="0" y="0" width="20" height="21">
<path d="M0 0.500002H20V20.5H0V0.500002Z" fill="white"/>
</mask>
<g mask="url(#mask0_630_46995)">
<path d="M16.6567 1.09746V3.84324H13.911M3.34322 19.9025V17.1567H6.089M1.84816 15.2064C1.04684 13.8215 0.585938 12.215 0.585938 10.5C0.585938 5.30074 4.80074 1.08594 10 1.08594C12.5998 1.08594 14.9513 2.14141 16.6544 3.84562M18.1518 5.79352C18.9532 7.17844 19.414 8.78493 19.414 10.5C19.414 15.6992 15.1992 19.914 9.99996 19.914C7.40019 19.914 5.04859 18.8586 3.34559 17.1543M13.7109 10.5C13.7109 10.2444 13.685 9.99498 13.6358 9.75401L14.6454 9.17112L13.4736 7.14135L12.4598 7.72666C12.0889 7.39744 11.6529 7.14112 11.1719 6.98092V5.81248H8.8281V6.98092C8.34701 7.14112 7.91107 7.39744 7.54018 7.72666L6.52639 7.14135L5.35451 9.17112L6.36416 9.75401C6.31494 9.99498 6.28904 10.2444 6.28904 10.5C6.28904 10.7555 6.31494 11.005 6.36416 11.246L5.35451 11.8289L6.52639 13.8586L7.54018 13.2733C7.91107 13.6025 8.34701 13.8589 8.8281 14.019V15.1875H11.1719V14.019C11.6529 13.8589 12.0889 13.6025 12.4598 13.2733L13.4736 13.8586L14.6454 11.8289L13.6358 11.246C13.685 11.005 13.7109 10.7555 13.7109 10.5ZM11.5625 10.5C11.5625 11.3629 10.8629 12.0625 9.99998 12.0625C9.13701 12.0625 8.43748 11.3629 8.43748 10.5C8.43748 9.63705 9.13701 8.93748 9.99998 8.93748C10.8629 8.93748 11.5625 9.63705 11.5625 10.5Z" stroke="#002E47" stroke-width="1.2" stroke-miterlimit="10" stroke-linecap="round" stroke-linejoin="round"/>
</g>
</g>
<defs>
<clipPath id="clip0_630_46995">
<rect width="20" height="20" fill="white" transform="translate(0 0.5)"/>
</clipPath>
</defs>
</svg>
