<svg width="17" height="17" viewBox="0 0 17 17" fill="none" xmlns="http://www.w3.org/2000/svg">
<g clip-path="url(#clip0_626_43547)">
<path d="M15.583 9.20837C15.3951 9.20837 15.215 9.283 15.0821 9.41584C14.9493 9.54868 14.8747 9.72885 14.8747 9.91671V12.9009C14.8741 13.4243 14.6659 13.9261 14.2958 14.2962C13.9257 14.6663 13.4239 14.8745 12.9006 14.875H4.0988C3.5754 14.8745 3.0736 14.6663 2.7035 14.2962C2.33341 13.9261 2.12524 13.4243 2.12467 12.9009V9.91671C2.12467 9.72885 2.05005 9.54868 1.91721 9.41584C1.78437 9.283 1.6042 9.20837 1.41634 9.20837C1.22848 9.20837 1.04831 9.283 0.915474 9.41584C0.782636 9.54868 0.708008 9.72885 0.708008 9.91671V12.9009C0.708945 13.7999 1.06649 14.6618 1.70218 15.2975C2.33788 15.9332 3.19979 16.2908 4.0988 16.2917H12.9006C13.7996 16.2908 14.6615 15.9332 15.2972 15.2975C15.9329 14.6618 16.2904 13.7999 16.2913 12.9009V9.91671C16.2913 9.72885 16.2167 9.54868 16.0839 9.41584C15.951 9.283 15.7709 9.20837 15.583 9.20837Z" fill="white"/>
<path d="M4.7512 6.16747L7.79208 3.1266V12.0417C7.79208 12.2295 7.8667 12.4097 7.99954 12.5425C8.13238 12.6754 8.31255 12.75 8.50041 12.75C8.68827 12.75 8.86844 12.6754 9.00128 12.5425C9.13412 12.4097 9.20874 12.2295 9.20874 12.0417V3.1266L12.2496 6.16747C12.3832 6.2965 12.5621 6.36789 12.7479 6.36628C12.9336 6.36467 13.1112 6.29017 13.2426 6.15884C13.3739 6.02751 13.4484 5.84985 13.45 5.66413C13.4516 5.47841 13.3802 5.29948 13.2512 5.16589L9.0012 0.915887C8.86837 0.783095 8.68823 0.708496 8.50041 0.708496C8.31259 0.708496 8.13245 0.783095 7.99962 0.915887L3.74962 5.16589C3.62059 5.29948 3.54919 5.47841 3.55081 5.66413C3.55242 5.84985 3.62692 6.02751 3.75825 6.15884C3.88958 6.29017 4.06724 6.36467 4.25296 6.36628C4.43868 6.36789 4.61761 6.2965 4.7512 6.16747Z" fill="white"/>
</g>
<defs>
<clipPath id="clip0_626_43547">
<rect width="17" height="17" fill="white"/>
</clipPath>
</defs>
</svg>
