<svg width="22" height="22" viewBox="0 0 22 22" fill="none" xmlns="http://www.w3.org/2000/svg">
<g clip-path="url(#clip0_850_48359)">
<path d="M14.1759 0.12706C14.075 0.0208131 13.9367 -0.0429688 13.7933 -0.0429688H5.21114C3.62751 -0.0429688 2.32031 1.25902 2.32031 2.84249V19.0714C2.32031 20.6551 3.62751 21.9571 5.21114 21.9571H16.8594C18.443 21.9571 19.7502 20.6551 19.7502 19.0714V6.18499C19.7502 6.04686 19.6864 5.91409 19.5961 5.81305L14.1759 0.12706ZM14.3299 1.83289L17.9595 5.64302H15.6C14.8986 5.64302 14.3299 5.07972 14.3299 4.37829V1.83289ZM16.8594 20.8943H5.21114C4.21749 20.8943 3.38312 20.0706 3.38312 19.0714V2.84249C3.38312 1.84883 4.21212 1.01984 5.21114 1.01984H13.2671V4.37829C13.2671 5.66954 14.3088 6.70582 15.6 6.70582H18.6874V19.0714C18.6874 20.0706 17.8584 20.8943 16.8594 20.8943Z" fill="#002E47"/>
<path d="M15.4091 17.2276H6.66226C6.37004 17.2276 6.13086 17.4667 6.13086 17.759C6.13086 18.0513 6.37004 18.2905 6.66226 18.2905H15.4145C15.7067 18.2905 15.9459 18.0513 15.9459 17.759C15.9459 17.4667 15.7067 17.2276 15.4091 17.2276Z" fill="#002E47"/>
<path d="M8.31466 11.5098L10.5041 9.15555V14.9585C10.5041 15.2507 10.7432 15.4899 11.0355 15.4899C11.3278 15.4899 11.5669 15.2507 11.5669 14.9585V9.15555L13.7563 11.5098C13.8625 11.6212 14.0008 11.6798 14.1442 11.6798C14.2717 11.6798 14.4047 11.632 14.5055 11.5363C14.7182 11.3344 14.7341 10.9995 14.5322 10.787L11.4181 7.44452C11.3171 7.33827 11.179 7.27449 11.0303 7.27449C10.8814 7.27449 10.7432 7.33827 10.6424 7.44452L7.5283 10.787C7.32638 10.9995 7.34232 11.3396 7.55482 11.5363C7.77805 11.7382 8.11274 11.7223 8.31466 11.5098Z" fill="#002E47"/>
</g>
<defs>
<clipPath id="clip0_850_48359">
<rect width="22" height="22" fill="white"/>
</clipPath>
</defs>
</svg>
