<svg width="21" height="22" viewBox="0 0 21 22" fill="none" xmlns="http://www.w3.org/2000/svg">
<g clip-path="url(#clip0_564_29351)">
<path d="M3.88607 19.1054C3.69869 19.1054 3.54736 18.9539 3.54736 18.7666V17.1336C3.54736 16.9464 3.69869 16.7949 3.88607 16.7949C4.07329 16.7949 4.22478 16.9464 4.22478 17.1336V18.7666C4.22478 18.9535 4.07296 19.1054 3.88607 19.1054Z" fill="#39B4EF"/>
<path d="M11.0165 19.6035H0.338709C0.151327 19.6035 0 19.4522 0 19.2648V15.9475C0 12.892 1.87381 10.1584 4.66237 9.14588C4.77781 9.10355 4.90615 9.12769 4.99827 9.20724C5.76748 9.86597 6.73796 10.2292 7.73143 10.2292C8.72953 10.2292 9.70298 9.86399 10.4725 9.20046C10.5653 9.12091 10.6948 9.09676 10.8096 9.13877C11.5297 9.40074 12.2006 9.78179 12.8038 10.2718C12.8865 10.3385 12.933 10.4405 12.9288 10.5469C12.9252 10.6529 12.8719 10.7514 12.7849 10.8121L12.7439 10.8409L12.5577 10.5753L12.3771 10.7979C11.8829 10.3965 11.339 10.0763 10.7573 9.84397C9.89136 10.5307 8.82479 10.9069 7.73143 10.9069C6.64303 10.9069 5.5796 10.5333 4.7148 9.85109C2.29207 10.8168 0.677418 13.242 0.677418 15.9475V18.9261H11.0165V19.6035Z" fill="#39B4EF"/>
<path d="M7.73164 10.9065C4.97649 10.9065 2.73535 8.57212 2.73535 5.70335C2.73535 2.83441 4.97649 0.5 7.73164 0.5C10.4866 0.5 12.7283 2.83408 12.7283 5.70285C12.7283 8.57179 10.4866 10.9065 7.73164 10.9065ZM7.73164 1.17742C5.35009 1.17742 3.41277 3.20769 3.41277 5.70285C3.41277 8.19851 5.35009 10.2288 7.73164 10.2288C10.113 10.2288 12.0508 8.19851 12.0508 5.70285C12.0508 3.20769 10.113 1.17742 7.73164 1.17742Z" fill="#39B4EF"/>
<path d="M15.1081 17.9099C14.9668 17.9099 14.8249 17.8972 14.6837 17.871C14.0622 17.7556 13.5192 17.3972 13.1541 16.861C12.791 16.3262 12.6531 15.6853 12.7659 15.0573C12.8793 14.428 13.2319 13.8776 13.7587 13.507C14.2874 13.1356 14.9215 12.9956 15.5437 13.1098C16.1655 13.2254 16.7082 13.5839 17.0725 14.1201L17.0753 14.1239C17.4347 14.6678 17.5715 15.3074 17.4612 15.9234C17.3476 16.5524 16.9955 17.1028 16.4684 17.4734C16.0595 17.7605 15.588 17.9099 15.1081 17.9099ZM15.12 13.748C14.7778 13.748 14.4412 13.855 14.1485 14.0612C13.7685 14.3281 13.5144 14.7244 13.4332 15.1772C13.3519 15.6297 13.4521 16.0925 13.715 16.4803C13.9772 16.8656 14.3653 17.1228 14.8077 17.2052C15.248 17.2864 15.7002 17.1855 16.0789 16.9192C16.4589 16.6523 16.713 16.256 16.7942 15.8035C16.8737 15.3601 16.7732 14.8967 16.511 14.4988C16.2496 14.1145 15.8621 13.8576 15.42 13.7758C15.3198 13.7574 15.2199 13.748 15.12 13.748Z" fill="#39B4EF"/>
<path d="M15.1939 21.5C15.1509 21.5 15.1072 21.496 15.0639 21.4881L13.0786 21.1203C12.6994 21.0498 12.4561 20.6949 12.5249 20.3122L12.6834 19.4302C12.6614 19.4157 12.6404 19.4008 12.6208 19.3859L12.5954 19.3692L11.8627 19.8844C11.7302 19.9857 11.5453 20.0314 11.3659 20.0013C11.1805 19.971 11.014 19.8644 10.9083 19.7086L9.76415 18.0259C9.66426 17.8902 9.62159 17.7092 9.65169 17.527C9.68179 17.3431 9.78581 17.1767 9.93747 17.0703L10.6546 16.5528C10.6488 16.5251 10.644 16.4986 10.6397 16.474C10.6372 16.4614 10.6352 16.4485 10.6332 16.4353L9.76746 16.2748C9.59 16.2416 9.4304 16.1353 9.33018 15.9824C9.22731 15.8253 9.1944 15.6376 9.23674 15.4537L9.59645 13.452C9.63002 13.265 9.73124 13.1047 9.88223 13.0002C10.0324 12.8962 10.216 12.8578 10.3996 12.8917L11.2589 13.0513C11.2723 13.03 11.2862 13.0096 11.3001 12.9906L11.3214 12.9561L10.8104 12.2045C10.7108 12.0694 10.6681 11.8888 10.6976 11.7066C10.7277 11.5227 10.8317 11.3561 10.983 11.2493L12.6397 10.0848C12.7725 9.98392 12.9577 9.93926 13.1367 9.96804C13.3219 9.99814 13.4886 10.1048 13.5943 10.2606L14.1027 11.0081C14.1121 11.0058 14.1216 11.0032 14.1308 11.0007C14.1419 10.9974 14.1535 10.9946 14.1652 10.9926C14.1771 10.9903 14.1894 10.9881 14.2016 10.9865L14.3604 10.1028C14.3946 9.91512 14.4958 9.75535 14.647 9.65066C14.7967 9.54697 14.9799 9.50909 15.1638 9.54267L17.1395 9.90883C17.5189 9.97912 17.762 10.3342 17.6932 10.7169L17.5344 11.5989C17.5568 11.6135 17.5778 11.6283 17.5975 11.6432L17.6228 11.6599L18.3554 11.1448C18.4882 11.0437 18.6734 10.9987 18.8524 11.0278C19.0376 11.0579 19.2043 11.1646 19.31 11.3206L20.4452 13.0025C20.5441 13.1367 20.5868 13.3173 20.5574 13.4993C20.5273 13.6833 20.4232 13.85 20.2719 13.9566L19.5321 14.4763C19.5351 14.4898 19.5382 14.5031 19.5416 14.5155C19.5447 14.5264 19.5473 14.5371 19.549 14.5487C19.5515 14.5619 19.5538 14.5752 19.5558 14.5887L20.4212 14.7492C20.7681 14.8137 21.011 15.1347 20.9994 15.5117C20.9988 15.5283 20.9971 15.5448 20.994 15.5612L20.6313 17.5796C20.5974 17.7668 20.4962 17.927 20.3447 18.0317C20.1943 18.1353 20.0114 18.1723 19.8275 18.1394L18.9688 17.9798C18.9553 18.0011 18.9414 18.0215 18.9275 18.0405L18.9061 18.0747L19.4174 18.8266C19.5172 18.9625 19.5599 19.1433 19.5298 19.3255C19.4995 19.5094 19.3957 19.6758 19.2439 19.7822L17.5879 20.9463C17.4552 21.0475 17.2707 21.0928 17.091 21.0634C16.9061 21.033 16.7394 20.9266 16.6334 20.7712L16.1275 20.0266C16.1053 20.0311 16.0837 20.0352 16.0627 20.0392C16.0506 20.0412 16.0387 20.0436 16.0261 20.0453L15.8674 20.9286C15.8338 21.1157 15.7326 21.2758 15.5814 21.3804C15.4666 21.459 15.3328 21.5 15.1939 21.5ZM12.598 18.6145C12.681 18.6145 12.7637 18.6451 12.8284 18.705C12.863 18.7369 12.9027 18.7609 12.9422 18.787L13.0198 18.8385C13.0537 18.8636 13.1038 18.8977 13.202 18.9432C13.3419 19.0078 13.4208 19.1588 13.3934 19.3106L13.1919 20.4321L15.1875 20.8219L15.4023 19.6866C15.4259 19.5544 15.5248 19.4496 15.6553 19.4173C15.725 19.4005 15.7934 19.3912 15.8596 19.3831C15.8872 19.3794 15.9143 19.3763 15.9405 19.3717C15.9815 19.3641 16.081 19.3455 16.145 19.3201C16.2934 19.2609 16.4624 19.3126 16.5516 19.4438L17.1941 20.3891L18.8544 19.227L18.2138 18.2616C18.1265 18.1329 18.1376 17.9613 18.2416 17.8453C18.2732 17.8101 18.2969 17.7694 18.3227 17.7289L18.3734 17.6503C18.3981 17.6161 18.432 17.5642 18.4778 17.463C18.5415 17.3207 18.6921 17.2415 18.8486 17.2685L19.9514 17.4731L20.3217 15.4721C20.3185 15.4375 20.304 15.4168 20.2975 15.4155L19.1947 15.2109C19.0631 15.1864 18.9581 15.0865 18.9271 14.9559C18.9103 14.8858 18.9018 14.8173 18.8937 14.7516C18.8909 14.7275 18.8883 14.7035 18.8848 14.6809C18.8757 14.646 18.8676 14.6094 18.8602 14.5717C18.8521 14.5332 18.8453 14.4928 18.8314 14.4566C18.7742 14.3112 18.8243 14.146 18.9516 14.0559L19.8818 13.4023L18.7487 11.7001L17.8149 12.3529C17.6838 12.4447 17.507 12.4328 17.3897 12.3241C17.3553 12.2922 17.3156 12.2682 17.2759 12.2421L17.1984 12.1906C17.1645 12.1655 17.114 12.1309 17.0161 12.086C16.876 12.022 16.797 11.8701 16.8244 11.7185L17.0264 10.597L15.0404 10.2088L14.8258 11.3442C14.8021 11.4757 14.7035 11.5809 14.574 11.6131C14.5039 11.6303 14.4359 11.6396 14.3698 11.6477C14.3468 11.6507 14.3241 11.6535 14.3025 11.6568C14.2676 11.666 14.231 11.6745 14.1942 11.6823C14.1571 11.69 14.1186 11.6968 14.0847 11.7104C13.937 11.7717 13.767 11.7195 13.6768 11.5873L13.0343 10.642L11.374 11.8038L12.0145 12.7692C12.1022 12.8982 12.0906 13.0703 11.9861 13.1861C11.9548 13.221 11.9315 13.261 11.9061 13.3012L11.8549 13.3806C11.8303 13.4147 11.7964 13.4666 11.7506 13.5678C11.6869 13.71 11.5372 13.7893 11.3798 13.7623L10.2768 13.5577L9.90125 15.59L10.9949 15.8128C11.1264 15.8372 11.2311 15.9368 11.2625 16.0668C11.2794 16.1376 11.2883 16.2064 11.2964 16.2727C11.2998 16.3011 11.3032 16.3289 11.3075 16.3557C11.3146 16.3961 11.3327 16.4993 11.3588 16.5667C11.4154 16.7106 11.3669 16.8744 11.2415 16.9647L10.3308 17.6219L11.4691 19.3272L12.4037 18.6756C12.4622 18.6349 12.5304 18.6145 12.598 18.6145Z" fill="#39B4EF"/>
</g>
<defs>
<clipPath id="clip0_564_29351">
<rect width="21" height="21" fill="white" transform="translate(0 0.5)"/>
</clipPath>
</defs>
</svg>
