<svg width="90" height="90" viewBox="0 0 90 90" fill="none" xmlns="http://www.w3.org/2000/svg">
<path d="M22.5 0C19.4062 0 16.875 2.53125 16.875 5.625V84.375C16.875 87.4688 19.4062 90 22.5 90H78.75C81.8438 90 84.375 87.4688 84.375 84.375V22.5L61.875 0H22.5Z" fill="#E2EDFF"/>
<path d="M67.5 22.5H84.375L61.875 0V16.875C61.875 19.9688 64.4062 22.5 67.5 22.5Z" fill="#C9DAF5"/>
<path d="M84.375 39.375L67.5 22.5H84.375V39.375Z" fill="#E2EDFF"/>
<path d="M73.125 73.125C73.125 74.6719 71.8594 75.9375 70.3125 75.9375H8.4375C6.89062 75.9375 5.625 74.6719 5.625 73.125V45C5.625 43.4531 6.89062 42.1875 8.4375 42.1875H70.3125C71.8594 42.1875 73.125 43.4531 73.125 45V73.125Z" fill="#FFB618"/>
<path d="M28.8675 67.5C28.1475 67.0922 27.6975 66.285 28.1475 65.34L34.5993 52.7259C35.2068 51.5334 36.8268 51.4884 37.3893 52.7259L43.7287 65.34C44.6512 67.0922 41.9287 68.4872 41.1215 66.735L40.1287 64.755H31.8318L30.8643 66.735C30.5071 67.5 29.6746 67.6603 28.8675 67.5ZM38.534 61.7878L35.9943 56.2331L33.2296 61.7878H38.534Z" fill="white"/>
<path d="M46.4146 53.2884C46.4146 51.4434 49.3846 51.3759 49.3846 53.2884V66.1247C49.3846 67.9922 46.4146 68.0372 46.4146 66.1247V53.2884Z" fill="white"/>
<path d="M70.3125 75.9375H16.875V78.75H70.3125C71.8594 78.75 73.125 77.4844 73.125 75.9375V73.125C73.125 74.6719 71.8594 75.9375 70.3125 75.9375Z" fill="#E2EDFF"/>
</svg>
