<svg width="90" height="90" viewBox="0 0 90 90" fill="none" xmlns="http://www.w3.org/2000/svg">
<path d="M22.5 0C19.4062 0 16.875 2.53125 16.875 5.625V84.375C16.875 87.4688 19.4062 90 22.5 90H78.75C81.8438 90 84.375 87.4688 84.375 84.375V22.5L61.875 0H22.5Z" fill="#E2EDFF"/>
<path d="M67.5 22.5H84.375L61.875 0V16.875C61.875 19.9688 64.4062 22.5 67.5 22.5Z" fill="#C9DAF5"/>
<path d="M84.375 39.375L67.5 22.5H84.375V39.375Z" fill="#E2EDFF"/>
<path d="M73.125 73.125C73.125 74.6719 71.8594 75.9375 70.3125 75.9375H8.4375C6.89062 75.9375 5.625 74.6719 5.625 73.125V45C5.625 43.4531 6.89062 42.1875 8.4375 42.1875H70.3125C71.8594 42.1875 73.125 43.4531 73.125 45V73.125Z" fill="#39B4EF"/>
<path d="M16.2732 67.5C15.5307 67.5 14.7207 67.0922 14.7207 66.105V53.3334C14.7207 52.5234 15.5307 51.9384 16.2732 51.9384H21.4229C31.6998 51.9384 31.472 67.5 21.6226 67.5H16.2732ZM17.6907 54.6806V64.755H21.4229C27.4951 64.755 27.7623 54.6806 21.4229 54.6806H17.6907Z" fill="white"/>
<path d="M40.0783 67.725C35.9186 67.905 31.5986 65.1375 31.5986 59.6278C31.5986 54.0956 35.9158 51.3759 40.0783 51.3759C44.013 51.5756 48.1277 54.2981 48.1277 59.6278C48.1277 64.9603 44.013 67.725 40.0783 67.725ZM39.8308 54.3009C37.3108 54.3009 34.5686 56.0784 34.5686 59.6306C34.5686 63.1631 37.3136 64.9631 39.8308 64.9631C42.4183 64.9631 45.183 63.1631 45.183 59.6306C45.183 56.0756 42.4183 54.3009 39.8308 54.3009Z" fill="white"/>
<path d="M50.7742 59.6053C50.7742 55.2656 53.4967 51.5334 58.6689 51.5334C60.6264 51.5334 62.1789 52.1184 63.8185 53.5359C64.426 54.0956 64.4935 55.0856 63.886 55.7156C63.2785 56.2528 62.356 56.1881 61.816 55.6481C60.8964 54.6806 59.9514 54.4134 58.6689 54.4134C55.2067 54.4134 53.5445 56.8659 53.5445 59.6081C53.5445 62.3981 55.1842 64.9603 58.6689 64.9603C59.9514 64.9603 61.1439 64.44 62.1789 63.5203C62.8735 62.9803 63.841 63.2475 64.246 63.7903C64.606 64.2853 64.7832 65.1178 63.9985 65.9025C62.4235 67.3678 60.5364 67.6603 58.666 67.6603C53.2267 67.6603 50.7742 63.945 50.7742 59.6053Z" fill="white"/>
<path d="M70.3125 75.9375H16.875V78.75H70.3125C71.8594 78.75 73.125 77.4844 73.125 75.9375V73.125C73.125 74.6719 71.8594 75.9375 70.3125 75.9375Z" fill="#E2EDFF"/>
</svg>
