<svg width="90" height="90" viewBox="0 0 90 90" fill="none" xmlns="http://www.w3.org/2000/svg">
<path d="M18.2812 0C15.1748 0 12.6562 2.51859 12.6562 5.625V84.375C12.6562 87.4814 15.1748 90 18.2812 90H71.7188C74.8252 90 77.3438 87.4814 77.3438 84.375V22.5L54.8438 0H18.2812Z" fill="#E2EDFF"/>
<path d="M60.4688 22.5H77.3438L54.8438 0V16.875C54.8438 19.9814 57.3623 22.5 60.4688 22.5Z" fill="#C9DAF5"/>
<path d="M33.75 28.125H56.25C57.0263 28.125 57.6562 28.755 57.6562 29.5312C57.6562 30.3075 57.0263 30.9375 56.25 30.9375H33.75C32.9737 30.9375 32.3438 30.3075 32.3438 29.5312C32.3438 28.755 32.9737 28.125 33.75 28.125Z" fill="#C9DAF5"/>
<path d="M25.3125 57.6562H64.6875C65.4637 57.6562 66.0938 58.2862 66.0938 59.0625C66.0938 59.8387 65.4637 60.4688 64.6875 60.4688H25.3125C24.5362 60.4688 23.9062 59.8387 23.9062 59.0625C23.9062 58.2862 24.5362 57.6562 25.3125 57.6562Z" fill="#C9DAF5"/>
<path d="M25.3125 74.5312H47.8125C48.5888 74.5312 49.2188 75.1612 49.2188 75.9375C49.2188 76.7137 48.5888 77.3438 47.8125 77.3438H25.3125C24.5362 77.3438 23.9062 76.7137 23.9062 75.9375C23.9062 75.1612 24.5362 74.5312 25.3125 74.5312Z" fill="#C9DAF5"/>
<path d="M25.3125 66.0938H64.6875C65.4637 66.0938 66.0938 66.7237 66.0938 67.5C66.0938 68.2762 65.4637 68.9062 64.6875 68.9062H25.3125C24.5362 68.9062 23.9062 68.2762 23.9062 67.5C23.9062 66.7237 24.5362 66.0938 25.3125 66.0938Z" fill="#C9DAF5"/>
<path d="M25.3125 49.2188H64.6875C65.4637 49.2188 66.0938 49.8487 66.0938 50.625C66.0938 51.4012 65.4637 52.0312 64.6875 52.0312H25.3125C24.5362 52.0312 23.9062 51.4012 23.9062 50.625C23.9062 49.8487 24.5362 49.2188 25.3125 49.2188Z" fill="#C9DAF5"/>
<path d="M25.3125 40.7812H64.6875C65.4637 40.7812 66.0938 41.4112 66.0938 42.1875C66.0938 42.9637 65.4637 43.5938 64.6875 43.5938H25.3125C24.5362 43.5938 23.9062 42.9637 23.9062 42.1875C23.9062 41.4112 24.5362 40.7812 25.3125 40.7812Z" fill="#C9DAF5"/>
</svg>
