<svg width="90" height="90" viewBox="0 0 90 90" fill="none" xmlns="http://www.w3.org/2000/svg">
<path d="M22.5 0C19.4062 0 16.875 2.53125 16.875 5.625V84.375C16.875 87.4688 19.4062 90 22.5 90H78.75C81.8438 90 84.375 87.4688 84.375 84.375V22.5L61.875 0H22.5Z" fill="#E2EDFF"/>
<path d="M67.5 22.5H84.375L61.875 0V16.875C61.875 19.9688 64.4062 22.5 67.5 22.5Z" fill="#C9DAF5"/>
<path d="M84.375 39.375L67.5 22.5H84.375V39.375Z" fill="#E2EDFF"/>
<path d="M73.125 73.125C73.125 74.6719 71.8594 75.9375 70.3125 75.9375H8.4375C6.89062 75.9375 5.625 74.6719 5.625 73.125V45C5.625 43.4531 6.89062 42.1875 8.4375 42.1875H70.3125C71.8594 42.1875 73.125 43.4531 73.125 45V73.125Z" fill="#002E47"/>
<path d="M24.9552 53.2884C24.9552 51.3984 27.9252 51.3984 27.9252 53.2884V62.1703C27.9252 65.7028 26.2377 67.8403 22.348 67.8403C20.4355 67.8403 18.8409 67.32 17.4459 65.5228C16.2984 64.1503 18.4584 62.1731 19.6284 63.6103C20.5734 64.7803 21.5859 65.0503 22.573 65.0053C23.8302 64.9603 24.9355 64.395 24.958 62.1703V53.2884H24.9552Z" fill="white"/>
<path d="M31.8767 53.2884C31.8767 52.5459 32.4617 51.7359 33.4067 51.7359H38.6014C41.5264 51.7359 44.1589 53.6934 44.1589 57.4453C44.1589 61.0003 41.5264 62.9803 38.6014 62.9803H34.8467V65.9503C34.8467 66.9403 34.2167 67.5 33.4067 67.5C32.6642 67.5 31.8767 66.9403 31.8767 65.9503V53.2884ZM34.8467 54.5681V60.1706H38.6014C40.1089 60.1706 41.3014 58.8403 41.3014 57.4453C41.3014 55.8731 40.1089 54.5681 38.6014 54.5681H34.8467Z" fill="white"/>
<path d="M60.2184 65.7703C58.6209 67.0978 56.6634 67.6603 54.6863 67.6603C49.9613 67.6603 46.6116 64.9631 46.6116 59.6081C46.6116 55.0687 50.1441 51.5391 54.8859 51.5391C56.6634 51.5391 58.6181 52.1437 60.0131 53.5162C61.3828 54.8634 59.4056 56.8659 58.0584 55.6762C57.2259 54.8662 56.0559 54.2587 54.8859 54.2587C52.1663 54.2587 49.5366 56.4384 49.5366 59.6081C49.5366 62.9381 51.7388 64.9631 54.6863 64.9631C56.0559 64.9631 57.2259 64.5553 58.0584 63.9506V61.1859H54.6863C52.6838 61.1859 52.8863 58.4409 54.6863 58.4409H59.1834C60.0159 58.4409 60.7781 59.0709 60.7781 59.7684V64.5581C60.7781 64.9631 60.6009 65.34 60.2184 65.7703Z" fill="white"/>
<path d="M70.3125 75.9375H16.875V78.75H70.3125C71.8594 78.75 73.125 77.4844 73.125 75.9375V73.125C73.125 74.6719 71.8594 75.9375 70.3125 75.9375Z" fill="#E2EDFF"/>
</svg>
