<svg width="90" height="90" viewBox="0 0 90 90" fill="none" xmlns="http://www.w3.org/2000/svg">
<path d="M22.5 0C19.4062 0 16.875 2.53125 16.875 5.625V84.375C16.875 87.4688 19.4062 90 22.5 90H78.75C81.8438 90 84.375 87.4688 84.375 84.375V22.5L61.875 0H22.5Z" fill="#E2EDFF"/>
<path d="M67.5 22.5H84.375L61.875 0V16.875C61.875 19.9688 64.4062 22.5 67.5 22.5Z" fill="#C9DAF5"/>
<path d="M84.375 39.375L67.5 22.5H84.375V39.375Z" fill="#E2EDFF"/>
<path d="M73.125 73.125C73.125 74.6719 71.8594 75.9375 70.3125 75.9375H8.4375C6.89062 75.9375 5.625 74.6719 5.625 73.125V45C5.625 43.4531 6.89062 42.1875 8.4375 42.1875H70.3125C71.8594 42.1875 73.125 43.4531 73.125 45V73.125Z" fill="#EF6079"/>
<path d="M17.8848 53.2884C17.8848 52.5459 18.4698 51.7359 19.412 51.7359H24.6066C27.5316 51.7359 30.1641 53.6934 30.1641 57.4453C30.1641 61.0003 27.5316 62.9803 24.6066 62.9803H20.852V65.9503C20.852 66.9403 20.222 67.5 19.412 67.5C18.6695 67.5 17.8848 66.9403 17.8848 65.9503V53.2884ZM20.852 54.5681V60.1706H24.6066C26.1141 60.1706 27.3066 58.8403 27.3066 57.4453C27.3066 55.8731 26.1141 54.5681 24.6066 54.5681H20.852Z" fill="white"/>
<path d="M34.5686 67.5C33.8261 67.5 33.0161 67.095 33.0161 66.1078V53.3334C33.0161 52.5262 33.8261 51.9384 34.5686 51.9384H39.7183C49.9952 51.9384 49.7702 67.5 39.9208 67.5H34.5686ZM35.9861 54.6834V64.7578H39.7183C45.7905 64.7578 46.0605 54.6834 39.7183 54.6834H35.9861Z" fill="white"/>
<path d="M53.415 54.8634V58.4381H59.1497C59.9597 58.4381 60.7697 59.2481 60.7697 60.0328C60.7697 60.7753 59.9597 61.3828 59.1497 61.3828H53.415V66.105C53.415 66.8925 52.8553 67.4972 52.0678 67.4972C51.0778 67.4972 50.4731 66.8925 50.4731 66.105V53.3306C50.4731 52.5234 51.0806 51.9356 52.0678 51.9356H59.9625C60.9525 51.9356 61.5375 52.5234 61.5375 53.3306C61.5375 54.0506 60.9525 54.8606 59.9625 54.8606H53.415V54.8634Z" fill="white"/>
<path d="M70.3125 75.9375H16.875V78.75H70.3125C71.8594 78.75 73.125 77.4844 73.125 75.9375V73.125C73.125 74.6719 71.8594 75.9375 70.3125 75.9375Z" fill="#E2EDFF"/>
</svg>
