<svg width="90" height="90" viewBox="0 0 90 90" fill="none" xmlns="http://www.w3.org/2000/svg">
<path d="M22.5 0C19.4062 0 16.875 2.53125 16.875 5.625V84.375C16.875 87.4688 19.4062 90 22.5 90H78.75C81.8438 90 84.375 87.4688 84.375 84.375V22.5L61.875 0H22.5Z" fill="#E2EDFF"/>
<path d="M67.5 22.5H84.375L61.875 0V16.875C61.875 19.9688 64.4062 22.5 67.5 22.5Z" fill="#C9DAF5"/>
<path d="M84.375 39.375L67.5 22.5H84.375V39.375Z" fill="#E2EDFF"/>
<path d="M73.125 73.125C73.125 74.6719 71.8594 75.9375 70.3125 75.9375H8.4375C6.89062 75.9375 5.625 74.6719 5.625 73.125V45C5.625 43.4531 6.89062 42.1875 8.4375 42.1875H70.3125C71.8594 42.1875 73.125 43.4531 73.125 45V73.125Z" fill="#002E47"/>
<path d="M16.3154 53.2884C16.3154 52.5459 16.8976 51.7331 17.8426 51.7331H23.0401C25.9623 51.7331 28.5948 53.6906 28.5948 57.4453C28.5948 61.0003 25.9623 62.9775 23.0401 62.9775H19.2798V65.9475C19.2798 66.9403 18.6554 67.5 17.8426 67.5C17.1001 67.5 16.3154 66.9403 16.3154 65.9475V53.2884ZM19.2798 54.5681V60.1678H23.0373C24.542 60.1678 25.7345 58.8403 25.7345 57.4453C25.7345 55.8703 24.542 54.5681 23.0373 54.5681H19.2798Z" fill="white"/>
<path d="M31.4608 53.5134C31.4608 52.7006 31.6408 51.9159 32.8108 51.9159C33.618 51.9159 33.8008 52.1184 34.4055 52.7006L41.8474 62.0128V53.2884C41.8474 52.5459 42.4971 51.7331 43.2649 51.7331C44.0749 51.7331 44.8596 52.5459 44.8596 53.2884V65.9475C44.8596 66.9403 44.2521 67.3172 43.6671 67.5C42.8824 67.5 42.4971 67.32 41.8474 66.7153L34.4055 57.2681V65.9503C34.4055 66.9431 33.798 67.5028 32.988 67.5028C32.178 67.5028 31.458 66.9431 31.458 65.9503V53.5134H31.4608Z" fill="white"/>
<path d="M61.7768 65.7703C60.1793 67.095 58.2218 67.6603 56.2446 67.6603C51.5196 67.6603 48.1699 64.9603 48.1699 59.6081C48.1699 55.0659 51.7024 51.5363 56.4443 51.5363C58.2218 51.5363 60.1765 52.1438 61.5715 53.5163C62.944 54.8634 60.964 56.8659 59.6168 55.6763C58.7843 54.8634 57.6143 54.2588 56.4443 54.2588C53.7246 54.2588 51.0949 56.4384 51.0949 59.6081C51.0949 62.9381 53.2971 64.9603 56.2446 64.9603C57.6143 64.9603 58.7843 64.5553 59.6168 63.9478V61.1859H56.2446C54.2421 61.1859 54.4446 58.4381 56.2446 58.4381H60.7418C61.5743 58.4381 62.3365 59.0709 62.3365 59.7684V64.5581C62.3365 64.9603 62.1593 65.34 61.7768 65.7703Z" fill="white"/>
<path d="M70.3125 75.9375H16.875V78.75H70.3125C71.8594 78.75 73.125 77.4844 73.125 75.9375V73.125C73.125 74.6719 71.8594 75.9375 70.3125 75.9375Z" fill="#E2EDFF"/>
</svg>
