<svg width="90" height="90" viewBox="0 0 90 90" fill="none" xmlns="http://www.w3.org/2000/svg">
<path d="M22.5 0C19.4062 0 16.875 2.53125 16.875 5.625V84.375C16.875 87.4688 19.4062 90 22.5 90H78.75C81.8438 90 84.375 87.4688 84.375 84.375V22.5L61.875 0H22.5Z" fill="#E2EDFF"/>
<path d="M67.5 22.5H84.375L61.875 0V16.875C61.875 19.9688 64.4062 22.5 67.5 22.5Z" fill="#C9DAF5"/>
<path d="M84.375 39.375L67.5 22.5H84.375V39.375Z" fill="#E2EDFF"/>
<path d="M73.125 73.125C73.125 74.6719 71.8594 75.9375 70.3125 75.9375H8.4375C6.89062 75.9375 5.625 74.6719 5.625 73.125V45C5.625 43.4531 6.89062 42.1875 8.4375 42.1875H70.3125C71.8594 42.1875 73.125 43.4531 73.125 45V73.125Z" fill="#EF6079"/>
<path d="M18.5371 53.2884C18.5371 52.5459 19.1221 51.7359 20.0643 51.7359H25.259C28.184 51.7359 30.8165 53.6934 30.8165 57.4453C30.8165 61.0003 28.184 62.9803 25.259 62.9803H21.5043V65.9503C21.5043 66.9403 20.8771 67.5 20.0671 67.5C19.3246 67.5 18.5399 66.9403 18.5399 65.9503V53.2884H18.5371ZM21.5043 54.5681V60.1706H25.259C26.7665 60.1706 27.959 58.8403 27.959 57.4453C27.959 55.8731 26.7665 54.5681 25.259 54.5681H21.5043Z" fill="white"/>
<path d="M33.6824 53.2884C33.6824 52.5459 34.2674 51.7359 35.2124 51.7359H40.4071C43.3321 51.7359 45.9646 53.6934 45.9646 57.4453C45.9646 61.0003 43.3321 62.9803 40.4071 62.9803H36.6524V65.9503C36.6524 66.9403 36.0224 67.5 35.2124 67.5C34.4699 67.5 33.6824 66.9403 33.6824 65.9503V53.2884ZM36.6496 54.5681V60.1706H40.4042C41.9117 60.1706 43.1042 58.8403 43.1042 57.4453C43.1042 55.8731 41.9117 54.5681 40.4042 54.5681H36.6496Z" fill="white"/>
<path d="M53.0296 54.7509H49.0978C47.1403 54.7509 47.1403 51.8737 49.0978 51.8737H59.7318C61.7343 51.8737 61.7343 54.7509 59.7318 54.7509H55.9996V66.1078C55.9996 68.0625 53.0296 68.1103 53.0296 66.1078V54.7509Z" fill="white"/>
<path d="M70.3125 75.9375H16.875V78.75H70.3125C71.8594 78.75 73.125 77.4844 73.125 75.9375V73.125C73.125 74.6719 71.8594 75.9375 70.3125 75.9375Z" fill="#E2EDFF"/>
</svg>
