<svg width="90" height="90" viewBox="0 0 90 90" fill="none" xmlns="http://www.w3.org/2000/svg">
<path d="M22.5 0C19.4062 0 16.875 2.53125 16.875 5.625V84.375C16.875 87.4688 19.4062 90 22.5 90H78.75C81.8438 90 84.375 87.4688 84.375 84.375V22.5L61.875 0H22.5Z" fill="#E2EDFF"/>
<path d="M67.5 22.5H84.375L61.875 0V16.875C61.875 19.9688 64.4062 22.5 67.5 22.5Z" fill="#C9DAF5"/>
<path d="M84.375 39.375L67.5 22.5H84.375V39.375Z" fill="#E2EDFF"/>
<path d="M73.125 73.125C73.125 74.6719 71.8594 75.9375 70.3125 75.9375H8.4375C6.89062 75.9375 5.625 74.6719 5.625 73.125V45C5.625 43.4531 6.89062 42.1875 8.4375 42.1875H70.3125C71.8594 42.1875 73.125 43.4531 73.125 45V73.125Z" fill="#FFB618"/>
<path d="M17.0185 55.3106C17.536 50.9484 24.1229 50.1637 27.2279 52.5487C28.7579 53.7834 27.1379 55.7409 25.7879 54.7509C24.1229 53.6934 20.3457 53.1984 19.8732 55.5356C19.2657 59.2256 29.0476 57.1134 28.8929 63.0928C28.7354 68.805 20.4582 68.94 17.3532 66.375C16.6107 65.7703 16.6332 64.7831 17.0382 64.1728C17.6232 63.5906 18.2757 63.3881 19.0407 64.0153C20.8829 65.2753 25.6304 66.2203 25.9651 63.0225C25.6754 59.6981 16.321 61.7006 17.0185 55.3106Z" fill="white"/>
<path d="M36.7595 66.4903L30.8224 54.0534C29.9449 52.2759 32.5999 50.8163 33.587 52.6809L35.5895 57.2006L38.1742 63.1378L40.7139 57.2006L42.7164 52.6809C43.6164 50.9738 46.2236 52.0509 45.4614 53.9184L39.7267 66.4903C39.2092 67.9078 37.6145 68.2425 36.7595 66.4903Z" fill="white"/>
<path d="M60.7783 65.7703C59.1808 67.095 57.2233 67.6603 55.2461 67.6603C50.5211 67.6603 47.1714 64.9603 47.1714 59.6081C47.1714 55.0659 50.7039 51.5363 55.4458 51.5363C57.2233 51.5363 59.178 52.1438 60.573 53.5163C61.9426 54.8634 59.9654 56.8659 58.6183 55.6763C57.7858 54.8634 56.6158 54.2588 55.4458 54.2588C52.7261 54.2588 50.0964 56.4384 50.0964 59.6081C50.0964 62.9381 52.2986 64.9603 55.2461 64.9603C56.6158 64.9603 57.7858 64.5553 58.6183 63.9478V61.1859H55.2461C53.2436 61.1859 53.4461 58.4381 55.2461 58.4381H59.7433C60.5758 58.4381 61.338 59.0709 61.338 59.7684V64.5581C61.3408 64.9603 61.1608 65.34 60.7783 65.7703Z" fill="white"/>
<path d="M70.3125 75.9375H16.875V78.75H70.3125C71.8594 78.75 73.125 77.4844 73.125 75.9375V73.125C73.125 74.6719 71.8594 75.9375 70.3125 75.9375Z" fill="#E2EDFF"/>
</svg>
