<svg width="60" height="81" viewBox="0 0 60 81" fill="none" xmlns="http://www.w3.org/2000/svg">
<g clip-path="url(#clip0_593_34663)">
<path d="M5 0.5C2.25 0.5 0 2.75 0 5.5V75.5C0 78.25 2.25 80.5 5 80.5H55C57.75 80.5 60 78.25 60 75.5V20.5L40 0.5H5Z" fill="#39B4EF"/>
<path d="M45 20.5H60L40 0.5V15.5C40 18.25 42.25 20.5 45 20.5Z" fill="#1A97D2"/>
<path d="M60 35.5L45 20.5H60V35.5Z" fill="#39B4EF"/>
<path d="M43.333 41.3333C42.9794 41.3333 42.6402 41.4737 42.3902 41.7238C42.1402 41.9738 41.9997 42.313 41.9997 42.6666V48.2839C41.9986 49.2691 41.6068 50.2137 40.9101 50.9104C40.2135 51.607 39.2689 51.9989 38.2837 51.9999H21.7157C20.7305 51.9989 19.7859 51.607 19.0892 50.9104C18.3926 50.2137 18.0007 49.2691 17.9997 48.2839V42.6666C17.9997 42.313 17.8592 41.9738 17.6092 41.7238C17.3591 41.4737 17.02 41.3333 16.6663 41.3333C16.3127 41.3333 15.9736 41.4737 15.7235 41.7238C15.4735 41.9738 15.333 42.313 15.333 42.6666V48.2839C15.3348 49.9762 16.0078 51.5986 17.2044 52.7952C18.401 53.9918 20.0234 54.6648 21.7157 54.6666H38.2837C39.9759 54.6648 41.5984 53.9918 42.795 52.7952C43.9916 51.5986 44.6646 49.9762 44.6663 48.2839V42.6666C44.6663 42.313 44.5259 41.9738 44.2758 41.7238C44.0258 41.4737 43.6866 41.3333 43.333 41.3333Z" fill="white"/>
<path d="M22.9422 35.6092L28.6662 29.8852V46.6665C28.6662 47.0202 28.8067 47.3593 29.0568 47.6094C29.3068 47.8594 29.6459 47.9999 29.9996 47.9999C30.3532 47.9999 30.6923 47.8594 30.9424 47.6094C31.1924 47.3593 31.3329 47.0202 31.3329 46.6665V29.8852L37.0569 35.6092C37.3084 35.8521 37.6452 35.9865 37.9948 35.9834C38.3444 35.9804 38.6788 35.8402 38.926 35.593C39.1732 35.3458 39.3134 35.0113 39.3165 34.6617C39.3195 34.3122 39.1851 33.9753 38.9422 33.7239L30.9422 25.7239C30.6922 25.4739 30.3531 25.3335 29.9996 25.3335C29.646 25.3335 29.3069 25.4739 29.0569 25.7239L21.0569 33.7239C20.814 33.9753 20.6796 34.3122 20.6827 34.6617C20.6857 35.0113 20.8259 35.3458 21.0731 35.593C21.3204 35.8402 21.6548 35.9804 22.0044 35.9834C22.354 35.9865 22.6908 35.8521 22.9422 35.6092Z" fill="white"/>
</g>
<defs>
<clipPath id="clip0_593_34663">
<rect width="60" height="81" fill="white"/>
</clipPath>
</defs>
</svg>
