<svg width="90" height="90" viewBox="0 0 90 90" fill="none" xmlns="http://www.w3.org/2000/svg">
<path d="M22.5 0C19.4062 0 16.875 2.53125 16.875 5.625V84.375C16.875 87.4688 19.4062 90 22.5 90H78.75C81.8438 90 84.375 87.4688 84.375 84.375V22.5L61.875 0H22.5Z" fill="#E2EDFF"/>
<path d="M67.5 22.5H84.375L61.875 0V16.875C61.875 19.9688 64.4062 22.5 67.5 22.5Z" fill="#C9DAF5"/>
<path d="M84.375 39.375L67.5 22.5H84.375V39.375Z" fill="#E2EDFF"/>
<path d="M73.125 73.125C73.125 74.6719 71.8594 75.9375 70.3125 75.9375H8.4375C6.89062 75.9375 5.625 74.6719 5.625 73.125V45C5.625 43.4531 6.89062 42.1875 8.4375 42.1875H70.3125C71.8594 42.1875 73.125 43.4531 73.125 45V73.125Z" fill="#1DE39C"/>
<path d="M25.3717 57.3385L29.2839 52.4363C30.4539 50.9063 32.7264 52.861 31.4439 54.3235C30.0967 55.921 28.6792 57.6535 27.3292 59.4281L31.9164 65.1403C33.1539 66.8278 30.6817 68.445 29.4667 66.78L25.3267 61.4728L21.257 66.8953C20.1095 68.535 17.567 66.6928 18.8495 65.1628L23.3692 59.4281C21.9517 57.6506 20.5792 55.921 19.2095 54.3235C17.7948 52.636 20.4245 50.9063 21.4595 52.4841L25.3717 57.3385Z" fill="white"/>
<path d="M34.6924 53.2885C34.6924 52.546 35.3224 51.916 36.1099 51.916C36.8299 51.916 37.4374 52.5488 37.4374 53.2885V64.5553H43.5546C45.7568 64.5553 45.8046 67.5 43.5546 67.5H36.1127C35.3252 67.5 34.6952 66.9403 34.6952 66.1303V53.2885H34.6924Z" fill="white"/>
<path d="M47.8182 55.3134C48.3357 50.9484 54.9226 50.1638 58.0276 52.5488C59.5576 53.7834 57.9376 55.7409 56.5876 54.7509C54.9226 53.6963 51.1454 53.2013 50.6729 55.5356C50.0654 59.2256 59.8473 57.1134 59.6898 63.0956C59.5323 68.8078 51.2579 68.94 48.1529 66.3778C47.4076 65.7703 47.4329 64.7831 47.8379 64.1728C48.4229 63.5906 49.0726 63.3881 49.8404 64.0181C51.6826 65.2753 56.4301 66.2203 56.7648 63.0253C56.4751 59.7009 47.1207 61.7006 47.8182 55.3134Z" fill="white"/>
<path d="M70.3125 75.9375H16.875V78.75H70.3125C71.8594 78.75 73.125 77.4844 73.125 75.9375V73.125C73.125 74.6719 71.8594 75.9375 70.3125 75.9375Z" fill="#E2EDFF"/>
</svg>
